%TF.GenerationSoftware,KiCad,Pcbnew,(5.1.10)-1*%
%TF.CreationDate,2021-10-15T15:04:30-04:00*%
%TF.ProjectId,KittyCaddyV1,4b697474-7943-4616-9464-7956312e6b69,1.0*%
%TF.SameCoordinates,Original*%
%TF.FileFunction,Legend,Top*%
%TF.FilePolarity,Positive*%
%FSLAX46Y46*%
G04 Gerber Fmt 4.6, Leading zero omitted, Abs format (unit mm)*
G04 Created by KiCad (PCBNEW (5.1.10)-1) date 2021-10-15 15:04:30*
%MOMM*%
%LPD*%
G01*
G04 APERTURE LIST*
%ADD10C,0.150000*%
%ADD11C,0.120000*%
G04 APERTURE END LIST*
D10*
X88924952Y-115514333D02*
X88877333Y-115466714D01*
X88782095Y-115323857D01*
X88734476Y-115228619D01*
X88686857Y-115085761D01*
X88639238Y-114847666D01*
X88639238Y-114657190D01*
X88686857Y-114419095D01*
X88734476Y-114276238D01*
X88782095Y-114181000D01*
X88877333Y-114038142D01*
X88924952Y-113990523D01*
X89734476Y-115085761D02*
X89639238Y-115133380D01*
X89448761Y-115133380D01*
X89353523Y-115085761D01*
X89305904Y-115038142D01*
X89258285Y-114942904D01*
X89258285Y-114657190D01*
X89305904Y-114561952D01*
X89353523Y-114514333D01*
X89448761Y-114466714D01*
X89639238Y-114466714D01*
X89734476Y-114514333D01*
X90067809Y-115514333D02*
X90115428Y-115466714D01*
X90210666Y-115323857D01*
X90258285Y-115228619D01*
X90305904Y-115085761D01*
X90353523Y-114847666D01*
X90353523Y-114657190D01*
X90305904Y-114419095D01*
X90258285Y-114276238D01*
X90210666Y-114181000D01*
X90115428Y-114038142D01*
X90067809Y-113990523D01*
X91544000Y-114228619D02*
X91591619Y-114181000D01*
X91686857Y-114133380D01*
X91924952Y-114133380D01*
X92020190Y-114181000D01*
X92067809Y-114228619D01*
X92115428Y-114323857D01*
X92115428Y-114419095D01*
X92067809Y-114561952D01*
X91496380Y-115133380D01*
X92115428Y-115133380D01*
X92734476Y-114133380D02*
X92829714Y-114133380D01*
X92924952Y-114181000D01*
X92972571Y-114228619D01*
X93020190Y-114323857D01*
X93067809Y-114514333D01*
X93067809Y-114752428D01*
X93020190Y-114942904D01*
X92972571Y-115038142D01*
X92924952Y-115085761D01*
X92829714Y-115133380D01*
X92734476Y-115133380D01*
X92639238Y-115085761D01*
X92591619Y-115038142D01*
X92544000Y-114942904D01*
X92496380Y-114752428D01*
X92496380Y-114514333D01*
X92544000Y-114323857D01*
X92591619Y-114228619D01*
X92639238Y-114181000D01*
X92734476Y-114133380D01*
X93448761Y-114228619D02*
X93496380Y-114181000D01*
X93591619Y-114133380D01*
X93829714Y-114133380D01*
X93924952Y-114181000D01*
X93972571Y-114228619D01*
X94020190Y-114323857D01*
X94020190Y-114419095D01*
X93972571Y-114561952D01*
X93401142Y-115133380D01*
X94020190Y-115133380D01*
X94972571Y-115133380D02*
X94401142Y-115133380D01*
X94686857Y-115133380D02*
X94686857Y-114133380D01*
X94591619Y-114276238D01*
X94496380Y-114371476D01*
X94401142Y-114419095D01*
X96163047Y-115133380D02*
X96163047Y-114133380D01*
X96496380Y-114847666D01*
X96829714Y-114133380D01*
X96829714Y-115133380D01*
X97305904Y-115133380D02*
X97305904Y-114466714D01*
X97305904Y-114133380D02*
X97258285Y-114181000D01*
X97305904Y-114228619D01*
X97353523Y-114181000D01*
X97305904Y-114133380D01*
X97305904Y-114228619D01*
X98210666Y-115085761D02*
X98115428Y-115133380D01*
X97924952Y-115133380D01*
X97829714Y-115085761D01*
X97782095Y-115038142D01*
X97734476Y-114942904D01*
X97734476Y-114657190D01*
X97782095Y-114561952D01*
X97829714Y-114514333D01*
X97924952Y-114466714D01*
X98115428Y-114466714D01*
X98210666Y-114514333D01*
X98639238Y-115133380D02*
X98639238Y-114133380D01*
X99067809Y-115133380D02*
X99067809Y-114609571D01*
X99020190Y-114514333D01*
X98924952Y-114466714D01*
X98782095Y-114466714D01*
X98686857Y-114514333D01*
X98639238Y-114561952D01*
X99972571Y-115133380D02*
X99972571Y-114609571D01*
X99924952Y-114514333D01*
X99829714Y-114466714D01*
X99639238Y-114466714D01*
X99544000Y-114514333D01*
X99972571Y-115085761D02*
X99877333Y-115133380D01*
X99639238Y-115133380D01*
X99544000Y-115085761D01*
X99496380Y-114990523D01*
X99496380Y-114895285D01*
X99544000Y-114800047D01*
X99639238Y-114752428D01*
X99877333Y-114752428D01*
X99972571Y-114704809D01*
X100829714Y-115085761D02*
X100734476Y-115133380D01*
X100544000Y-115133380D01*
X100448761Y-115085761D01*
X100401142Y-114990523D01*
X100401142Y-114609571D01*
X100448761Y-114514333D01*
X100544000Y-114466714D01*
X100734476Y-114466714D01*
X100829714Y-114514333D01*
X100877333Y-114609571D01*
X100877333Y-114704809D01*
X100401142Y-114800047D01*
X101448761Y-115133380D02*
X101353523Y-115085761D01*
X101305904Y-114990523D01*
X101305904Y-114133380D01*
X103163047Y-115133380D02*
X102829714Y-114657190D01*
X102591619Y-115133380D02*
X102591619Y-114133380D01*
X102972571Y-114133380D01*
X103067809Y-114181000D01*
X103115428Y-114228619D01*
X103163047Y-114323857D01*
X103163047Y-114466714D01*
X103115428Y-114561952D01*
X103067809Y-114609571D01*
X102972571Y-114657190D01*
X102591619Y-114657190D01*
X103972571Y-115085761D02*
X103877333Y-115133380D01*
X103686857Y-115133380D01*
X103591619Y-115085761D01*
X103544000Y-114990523D01*
X103544000Y-114609571D01*
X103591619Y-114514333D01*
X103686857Y-114466714D01*
X103877333Y-114466714D01*
X103972571Y-114514333D01*
X104020190Y-114609571D01*
X104020190Y-114704809D01*
X103544000Y-114800047D01*
X104448761Y-115133380D02*
X104448761Y-114466714D01*
X104448761Y-114561952D02*
X104496380Y-114514333D01*
X104591619Y-114466714D01*
X104734476Y-114466714D01*
X104829714Y-114514333D01*
X104877333Y-114609571D01*
X104877333Y-115133380D01*
X104877333Y-114609571D02*
X104924952Y-114514333D01*
X105020190Y-114466714D01*
X105163047Y-114466714D01*
X105258285Y-114514333D01*
X105305904Y-114609571D01*
X105305904Y-115133380D01*
X105924952Y-115133380D02*
X105829714Y-115085761D01*
X105782095Y-114990523D01*
X105782095Y-114133380D01*
X106686857Y-115085761D02*
X106591619Y-115133380D01*
X106401142Y-115133380D01*
X106305904Y-115085761D01*
X106258285Y-114990523D01*
X106258285Y-114609571D01*
X106305904Y-114514333D01*
X106401142Y-114466714D01*
X106591619Y-114466714D01*
X106686857Y-114514333D01*
X106734476Y-114609571D01*
X106734476Y-114704809D01*
X106258285Y-114800047D01*
X107067809Y-114466714D02*
X107305904Y-115133380D01*
X107544000Y-114466714D02*
X107305904Y-115133380D01*
X107210666Y-115371476D01*
X107163047Y-115419095D01*
X107067809Y-115466714D01*
X88924571Y-113355380D02*
X88924571Y-112355380D01*
X89496000Y-113355380D02*
X89067428Y-112783952D01*
X89496000Y-112355380D02*
X88924571Y-112926809D01*
X89924571Y-113355380D02*
X89924571Y-112688714D01*
X89924571Y-112355380D02*
X89876952Y-112403000D01*
X89924571Y-112450619D01*
X89972190Y-112403000D01*
X89924571Y-112355380D01*
X89924571Y-112450619D01*
X90257904Y-112688714D02*
X90638857Y-112688714D01*
X90400761Y-112355380D02*
X90400761Y-113212523D01*
X90448380Y-113307761D01*
X90543619Y-113355380D01*
X90638857Y-113355380D01*
X90829333Y-112688714D02*
X91210285Y-112688714D01*
X90972190Y-112355380D02*
X90972190Y-113212523D01*
X91019809Y-113307761D01*
X91115047Y-113355380D01*
X91210285Y-113355380D01*
X91448380Y-112688714D02*
X91686476Y-113355380D01*
X91924571Y-112688714D02*
X91686476Y-113355380D01*
X91591238Y-113593476D01*
X91543619Y-113641095D01*
X91448380Y-113688714D01*
X93638857Y-113260142D02*
X93591238Y-113307761D01*
X93448380Y-113355380D01*
X93353142Y-113355380D01*
X93210285Y-113307761D01*
X93115047Y-113212523D01*
X93067428Y-113117285D01*
X93019809Y-112926809D01*
X93019809Y-112783952D01*
X93067428Y-112593476D01*
X93115047Y-112498238D01*
X93210285Y-112403000D01*
X93353142Y-112355380D01*
X93448380Y-112355380D01*
X93591238Y-112403000D01*
X93638857Y-112450619D01*
X94496000Y-113355380D02*
X94496000Y-112831571D01*
X94448380Y-112736333D01*
X94353142Y-112688714D01*
X94162666Y-112688714D01*
X94067428Y-112736333D01*
X94496000Y-113307761D02*
X94400761Y-113355380D01*
X94162666Y-113355380D01*
X94067428Y-113307761D01*
X94019809Y-113212523D01*
X94019809Y-113117285D01*
X94067428Y-113022047D01*
X94162666Y-112974428D01*
X94400761Y-112974428D01*
X94496000Y-112926809D01*
X95400761Y-113355380D02*
X95400761Y-112355380D01*
X95400761Y-113307761D02*
X95305523Y-113355380D01*
X95115047Y-113355380D01*
X95019809Y-113307761D01*
X94972190Y-113260142D01*
X94924571Y-113164904D01*
X94924571Y-112879190D01*
X94972190Y-112783952D01*
X95019809Y-112736333D01*
X95115047Y-112688714D01*
X95305523Y-112688714D01*
X95400761Y-112736333D01*
X96305523Y-113355380D02*
X96305523Y-112355380D01*
X96305523Y-113307761D02*
X96210285Y-113355380D01*
X96019809Y-113355380D01*
X95924571Y-113307761D01*
X95876952Y-113260142D01*
X95829333Y-113164904D01*
X95829333Y-112879190D01*
X95876952Y-112783952D01*
X95924571Y-112736333D01*
X96019809Y-112688714D01*
X96210285Y-112688714D01*
X96305523Y-112736333D01*
X96686476Y-112688714D02*
X96924571Y-113355380D01*
X97162666Y-112688714D02*
X96924571Y-113355380D01*
X96829333Y-113593476D01*
X96781714Y-113641095D01*
X96686476Y-113688714D01*
X98162666Y-112355380D02*
X98496000Y-113355380D01*
X98829333Y-112355380D01*
X99686476Y-113355380D02*
X99115047Y-113355380D01*
X99400761Y-113355380D02*
X99400761Y-112355380D01*
X99305523Y-112498238D01*
X99210285Y-112593476D01*
X99115047Y-112641095D01*
X100115047Y-113260142D02*
X100162666Y-113307761D01*
X100115047Y-113355380D01*
X100067428Y-113307761D01*
X100115047Y-113260142D01*
X100115047Y-113355380D01*
X100781714Y-112355380D02*
X100876952Y-112355380D01*
X100972190Y-112403000D01*
X101019809Y-112450619D01*
X101067428Y-112545857D01*
X101115047Y-112736333D01*
X101115047Y-112974428D01*
X101067428Y-113164904D01*
X101019809Y-113260142D01*
X100972190Y-113307761D01*
X100876952Y-113355380D01*
X100781714Y-113355380D01*
X100686476Y-113307761D01*
X100638857Y-113260142D01*
X100591238Y-113164904D01*
X100543619Y-112974428D01*
X100543619Y-112736333D01*
X100591238Y-112545857D01*
X100638857Y-112450619D01*
X100686476Y-112403000D01*
X100781714Y-112355380D01*
D11*
%TO.C,DS1*%
X129760000Y-123117000D02*
X157260000Y-123117000D01*
X157260000Y-123117000D02*
X157260000Y-150917000D01*
X157260000Y-150917000D02*
X129760000Y-150917000D01*
X129760000Y-150917000D02*
X129760000Y-123117000D01*
%TO.C,SW1*%
X160919600Y-147750600D02*
X165419600Y-147750600D01*
X159669600Y-143750600D02*
X159669600Y-145250600D01*
X165419600Y-141250600D02*
X160919600Y-141250600D01*
X166669600Y-145250600D02*
X166669600Y-143750600D01*
%TO.C,SW2*%
X160919600Y-137590600D02*
X165419600Y-137590600D01*
X159669600Y-133590600D02*
X159669600Y-135090600D01*
X165419600Y-131090600D02*
X160919600Y-131090600D01*
X166669600Y-135090600D02*
X166669600Y-133590600D01*
%TO.C,SW3*%
X160919600Y-127430600D02*
X165419600Y-127430600D01*
X159669600Y-123430600D02*
X159669600Y-124930600D01*
X165419600Y-120930600D02*
X160919600Y-120930600D01*
X166669600Y-124930600D02*
X166669600Y-123430600D01*
%TO.C,DS1*%
D10*
X129849714Y-122380380D02*
X129849714Y-121380380D01*
X130087809Y-121380380D01*
X130230666Y-121428000D01*
X130325904Y-121523238D01*
X130373523Y-121618476D01*
X130421142Y-121808952D01*
X130421142Y-121951809D01*
X130373523Y-122142285D01*
X130325904Y-122237523D01*
X130230666Y-122332761D01*
X130087809Y-122380380D01*
X129849714Y-122380380D01*
X130802095Y-122332761D02*
X130944952Y-122380380D01*
X131183047Y-122380380D01*
X131278285Y-122332761D01*
X131325904Y-122285142D01*
X131373523Y-122189904D01*
X131373523Y-122094666D01*
X131325904Y-121999428D01*
X131278285Y-121951809D01*
X131183047Y-121904190D01*
X130992571Y-121856571D01*
X130897333Y-121808952D01*
X130849714Y-121761333D01*
X130802095Y-121666095D01*
X130802095Y-121570857D01*
X130849714Y-121475619D01*
X130897333Y-121428000D01*
X130992571Y-121380380D01*
X131230666Y-121380380D01*
X131373523Y-121428000D01*
X132325904Y-122380380D02*
X131754476Y-122380380D01*
X132040190Y-122380380D02*
X132040190Y-121380380D01*
X131944952Y-121523238D01*
X131849714Y-121618476D01*
X131754476Y-121666095D01*
%TO.C,SW1*%
X158432666Y-140231761D02*
X158575523Y-140279380D01*
X158813619Y-140279380D01*
X158908857Y-140231761D01*
X158956476Y-140184142D01*
X159004095Y-140088904D01*
X159004095Y-139993666D01*
X158956476Y-139898428D01*
X158908857Y-139850809D01*
X158813619Y-139803190D01*
X158623142Y-139755571D01*
X158527904Y-139707952D01*
X158480285Y-139660333D01*
X158432666Y-139565095D01*
X158432666Y-139469857D01*
X158480285Y-139374619D01*
X158527904Y-139327000D01*
X158623142Y-139279380D01*
X158861238Y-139279380D01*
X159004095Y-139327000D01*
X159337428Y-139279380D02*
X159575523Y-140279380D01*
X159766000Y-139565095D01*
X159956476Y-140279380D01*
X160194571Y-139279380D01*
X161099333Y-140279380D02*
X160527904Y-140279380D01*
X160813619Y-140279380D02*
X160813619Y-139279380D01*
X160718380Y-139422238D01*
X160623142Y-139517476D01*
X160527904Y-139565095D01*
%TO.C,SW2*%
X158432666Y-130071761D02*
X158575523Y-130119380D01*
X158813619Y-130119380D01*
X158908857Y-130071761D01*
X158956476Y-130024142D01*
X159004095Y-129928904D01*
X159004095Y-129833666D01*
X158956476Y-129738428D01*
X158908857Y-129690809D01*
X158813619Y-129643190D01*
X158623142Y-129595571D01*
X158527904Y-129547952D01*
X158480285Y-129500333D01*
X158432666Y-129405095D01*
X158432666Y-129309857D01*
X158480285Y-129214619D01*
X158527904Y-129167000D01*
X158623142Y-129119380D01*
X158861238Y-129119380D01*
X159004095Y-129167000D01*
X159337428Y-129119380D02*
X159575523Y-130119380D01*
X159766000Y-129405095D01*
X159956476Y-130119380D01*
X160194571Y-129119380D01*
X160527904Y-129214619D02*
X160575523Y-129167000D01*
X160670761Y-129119380D01*
X160908857Y-129119380D01*
X161004095Y-129167000D01*
X161051714Y-129214619D01*
X161099333Y-129309857D01*
X161099333Y-129405095D01*
X161051714Y-129547952D01*
X160480285Y-130119380D01*
X161099333Y-130119380D01*
%TO.C,SW3*%
X158432666Y-119911761D02*
X158575523Y-119959380D01*
X158813619Y-119959380D01*
X158908857Y-119911761D01*
X158956476Y-119864142D01*
X159004095Y-119768904D01*
X159004095Y-119673666D01*
X158956476Y-119578428D01*
X158908857Y-119530809D01*
X158813619Y-119483190D01*
X158623142Y-119435571D01*
X158527904Y-119387952D01*
X158480285Y-119340333D01*
X158432666Y-119245095D01*
X158432666Y-119149857D01*
X158480285Y-119054619D01*
X158527904Y-119007000D01*
X158623142Y-118959380D01*
X158861238Y-118959380D01*
X159004095Y-119007000D01*
X159337428Y-118959380D02*
X159575523Y-119959380D01*
X159766000Y-119245095D01*
X159956476Y-119959380D01*
X160194571Y-118959380D01*
X160480285Y-118959380D02*
X161099333Y-118959380D01*
X160766000Y-119340333D01*
X160908857Y-119340333D01*
X161004095Y-119387952D01*
X161051714Y-119435571D01*
X161099333Y-119530809D01*
X161099333Y-119768904D01*
X161051714Y-119864142D01*
X161004095Y-119911761D01*
X160908857Y-119959380D01*
X160623142Y-119959380D01*
X160527904Y-119911761D01*
X160480285Y-119864142D01*
%TD*%
M02*
