M48
; DRILL file {KiCad (5.1.10)-1} date 10/15/21 15:04:33
; FORMAT={-:-/ absolute / inch / decimal}
; #@! TF.CreationDate,2021-10-15T15:04:33-04:00
; #@! TF.GenerationSoftware,Kicad,Pcbnew,(5.1.10)-1
; #@! TF.FileFunction,Plated,1,2,PTH
FMAT,2
INCH
T1C0.0157
T2C0.0276
T3C0.0315
T4C0.0394
T5C0.0433
T6C0.0469
T7C0.0630
T8C0.0787
T9C0.1181
%
G90
G05
T1
X5.45Y-5.385
T2
X2.9716Y-5.065
X3.07Y-5.065
X5.4Y-5.64
X5.4Y-5.77
X5.5Y-4.545
X5.5984Y-4.545
X5.7Y-5.64
X5.7Y-5.77
X5.8Y-4.46
X5.8Y-4.585
X6.1Y-4.46
X6.1Y-4.585
T3
X2.9716Y-5.425
X3.07Y-5.425
X3.28Y-5.165
X3.28Y-5.665
X3.38Y-5.165
X3.38Y-5.665
X3.48Y-5.165
X3.48Y-5.665
X3.58Y-5.165
X3.58Y-5.665
X3.68Y-5.165
X3.68Y-5.665
X3.78Y-5.165
X3.78Y-5.665
X3.88Y-5.165
X3.88Y-5.665
X3.9Y-4.7566
X3.9Y-4.855
X3.98Y-5.165
X3.98Y-5.665
T4
X4.36Y-4.585
X4.36Y-4.685
X4.36Y-4.785
X4.36Y-4.885
X4.36Y-4.985
X4.36Y-5.085
X4.36Y-5.185
X4.36Y-5.285
X4.36Y-5.385
X4.36Y-5.485
X4.36Y-5.585
X4.36Y-5.685
X4.36Y-5.785
X4.36Y-5.885
X4.36Y-5.985
X4.96Y-4.585
X4.96Y-4.685
X4.96Y-4.785
X4.96Y-4.885
X4.96Y-4.985
X4.96Y-5.085
X4.96Y-5.185
X4.96Y-5.285
X4.96Y-5.385
X4.96Y-5.485
X4.96Y-5.585
X4.96Y-5.685
X4.96Y-5.785
X4.96Y-5.885
X4.96Y-5.985
X5.445Y-4.735
X5.5Y-4.9
X5.545Y-4.735
X5.6Y-4.9
X5.645Y-4.735
X5.7Y-4.9
X5.745Y-4.735
X5.8Y-4.9
X5.845Y-4.735
X5.945Y-4.735
X6.045Y-4.735
X6.145Y-4.735
T5
X6.296Y-4.8004
X6.296Y-4.9776
X6.296Y-5.2004
X6.296Y-5.3776
X6.296Y-5.6004
X6.296Y-5.7776
X6.552Y-4.8004
X6.552Y-4.9776
X6.552Y-5.2004
X6.552Y-5.3776
X6.552Y-5.6004
X6.552Y-5.7776
T6
X3.48Y-5.965
X3.58Y-5.965
X3.68Y-5.965
X3.78Y-5.965
X5.45Y-5.97
X5.55Y-5.97
X5.65Y-5.97
X5.75Y-5.97
X5.85Y-5.97
T7
X3.35Y-4.6188
X3.35Y-4.855
X3.535Y-4.7369
T8
X5.1874Y-4.9259
X5.1874Y-5.8629
X6.1126Y-4.9259
X6.1126Y-5.8629
T9
X3.0Y-4.575
X3.0Y-6.0
X6.5Y-4.575
X6.5Y-6.0
T0
M30
