%TF.GenerationSoftware,KiCad,Pcbnew,(5.1.10)-1*%
%TF.CreationDate,2021-10-15T15:04:30-04:00*%
%TF.ProjectId,KittyCaddyV1,4b697474-7943-4616-9464-7956312e6b69,1.0*%
%TF.SameCoordinates,Original*%
%TF.FileFunction,Legend,Bot*%
%TF.FilePolarity,Positive*%
%FSLAX46Y46*%
G04 Gerber Fmt 4.6, Leading zero omitted, Abs format (unit mm)*
G04 Created by KiCad (PCBNEW (5.1.10)-1) date 2021-10-15 15:04:30*
%MOMM*%
%LPD*%
G01*
G04 APERTURE LIST*
%ADD10C,0.120000*%
%ADD11C,0.150000*%
G04 APERTURE END LIST*
D10*
%TO.C,A1*%
X127384000Y-155959000D02*
X109344000Y-155959000D01*
X127384000Y-112519000D02*
X127384000Y-155959000D01*
X109344000Y-112519000D02*
X127384000Y-112519000D01*
X112014000Y-115189000D02*
X109344000Y-115189000D01*
X112014000Y-150749000D02*
X112014000Y-115189000D01*
X112014000Y-150749000D02*
X109344000Y-150749000D01*
X124714000Y-115189000D02*
X127384000Y-115189000D01*
X124714000Y-153289000D02*
X124714000Y-115189000D01*
X124714000Y-153289000D02*
X127384000Y-153289000D01*
X109344000Y-155959000D02*
X109344000Y-153289000D01*
X109344000Y-150749000D02*
X109344000Y-112519000D01*
X112014000Y-153289000D02*
X109344000Y-153289000D01*
X112014000Y-150749000D02*
X112014000Y-153289000D01*
%TO.C,A3*%
X139573000Y-118939000D02*
X139573000Y-121599000D01*
X139573000Y-118939000D02*
X157413000Y-118939000D01*
X157413000Y-118939000D02*
X157413000Y-121599000D01*
X139573000Y-121599000D02*
X157413000Y-121599000D01*
X136973000Y-121599000D02*
X138303000Y-121599000D01*
X136973000Y-120269000D02*
X136973000Y-121599000D01*
%TO.C,A2*%
X102492000Y-132461000D02*
X81912000Y-132461000D01*
X99822000Y-142621000D02*
X81912000Y-142621000D01*
X102492000Y-143891000D02*
X102492000Y-145291000D01*
X102492000Y-145291000D02*
X101092000Y-145291000D01*
X102492000Y-142621000D02*
X99822000Y-142621000D01*
X99822000Y-142621000D02*
X99822000Y-145291000D01*
X99822000Y-145291000D02*
X81912000Y-145291000D01*
X81912000Y-145291000D02*
X81912000Y-129791000D01*
X81912000Y-129791000D02*
X102492000Y-129791000D01*
X102492000Y-129791000D02*
X102492000Y-142621000D01*
%TO.C,C1*%
X138530000Y-116563000D02*
X143370000Y-116563000D01*
X138530000Y-114323000D02*
X143370000Y-114323000D01*
X138530000Y-116563000D02*
X138530000Y-114323000D01*
X143370000Y-116563000D02*
X143370000Y-114323000D01*
%TO.C,C2*%
X79148000Y-127531000D02*
X74308000Y-127531000D01*
X79148000Y-129771000D02*
X74308000Y-129771000D01*
X79148000Y-127531000D02*
X79148000Y-129771000D01*
X74308000Y-127531000D02*
X74308000Y-129771000D01*
%TO.C,R3*%
X142890000Y-145638000D02*
X142890000Y-147478000D01*
X142890000Y-147478000D02*
X139050000Y-147478000D01*
X139050000Y-147478000D02*
X139050000Y-145638000D01*
X139050000Y-145638000D02*
X142890000Y-145638000D01*
X143840000Y-146558000D02*
X142890000Y-146558000D01*
X138100000Y-146558000D02*
X139050000Y-146558000D01*
%TO.C,C3*%
X102330000Y-122067000D02*
G75*
G03*
X102330000Y-122067000I-3270000J0D01*
G01*
X102290000Y-122067000D02*
X95830000Y-122067000D01*
X102290000Y-122027000D02*
X95830000Y-122027000D01*
X102290000Y-121987000D02*
X95830000Y-121987000D01*
X102288000Y-121947000D02*
X95832000Y-121947000D01*
X102287000Y-121907000D02*
X95833000Y-121907000D01*
X102284000Y-121867000D02*
X95836000Y-121867000D01*
X102282000Y-121827000D02*
X100100000Y-121827000D01*
X98020000Y-121827000D02*
X95838000Y-121827000D01*
X102278000Y-121787000D02*
X100100000Y-121787000D01*
X98020000Y-121787000D02*
X95842000Y-121787000D01*
X102275000Y-121747000D02*
X100100000Y-121747000D01*
X98020000Y-121747000D02*
X95845000Y-121747000D01*
X102271000Y-121707000D02*
X100100000Y-121707000D01*
X98020000Y-121707000D02*
X95849000Y-121707000D01*
X102266000Y-121667000D02*
X100100000Y-121667000D01*
X98020000Y-121667000D02*
X95854000Y-121667000D01*
X102261000Y-121627000D02*
X100100000Y-121627000D01*
X98020000Y-121627000D02*
X95859000Y-121627000D01*
X102255000Y-121587000D02*
X100100000Y-121587000D01*
X98020000Y-121587000D02*
X95865000Y-121587000D01*
X102249000Y-121547000D02*
X100100000Y-121547000D01*
X98020000Y-121547000D02*
X95871000Y-121547000D01*
X102242000Y-121507000D02*
X100100000Y-121507000D01*
X98020000Y-121507000D02*
X95878000Y-121507000D01*
X102235000Y-121467000D02*
X100100000Y-121467000D01*
X98020000Y-121467000D02*
X95885000Y-121467000D01*
X102227000Y-121427000D02*
X100100000Y-121427000D01*
X98020000Y-121427000D02*
X95893000Y-121427000D01*
X102219000Y-121387000D02*
X100100000Y-121387000D01*
X98020000Y-121387000D02*
X95901000Y-121387000D01*
X102210000Y-121346000D02*
X100100000Y-121346000D01*
X98020000Y-121346000D02*
X95910000Y-121346000D01*
X102201000Y-121306000D02*
X100100000Y-121306000D01*
X98020000Y-121306000D02*
X95919000Y-121306000D01*
X102191000Y-121266000D02*
X100100000Y-121266000D01*
X98020000Y-121266000D02*
X95929000Y-121266000D01*
X102181000Y-121226000D02*
X100100000Y-121226000D01*
X98020000Y-121226000D02*
X95939000Y-121226000D01*
X102170000Y-121186000D02*
X100100000Y-121186000D01*
X98020000Y-121186000D02*
X95950000Y-121186000D01*
X102158000Y-121146000D02*
X100100000Y-121146000D01*
X98020000Y-121146000D02*
X95962000Y-121146000D01*
X102146000Y-121106000D02*
X100100000Y-121106000D01*
X98020000Y-121106000D02*
X95974000Y-121106000D01*
X102134000Y-121066000D02*
X100100000Y-121066000D01*
X98020000Y-121066000D02*
X95986000Y-121066000D01*
X102121000Y-121026000D02*
X100100000Y-121026000D01*
X98020000Y-121026000D02*
X95999000Y-121026000D01*
X102107000Y-120986000D02*
X100100000Y-120986000D01*
X98020000Y-120986000D02*
X96013000Y-120986000D01*
X102093000Y-120946000D02*
X100100000Y-120946000D01*
X98020000Y-120946000D02*
X96027000Y-120946000D01*
X102078000Y-120906000D02*
X100100000Y-120906000D01*
X98020000Y-120906000D02*
X96042000Y-120906000D01*
X102062000Y-120866000D02*
X100100000Y-120866000D01*
X98020000Y-120866000D02*
X96058000Y-120866000D01*
X102046000Y-120826000D02*
X100100000Y-120826000D01*
X98020000Y-120826000D02*
X96074000Y-120826000D01*
X102030000Y-120786000D02*
X100100000Y-120786000D01*
X98020000Y-120786000D02*
X96090000Y-120786000D01*
X102012000Y-120746000D02*
X100100000Y-120746000D01*
X98020000Y-120746000D02*
X96108000Y-120746000D01*
X101994000Y-120706000D02*
X100100000Y-120706000D01*
X98020000Y-120706000D02*
X96126000Y-120706000D01*
X101976000Y-120666000D02*
X100100000Y-120666000D01*
X98020000Y-120666000D02*
X96144000Y-120666000D01*
X101956000Y-120626000D02*
X100100000Y-120626000D01*
X98020000Y-120626000D02*
X96164000Y-120626000D01*
X101936000Y-120586000D02*
X100100000Y-120586000D01*
X98020000Y-120586000D02*
X96184000Y-120586000D01*
X101916000Y-120546000D02*
X100100000Y-120546000D01*
X98020000Y-120546000D02*
X96204000Y-120546000D01*
X101894000Y-120506000D02*
X100100000Y-120506000D01*
X98020000Y-120506000D02*
X96226000Y-120506000D01*
X101872000Y-120466000D02*
X100100000Y-120466000D01*
X98020000Y-120466000D02*
X96248000Y-120466000D01*
X101850000Y-120426000D02*
X100100000Y-120426000D01*
X98020000Y-120426000D02*
X96270000Y-120426000D01*
X101826000Y-120386000D02*
X100100000Y-120386000D01*
X98020000Y-120386000D02*
X96294000Y-120386000D01*
X101802000Y-120346000D02*
X100100000Y-120346000D01*
X98020000Y-120346000D02*
X96318000Y-120346000D01*
X101776000Y-120306000D02*
X100100000Y-120306000D01*
X98020000Y-120306000D02*
X96344000Y-120306000D01*
X101750000Y-120266000D02*
X100100000Y-120266000D01*
X98020000Y-120266000D02*
X96370000Y-120266000D01*
X101724000Y-120226000D02*
X100100000Y-120226000D01*
X98020000Y-120226000D02*
X96396000Y-120226000D01*
X101696000Y-120186000D02*
X100100000Y-120186000D01*
X98020000Y-120186000D02*
X96424000Y-120186000D01*
X101667000Y-120146000D02*
X100100000Y-120146000D01*
X98020000Y-120146000D02*
X96453000Y-120146000D01*
X101638000Y-120106000D02*
X100100000Y-120106000D01*
X98020000Y-120106000D02*
X96482000Y-120106000D01*
X101608000Y-120066000D02*
X100100000Y-120066000D01*
X98020000Y-120066000D02*
X96512000Y-120066000D01*
X101576000Y-120026000D02*
X100100000Y-120026000D01*
X98020000Y-120026000D02*
X96544000Y-120026000D01*
X101544000Y-119986000D02*
X100100000Y-119986000D01*
X98020000Y-119986000D02*
X96576000Y-119986000D01*
X101510000Y-119946000D02*
X100100000Y-119946000D01*
X98020000Y-119946000D02*
X96610000Y-119946000D01*
X101476000Y-119906000D02*
X100100000Y-119906000D01*
X98020000Y-119906000D02*
X96644000Y-119906000D01*
X101440000Y-119866000D02*
X100100000Y-119866000D01*
X98020000Y-119866000D02*
X96680000Y-119866000D01*
X101403000Y-119826000D02*
X100100000Y-119826000D01*
X98020000Y-119826000D02*
X96717000Y-119826000D01*
X101365000Y-119786000D02*
X100100000Y-119786000D01*
X98020000Y-119786000D02*
X96755000Y-119786000D01*
X101325000Y-119746000D02*
X96795000Y-119746000D01*
X101284000Y-119706000D02*
X96836000Y-119706000D01*
X101242000Y-119666000D02*
X96878000Y-119666000D01*
X101197000Y-119626000D02*
X96923000Y-119626000D01*
X101152000Y-119586000D02*
X96968000Y-119586000D01*
X101104000Y-119546000D02*
X97016000Y-119546000D01*
X101055000Y-119506000D02*
X97065000Y-119506000D01*
X101004000Y-119466000D02*
X97116000Y-119466000D01*
X100950000Y-119426000D02*
X97170000Y-119426000D01*
X100894000Y-119386000D02*
X97226000Y-119386000D01*
X100836000Y-119346000D02*
X97284000Y-119346000D01*
X100774000Y-119306000D02*
X97346000Y-119306000D01*
X100710000Y-119266000D02*
X97410000Y-119266000D01*
X100641000Y-119226000D02*
X97479000Y-119226000D01*
X100569000Y-119186000D02*
X97551000Y-119186000D01*
X100492000Y-119146000D02*
X97628000Y-119146000D01*
X100410000Y-119106000D02*
X97710000Y-119106000D01*
X100322000Y-119066000D02*
X97798000Y-119066000D01*
X100225000Y-119026000D02*
X97895000Y-119026000D01*
X100119000Y-118986000D02*
X98001000Y-118986000D01*
X100000000Y-118946000D02*
X98120000Y-118946000D01*
X99862000Y-118906000D02*
X98258000Y-118906000D01*
X99693000Y-118866000D02*
X98427000Y-118866000D01*
X99462000Y-118826000D02*
X98658000Y-118826000D01*
X100899000Y-125567241D02*
X100899000Y-124937241D01*
X101214000Y-125252241D02*
X100584000Y-125252241D01*
%TO.C,J1*%
X89690000Y-118517000D02*
X89690000Y-109517000D01*
X89690000Y-109517000D02*
X80490000Y-109517000D01*
X80490000Y-109517000D02*
X80490000Y-124117000D01*
X80490000Y-124117000D02*
X83290000Y-124117000D01*
X86890000Y-124117000D02*
X89690000Y-124117000D01*
X89690000Y-124117000D02*
X89690000Y-122117000D01*
X80250000Y-122617000D02*
X80250000Y-124357000D01*
X80250000Y-124357000D02*
X81990000Y-124357000D01*
%TO.C,R2*%
X149210000Y-114204000D02*
X149210000Y-112364000D01*
X149210000Y-112364000D02*
X153050000Y-112364000D01*
X153050000Y-112364000D02*
X153050000Y-114204000D01*
X153050000Y-114204000D02*
X149210000Y-114204000D01*
X148260000Y-113284000D02*
X149210000Y-113284000D01*
X154000000Y-113284000D02*
X153050000Y-113284000D01*
%TO.C,R1*%
X149210000Y-117379000D02*
X149210000Y-115539000D01*
X149210000Y-115539000D02*
X153050000Y-115539000D01*
X153050000Y-115539000D02*
X153050000Y-117379000D01*
X153050000Y-117379000D02*
X149210000Y-117379000D01*
X148260000Y-116459000D02*
X149210000Y-116459000D01*
X154000000Y-116459000D02*
X153050000Y-116459000D01*
%TO.C,J3*%
X97392000Y-148481000D02*
X97392000Y-154501000D01*
X97392000Y-154501000D02*
X87012000Y-154501000D01*
X87012000Y-154501000D02*
X87012000Y-148481000D01*
X87012000Y-148481000D02*
X97392000Y-148481000D01*
X97682000Y-149511000D02*
X97682000Y-153511000D01*
X96012000Y-154501000D02*
X96012000Y-153501000D01*
X96012000Y-153501000D02*
X88392000Y-153501000D01*
X88392000Y-153501000D02*
X88392000Y-154501000D01*
X96012000Y-153501000D02*
X95762000Y-152971000D01*
X95762000Y-152971000D02*
X88642000Y-152971000D01*
X88642000Y-152971000D02*
X88392000Y-153501000D01*
X95762000Y-154501000D02*
X95762000Y-153501000D01*
X88642000Y-154501000D02*
X88642000Y-153501000D01*
X96812000Y-148481000D02*
X96812000Y-149081000D01*
X96812000Y-149081000D02*
X95212000Y-149081000D01*
X95212000Y-149081000D02*
X95212000Y-148481000D01*
X94272000Y-148481000D02*
X94272000Y-149081000D01*
X94272000Y-149081000D02*
X92672000Y-149081000D01*
X92672000Y-149081000D02*
X92672000Y-148481000D01*
X91732000Y-148481000D02*
X91732000Y-149081000D01*
X91732000Y-149081000D02*
X90132000Y-149081000D01*
X90132000Y-149081000D02*
X90132000Y-148481000D01*
X89192000Y-148481000D02*
X89192000Y-149081000D01*
X89192000Y-149081000D02*
X87592000Y-149081000D01*
X87592000Y-149081000D02*
X87592000Y-148481000D01*
%TO.C,J4*%
X149970000Y-148608000D02*
X149970000Y-154628000D01*
X149970000Y-154628000D02*
X137050000Y-154628000D01*
X137050000Y-154628000D02*
X137050000Y-148608000D01*
X137050000Y-148608000D02*
X149970000Y-148608000D01*
X150260000Y-149638000D02*
X150260000Y-153638000D01*
X148590000Y-154628000D02*
X148590000Y-153628000D01*
X148590000Y-153628000D02*
X138430000Y-153628000D01*
X138430000Y-153628000D02*
X138430000Y-154628000D01*
X148590000Y-153628000D02*
X148340000Y-153098000D01*
X148340000Y-153098000D02*
X138680000Y-153098000D01*
X138680000Y-153098000D02*
X138430000Y-153628000D01*
X148340000Y-154628000D02*
X148340000Y-153628000D01*
X138680000Y-154628000D02*
X138680000Y-153628000D01*
X149390000Y-148608000D02*
X149390000Y-149208000D01*
X149390000Y-149208000D02*
X147790000Y-149208000D01*
X147790000Y-149208000D02*
X147790000Y-148608000D01*
X146850000Y-148608000D02*
X146850000Y-149208000D01*
X146850000Y-149208000D02*
X145250000Y-149208000D01*
X145250000Y-149208000D02*
X145250000Y-148608000D01*
X144310000Y-148608000D02*
X144310000Y-149208000D01*
X144310000Y-149208000D02*
X142710000Y-149208000D01*
X142710000Y-149208000D02*
X142710000Y-148608000D01*
X141770000Y-148608000D02*
X141770000Y-149208000D01*
X141770000Y-149208000D02*
X140170000Y-149208000D01*
X140170000Y-149208000D02*
X140170000Y-148608000D01*
X139230000Y-148608000D02*
X139230000Y-149208000D01*
X139230000Y-149208000D02*
X137630000Y-149208000D01*
X137630000Y-149208000D02*
X137630000Y-148608000D01*
%TO.C,C4*%
X79998000Y-137795000D02*
G75*
G03*
X79998000Y-137795000I-3270000J0D01*
G01*
X76728000Y-134565000D02*
X76728000Y-141025000D01*
X76688000Y-134565000D02*
X76688000Y-141025000D01*
X76648000Y-134565000D02*
X76648000Y-141025000D01*
X76608000Y-134567000D02*
X76608000Y-141023000D01*
X76568000Y-134568000D02*
X76568000Y-141022000D01*
X76528000Y-134571000D02*
X76528000Y-141019000D01*
X76488000Y-134573000D02*
X76488000Y-136755000D01*
X76488000Y-138835000D02*
X76488000Y-141017000D01*
X76448000Y-134577000D02*
X76448000Y-136755000D01*
X76448000Y-138835000D02*
X76448000Y-141013000D01*
X76408000Y-134580000D02*
X76408000Y-136755000D01*
X76408000Y-138835000D02*
X76408000Y-141010000D01*
X76368000Y-134584000D02*
X76368000Y-136755000D01*
X76368000Y-138835000D02*
X76368000Y-141006000D01*
X76328000Y-134589000D02*
X76328000Y-136755000D01*
X76328000Y-138835000D02*
X76328000Y-141001000D01*
X76288000Y-134594000D02*
X76288000Y-136755000D01*
X76288000Y-138835000D02*
X76288000Y-140996000D01*
X76248000Y-134600000D02*
X76248000Y-136755000D01*
X76248000Y-138835000D02*
X76248000Y-140990000D01*
X76208000Y-134606000D02*
X76208000Y-136755000D01*
X76208000Y-138835000D02*
X76208000Y-140984000D01*
X76168000Y-134613000D02*
X76168000Y-136755000D01*
X76168000Y-138835000D02*
X76168000Y-140977000D01*
X76128000Y-134620000D02*
X76128000Y-136755000D01*
X76128000Y-138835000D02*
X76128000Y-140970000D01*
X76088000Y-134628000D02*
X76088000Y-136755000D01*
X76088000Y-138835000D02*
X76088000Y-140962000D01*
X76048000Y-134636000D02*
X76048000Y-136755000D01*
X76048000Y-138835000D02*
X76048000Y-140954000D01*
X76007000Y-134645000D02*
X76007000Y-136755000D01*
X76007000Y-138835000D02*
X76007000Y-140945000D01*
X75967000Y-134654000D02*
X75967000Y-136755000D01*
X75967000Y-138835000D02*
X75967000Y-140936000D01*
X75927000Y-134664000D02*
X75927000Y-136755000D01*
X75927000Y-138835000D02*
X75927000Y-140926000D01*
X75887000Y-134674000D02*
X75887000Y-136755000D01*
X75887000Y-138835000D02*
X75887000Y-140916000D01*
X75847000Y-134685000D02*
X75847000Y-136755000D01*
X75847000Y-138835000D02*
X75847000Y-140905000D01*
X75807000Y-134697000D02*
X75807000Y-136755000D01*
X75807000Y-138835000D02*
X75807000Y-140893000D01*
X75767000Y-134709000D02*
X75767000Y-136755000D01*
X75767000Y-138835000D02*
X75767000Y-140881000D01*
X75727000Y-134721000D02*
X75727000Y-136755000D01*
X75727000Y-138835000D02*
X75727000Y-140869000D01*
X75687000Y-134734000D02*
X75687000Y-136755000D01*
X75687000Y-138835000D02*
X75687000Y-140856000D01*
X75647000Y-134748000D02*
X75647000Y-136755000D01*
X75647000Y-138835000D02*
X75647000Y-140842000D01*
X75607000Y-134762000D02*
X75607000Y-136755000D01*
X75607000Y-138835000D02*
X75607000Y-140828000D01*
X75567000Y-134777000D02*
X75567000Y-136755000D01*
X75567000Y-138835000D02*
X75567000Y-140813000D01*
X75527000Y-134793000D02*
X75527000Y-136755000D01*
X75527000Y-138835000D02*
X75527000Y-140797000D01*
X75487000Y-134809000D02*
X75487000Y-136755000D01*
X75487000Y-138835000D02*
X75487000Y-140781000D01*
X75447000Y-134825000D02*
X75447000Y-136755000D01*
X75447000Y-138835000D02*
X75447000Y-140765000D01*
X75407000Y-134843000D02*
X75407000Y-136755000D01*
X75407000Y-138835000D02*
X75407000Y-140747000D01*
X75367000Y-134861000D02*
X75367000Y-136755000D01*
X75367000Y-138835000D02*
X75367000Y-140729000D01*
X75327000Y-134879000D02*
X75327000Y-136755000D01*
X75327000Y-138835000D02*
X75327000Y-140711000D01*
X75287000Y-134899000D02*
X75287000Y-136755000D01*
X75287000Y-138835000D02*
X75287000Y-140691000D01*
X75247000Y-134919000D02*
X75247000Y-136755000D01*
X75247000Y-138835000D02*
X75247000Y-140671000D01*
X75207000Y-134939000D02*
X75207000Y-136755000D01*
X75207000Y-138835000D02*
X75207000Y-140651000D01*
X75167000Y-134961000D02*
X75167000Y-136755000D01*
X75167000Y-138835000D02*
X75167000Y-140629000D01*
X75127000Y-134983000D02*
X75127000Y-136755000D01*
X75127000Y-138835000D02*
X75127000Y-140607000D01*
X75087000Y-135005000D02*
X75087000Y-136755000D01*
X75087000Y-138835000D02*
X75087000Y-140585000D01*
X75047000Y-135029000D02*
X75047000Y-136755000D01*
X75047000Y-138835000D02*
X75047000Y-140561000D01*
X75007000Y-135053000D02*
X75007000Y-136755000D01*
X75007000Y-138835000D02*
X75007000Y-140537000D01*
X74967000Y-135079000D02*
X74967000Y-136755000D01*
X74967000Y-138835000D02*
X74967000Y-140511000D01*
X74927000Y-135105000D02*
X74927000Y-136755000D01*
X74927000Y-138835000D02*
X74927000Y-140485000D01*
X74887000Y-135131000D02*
X74887000Y-136755000D01*
X74887000Y-138835000D02*
X74887000Y-140459000D01*
X74847000Y-135159000D02*
X74847000Y-136755000D01*
X74847000Y-138835000D02*
X74847000Y-140431000D01*
X74807000Y-135188000D02*
X74807000Y-136755000D01*
X74807000Y-138835000D02*
X74807000Y-140402000D01*
X74767000Y-135217000D02*
X74767000Y-136755000D01*
X74767000Y-138835000D02*
X74767000Y-140373000D01*
X74727000Y-135247000D02*
X74727000Y-136755000D01*
X74727000Y-138835000D02*
X74727000Y-140343000D01*
X74687000Y-135279000D02*
X74687000Y-136755000D01*
X74687000Y-138835000D02*
X74687000Y-140311000D01*
X74647000Y-135311000D02*
X74647000Y-136755000D01*
X74647000Y-138835000D02*
X74647000Y-140279000D01*
X74607000Y-135345000D02*
X74607000Y-136755000D01*
X74607000Y-138835000D02*
X74607000Y-140245000D01*
X74567000Y-135379000D02*
X74567000Y-136755000D01*
X74567000Y-138835000D02*
X74567000Y-140211000D01*
X74527000Y-135415000D02*
X74527000Y-136755000D01*
X74527000Y-138835000D02*
X74527000Y-140175000D01*
X74487000Y-135452000D02*
X74487000Y-136755000D01*
X74487000Y-138835000D02*
X74487000Y-140138000D01*
X74447000Y-135490000D02*
X74447000Y-136755000D01*
X74447000Y-138835000D02*
X74447000Y-140100000D01*
X74407000Y-135530000D02*
X74407000Y-140060000D01*
X74367000Y-135571000D02*
X74367000Y-140019000D01*
X74327000Y-135613000D02*
X74327000Y-139977000D01*
X74287000Y-135658000D02*
X74287000Y-139932000D01*
X74247000Y-135703000D02*
X74247000Y-139887000D01*
X74207000Y-135751000D02*
X74207000Y-139839000D01*
X74167000Y-135800000D02*
X74167000Y-139790000D01*
X74127000Y-135851000D02*
X74127000Y-139739000D01*
X74087000Y-135905000D02*
X74087000Y-139685000D01*
X74047000Y-135961000D02*
X74047000Y-139629000D01*
X74007000Y-136019000D02*
X74007000Y-139571000D01*
X73967000Y-136081000D02*
X73967000Y-139509000D01*
X73927000Y-136145000D02*
X73927000Y-139445000D01*
X73887000Y-136214000D02*
X73887000Y-139376000D01*
X73847000Y-136286000D02*
X73847000Y-139304000D01*
X73807000Y-136363000D02*
X73807000Y-139227000D01*
X73767000Y-136445000D02*
X73767000Y-139145000D01*
X73727000Y-136533000D02*
X73727000Y-139057000D01*
X73687000Y-136630000D02*
X73687000Y-138960000D01*
X73647000Y-136736000D02*
X73647000Y-138854000D01*
X73607000Y-136855000D02*
X73607000Y-138735000D01*
X73567000Y-136993000D02*
X73567000Y-138597000D01*
X73527000Y-137162000D02*
X73527000Y-138428000D01*
X73487000Y-137393000D02*
X73487000Y-138197000D01*
X80228241Y-135956000D02*
X79598241Y-135956000D01*
X79913241Y-135641000D02*
X79913241Y-136271000D01*
%TO.C,R4*%
X142890000Y-142336000D02*
X142890000Y-144176000D01*
X142890000Y-144176000D02*
X139050000Y-144176000D01*
X139050000Y-144176000D02*
X139050000Y-142336000D01*
X139050000Y-142336000D02*
X142890000Y-142336000D01*
X143840000Y-143256000D02*
X142890000Y-143256000D01*
X138100000Y-143256000D02*
X139050000Y-143256000D01*
%TO.C,A1*%
D11*
X118824285Y-110910666D02*
X118348095Y-110910666D01*
X118919523Y-111196380D02*
X118586190Y-110196380D01*
X118252857Y-111196380D01*
X117395714Y-111196380D02*
X117967142Y-111196380D01*
X117681428Y-111196380D02*
X117681428Y-110196380D01*
X117776666Y-110339238D01*
X117871904Y-110434476D01*
X117967142Y-110482095D01*
%TO.C,A3*%
X135699666Y-119554714D02*
X135699666Y-120030904D01*
X135985380Y-119459476D02*
X134985380Y-119792809D01*
X135985380Y-120126142D01*
X134985380Y-120364238D02*
X134985380Y-120983285D01*
X135366333Y-120649952D01*
X135366333Y-120792809D01*
X135413952Y-120888047D01*
X135461571Y-120935666D01*
X135556809Y-120983285D01*
X135794904Y-120983285D01*
X135890142Y-120935666D01*
X135937761Y-120888047D01*
X135985380Y-120792809D01*
X135985380Y-120507095D01*
X135937761Y-120411857D01*
X135890142Y-120364238D01*
%TO.C,A2*%
X103798666Y-136826714D02*
X103798666Y-137302904D01*
X104084380Y-136731476D02*
X103084380Y-137064809D01*
X104084380Y-137398142D01*
X103179619Y-137683857D02*
X103132000Y-137731476D01*
X103084380Y-137826714D01*
X103084380Y-138064809D01*
X103132000Y-138160047D01*
X103179619Y-138207666D01*
X103274857Y-138255285D01*
X103370095Y-138255285D01*
X103512952Y-138207666D01*
X104084380Y-137636238D01*
X104084380Y-138255285D01*
%TO.C,C1*%
X141116666Y-118050142D02*
X141164285Y-118097761D01*
X141307142Y-118145380D01*
X141402380Y-118145380D01*
X141545238Y-118097761D01*
X141640476Y-118002523D01*
X141688095Y-117907285D01*
X141735714Y-117716809D01*
X141735714Y-117573952D01*
X141688095Y-117383476D01*
X141640476Y-117288238D01*
X141545238Y-117193000D01*
X141402380Y-117145380D01*
X141307142Y-117145380D01*
X141164285Y-117193000D01*
X141116666Y-117240619D01*
X140164285Y-118145380D02*
X140735714Y-118145380D01*
X140450000Y-118145380D02*
X140450000Y-117145380D01*
X140545238Y-117288238D01*
X140640476Y-117383476D01*
X140735714Y-117431095D01*
%TO.C,C2*%
X76894666Y-126758142D02*
X76942285Y-126805761D01*
X77085142Y-126853380D01*
X77180380Y-126853380D01*
X77323238Y-126805761D01*
X77418476Y-126710523D01*
X77466095Y-126615285D01*
X77513714Y-126424809D01*
X77513714Y-126281952D01*
X77466095Y-126091476D01*
X77418476Y-125996238D01*
X77323238Y-125901000D01*
X77180380Y-125853380D01*
X77085142Y-125853380D01*
X76942285Y-125901000D01*
X76894666Y-125948619D01*
X76513714Y-125948619D02*
X76466095Y-125901000D01*
X76370857Y-125853380D01*
X76132761Y-125853380D01*
X76037523Y-125901000D01*
X75989904Y-125948619D01*
X75942285Y-126043857D01*
X75942285Y-126139095D01*
X75989904Y-126281952D01*
X76561333Y-126853380D01*
X75942285Y-126853380D01*
%TO.C,R3*%
X141136666Y-145090380D02*
X141470000Y-144614190D01*
X141708095Y-145090380D02*
X141708095Y-144090380D01*
X141327142Y-144090380D01*
X141231904Y-144138000D01*
X141184285Y-144185619D01*
X141136666Y-144280857D01*
X141136666Y-144423714D01*
X141184285Y-144518952D01*
X141231904Y-144566571D01*
X141327142Y-144614190D01*
X141708095Y-144614190D01*
X140803333Y-144090380D02*
X140184285Y-144090380D01*
X140517619Y-144471333D01*
X140374761Y-144471333D01*
X140279523Y-144518952D01*
X140231904Y-144566571D01*
X140184285Y-144661809D01*
X140184285Y-144899904D01*
X140231904Y-144995142D01*
X140279523Y-145042761D01*
X140374761Y-145090380D01*
X140660476Y-145090380D01*
X140755714Y-145042761D01*
X140803333Y-144995142D01*
%TO.C,C3*%
X103817142Y-121900333D02*
X103864761Y-121852714D01*
X103912380Y-121709857D01*
X103912380Y-121614619D01*
X103864761Y-121471761D01*
X103769523Y-121376523D01*
X103674285Y-121328904D01*
X103483809Y-121281285D01*
X103340952Y-121281285D01*
X103150476Y-121328904D01*
X103055238Y-121376523D01*
X102960000Y-121471761D01*
X102912380Y-121614619D01*
X102912380Y-121709857D01*
X102960000Y-121852714D01*
X103007619Y-121900333D01*
X102912380Y-122233666D02*
X102912380Y-122852714D01*
X103293333Y-122519380D01*
X103293333Y-122662238D01*
X103340952Y-122757476D01*
X103388571Y-122805095D01*
X103483809Y-122852714D01*
X103721904Y-122852714D01*
X103817142Y-122805095D01*
X103864761Y-122757476D01*
X103912380Y-122662238D01*
X103912380Y-122376523D01*
X103864761Y-122281285D01*
X103817142Y-122233666D01*
%TO.C,J1*%
X91387619Y-115200333D02*
X90673333Y-115200333D01*
X90530476Y-115247952D01*
X90435238Y-115343190D01*
X90387619Y-115486047D01*
X90387619Y-115581285D01*
X90387619Y-114200333D02*
X90387619Y-114771761D01*
X90387619Y-114486047D02*
X91387619Y-114486047D01*
X91244761Y-114581285D01*
X91149523Y-114676523D01*
X91101904Y-114771761D01*
%TO.C,R2*%
X151296666Y-115656380D02*
X151630000Y-115180190D01*
X151868095Y-115656380D02*
X151868095Y-114656380D01*
X151487142Y-114656380D01*
X151391904Y-114704000D01*
X151344285Y-114751619D01*
X151296666Y-114846857D01*
X151296666Y-114989714D01*
X151344285Y-115084952D01*
X151391904Y-115132571D01*
X151487142Y-115180190D01*
X151868095Y-115180190D01*
X150915714Y-114751619D02*
X150868095Y-114704000D01*
X150772857Y-114656380D01*
X150534761Y-114656380D01*
X150439523Y-114704000D01*
X150391904Y-114751619D01*
X150344285Y-114846857D01*
X150344285Y-114942095D01*
X150391904Y-115084952D01*
X150963333Y-115656380D01*
X150344285Y-115656380D01*
%TO.C,R1*%
X151296666Y-118831380D02*
X151630000Y-118355190D01*
X151868095Y-118831380D02*
X151868095Y-117831380D01*
X151487142Y-117831380D01*
X151391904Y-117879000D01*
X151344285Y-117926619D01*
X151296666Y-118021857D01*
X151296666Y-118164714D01*
X151344285Y-118259952D01*
X151391904Y-118307571D01*
X151487142Y-118355190D01*
X151868095Y-118355190D01*
X150344285Y-118831380D02*
X150915714Y-118831380D01*
X150630000Y-118831380D02*
X150630000Y-117831380D01*
X150725238Y-117974238D01*
X150820476Y-118069476D01*
X150915714Y-118117095D01*
%TO.C,J3*%
X92535333Y-146843380D02*
X92535333Y-147557666D01*
X92582952Y-147700523D01*
X92678190Y-147795761D01*
X92821047Y-147843380D01*
X92916285Y-147843380D01*
X92154380Y-146843380D02*
X91535333Y-146843380D01*
X91868666Y-147224333D01*
X91725809Y-147224333D01*
X91630571Y-147271952D01*
X91582952Y-147319571D01*
X91535333Y-147414809D01*
X91535333Y-147652904D01*
X91582952Y-147748142D01*
X91630571Y-147795761D01*
X91725809Y-147843380D01*
X92011523Y-147843380D01*
X92106761Y-147795761D01*
X92154380Y-147748142D01*
%TO.C,J4*%
X143843333Y-146970380D02*
X143843333Y-147684666D01*
X143890952Y-147827523D01*
X143986190Y-147922761D01*
X144129047Y-147970380D01*
X144224285Y-147970380D01*
X142938571Y-147303714D02*
X142938571Y-147970380D01*
X143176666Y-146922761D02*
X143414761Y-147637047D01*
X142795714Y-147637047D01*
%TO.C,C4*%
X76894666Y-133752142D02*
X76942285Y-133799761D01*
X77085142Y-133847380D01*
X77180380Y-133847380D01*
X77323238Y-133799761D01*
X77418476Y-133704523D01*
X77466095Y-133609285D01*
X77513714Y-133418809D01*
X77513714Y-133275952D01*
X77466095Y-133085476D01*
X77418476Y-132990238D01*
X77323238Y-132895000D01*
X77180380Y-132847380D01*
X77085142Y-132847380D01*
X76942285Y-132895000D01*
X76894666Y-132942619D01*
X76037523Y-133180714D02*
X76037523Y-133847380D01*
X76275619Y-132799761D02*
X76513714Y-133514047D01*
X75894666Y-133514047D01*
%TO.C,R4*%
X141136666Y-141788380D02*
X141470000Y-141312190D01*
X141708095Y-141788380D02*
X141708095Y-140788380D01*
X141327142Y-140788380D01*
X141231904Y-140836000D01*
X141184285Y-140883619D01*
X141136666Y-140978857D01*
X141136666Y-141121714D01*
X141184285Y-141216952D01*
X141231904Y-141264571D01*
X141327142Y-141312190D01*
X141708095Y-141312190D01*
X140279523Y-141121714D02*
X140279523Y-141788380D01*
X140517619Y-140740761D02*
X140755714Y-141455047D01*
X140136666Y-141455047D01*
%TD*%
M02*
