M48
; DRILL file {KiCad (5.1.10)-1} date 11/16/21 09:58:41
; FORMAT={-:-/ absolute / inch / decimal}
; #@! TF.CreationDate,2021-11-16T09:58:41-05:00
; #@! TF.GenerationSoftware,Kicad,Pcbnew,(5.1.10)-1
FMAT,2
INCH
T1C0.0157
T2C0.0315
T3C0.0394
T4C0.0433
T5C0.0469
T6C0.0630
T7C0.0709
T8C0.0787
T9C0.1181
%
G90
G05
T1
X4.05Y-3.525
X4.425Y-3.425
X4.875Y-2.9
X4.975Y-3.425
X4.975Y-3.55
X5.0Y-3.625
X5.0343Y-3.4343
X5.05Y-3.625
X5.2Y-3.35
X5.2843Y-3.5407
X5.4Y-3.7
X5.475Y-3.275
X5.525Y-2.7
X5.625Y-3.3
X5.625Y-3.35
T2
X4.825Y-3.175
X4.9628Y-3.175
X5.8Y-3.35
X5.8Y-3.85
X5.9Y-3.35
X5.9Y-3.85
X6.0Y-3.35
X6.0Y-3.85
X6.1Y-3.35
X6.1Y-3.85
X6.2Y-3.35
X6.2Y-3.85
X6.3Y-3.35
X6.3Y-3.85
X6.4Y-3.35
X6.4Y-3.85
X6.5Y-3.35
X6.5Y-3.85
X6.7Y-3.45
X6.7Y-3.825
X6.8378Y-3.45
X6.8378Y-3.825
T3
X4.0Y-3.0656
X4.1Y-3.0656
X4.2Y-3.0656
X4.3Y-3.0656
X4.55Y-2.65
X4.55Y-2.75
X4.65Y-2.65
X4.65Y-2.75
X4.75Y-2.65
X4.75Y-2.75
T4
X3.248Y-2.9754
X3.248Y-3.1526
X3.248Y-3.3754
X3.248Y-3.5526
X3.248Y-3.7754
X3.248Y-3.9526
X3.504Y-2.9754
X3.504Y-3.1526
X3.504Y-3.3754
X3.504Y-3.5526
X3.504Y-3.7754
X3.504Y-3.9526
T5
X5.25Y-4.15
X5.35Y-4.15
X5.45Y-4.15
X5.55Y-4.15
X5.65Y-4.15
X6.05Y-4.15
X6.15Y-4.15
X6.25Y-4.15
X6.35Y-4.15
T6
X6.265Y-2.9069
X6.45Y-2.7888
X6.45Y-3.025
T7
X3.7902Y-3.675
X4.3098Y-3.675
T8
X3.6874Y-3.0915
X3.6874Y-4.0285
X3.7875Y-2.665
X4.05Y-2.66
X4.6126Y-3.0915
X4.6126Y-4.0285
X6.79Y-3.0425
T9
X3.3Y-2.75
X3.3Y-4.175
X6.8Y-2.75
X6.8Y-4.175
T0
M30
