G04 #@! TF.GenerationSoftware,KiCad,Pcbnew,(5.1.10)-1*
G04 #@! TF.CreationDate,2021-11-16T09:58:39-05:00*
G04 #@! TF.ProjectId,KittyCaddyV2,4b697474-7943-4616-9464-7956322e6b69,rev?*
G04 #@! TF.SameCoordinates,Original*
G04 #@! TF.FileFunction,Legend,Top*
G04 #@! TF.FilePolarity,Positive*
%FSLAX46Y46*%
G04 Gerber Fmt 4.6, Leading zero omitted, Abs format (unit mm)*
G04 Created by KiCad (PCBNEW (5.1.10)-1) date 2021-11-16 09:58:39*
%MOMM*%
%LPD*%
G01*
G04 APERTURE LIST*
%ADD10C,0.149860*%
%ADD11C,0.300000*%
%ADD12C,0.120000*%
%ADD13C,0.150000*%
G04 APERTURE END LIST*
D10*
X170466023Y-80208380D02*
X169894595Y-80208380D01*
X170180309Y-80208380D02*
X170180309Y-79208380D01*
X170085071Y-79351238D01*
X169989833Y-79446476D01*
X169894595Y-79494095D01*
X170846976Y-79303619D02*
X170894595Y-79256000D01*
X170989833Y-79208380D01*
X171227928Y-79208380D01*
X171323166Y-79256000D01*
X171370785Y-79303619D01*
X171418404Y-79398857D01*
X171418404Y-79494095D01*
X171370785Y-79636952D01*
X170799357Y-80208380D01*
X171418404Y-80208380D01*
X171846976Y-79827428D02*
X172608880Y-79827428D01*
X173037452Y-79303619D02*
X173085071Y-79256000D01*
X173180309Y-79208380D01*
X173418404Y-79208380D01*
X173513642Y-79256000D01*
X173561261Y-79303619D01*
X173608880Y-79398857D01*
X173608880Y-79494095D01*
X173561261Y-79636952D01*
X172989833Y-80208380D01*
X173608880Y-80208380D01*
X174227928Y-79208380D02*
X174323166Y-79208380D01*
X174418404Y-79256000D01*
X174466023Y-79303619D01*
X174513642Y-79398857D01*
X174561261Y-79589333D01*
X174561261Y-79827428D01*
X174513642Y-80017904D01*
X174466023Y-80113142D01*
X174418404Y-80160761D01*
X174323166Y-80208380D01*
X174227928Y-80208380D01*
X174132690Y-80160761D01*
X174085071Y-80113142D01*
X174037452Y-80017904D01*
X173989833Y-79827428D01*
X173989833Y-79589333D01*
X174037452Y-79398857D01*
X174085071Y-79303619D01*
X174132690Y-79256000D01*
X174227928Y-79208380D01*
X174846976Y-79208380D02*
X175180309Y-80208380D01*
X175513642Y-79208380D01*
X171013595Y-74128380D02*
X171585023Y-74128380D01*
X171299309Y-75128380D02*
X171299309Y-74128380D01*
X171918357Y-75128380D02*
X171918357Y-74128380D01*
X172299309Y-74128380D01*
X172394547Y-74176000D01*
X172442166Y-74223619D01*
X172489785Y-74318857D01*
X172489785Y-74461714D01*
X172442166Y-74556952D01*
X172394547Y-74604571D01*
X172299309Y-74652190D01*
X171918357Y-74652190D01*
X173442166Y-75128380D02*
X172870738Y-75128380D01*
X173156452Y-75128380D02*
X173156452Y-74128380D01*
X173061214Y-74271238D01*
X172965976Y-74366476D01*
X172870738Y-74414095D01*
X101671595Y-64476380D02*
X102243023Y-64476380D01*
X101957309Y-65476380D02*
X101957309Y-64476380D01*
X102576357Y-65476380D02*
X102576357Y-64476380D01*
X102957309Y-64476380D01*
X103052547Y-64524000D01*
X103100166Y-64571619D01*
X103147785Y-64666857D01*
X103147785Y-64809714D01*
X103100166Y-64904952D01*
X103052547Y-64952571D01*
X102957309Y-65000190D01*
X102576357Y-65000190D01*
X103528738Y-64571619D02*
X103576357Y-64524000D01*
X103671595Y-64476380D01*
X103909690Y-64476380D01*
X104004928Y-64524000D01*
X104052547Y-64571619D01*
X104100166Y-64666857D01*
X104100166Y-64762095D01*
X104052547Y-64904952D01*
X103481119Y-65476380D01*
X104100166Y-65476380D01*
X94877095Y-64666880D02*
X95448523Y-64666880D01*
X95162809Y-65666880D02*
X95162809Y-64666880D01*
X95781857Y-65666880D02*
X95781857Y-64666880D01*
X96162809Y-64666880D01*
X96258047Y-64714500D01*
X96305666Y-64762119D01*
X96353285Y-64857357D01*
X96353285Y-65000214D01*
X96305666Y-65095452D01*
X96258047Y-65143071D01*
X96162809Y-65190690D01*
X95781857Y-65190690D01*
X96686619Y-64666880D02*
X97305666Y-64666880D01*
X96972333Y-65047833D01*
X97115190Y-65047833D01*
X97210428Y-65095452D01*
X97258047Y-65143071D01*
X97305666Y-65238309D01*
X97305666Y-65476404D01*
X97258047Y-65571642D01*
X97210428Y-65619261D01*
X97115190Y-65666880D01*
X96829476Y-65666880D01*
X96734238Y-65619261D01*
X96686619Y-65571642D01*
X102679523Y-69810380D02*
X102203333Y-69810380D01*
X102155714Y-70286571D01*
X102203333Y-70238952D01*
X102298571Y-70191333D01*
X102536666Y-70191333D01*
X102631904Y-70238952D01*
X102679523Y-70286571D01*
X102727142Y-70381809D01*
X102727142Y-70619904D01*
X102679523Y-70715142D01*
X102631904Y-70762761D01*
X102536666Y-70810380D01*
X102298571Y-70810380D01*
X102203333Y-70762761D01*
X102155714Y-70715142D01*
X103012857Y-69810380D02*
X103346190Y-70810380D01*
X103679523Y-69810380D01*
X95313595Y-69985000D02*
X95218357Y-69937380D01*
X95075500Y-69937380D01*
X94932642Y-69985000D01*
X94837404Y-70080238D01*
X94789785Y-70175476D01*
X94742166Y-70365952D01*
X94742166Y-70508809D01*
X94789785Y-70699285D01*
X94837404Y-70794523D01*
X94932642Y-70889761D01*
X95075500Y-70937380D01*
X95170738Y-70937380D01*
X95313595Y-70889761D01*
X95361214Y-70842142D01*
X95361214Y-70508809D01*
X95170738Y-70508809D01*
X95789785Y-70937380D02*
X95789785Y-69937380D01*
X96361214Y-70937380D01*
X96361214Y-69937380D01*
X96837404Y-70937380D02*
X96837404Y-69937380D01*
X97075500Y-69937380D01*
X97218357Y-69985000D01*
X97313595Y-70080238D01*
X97361214Y-70175476D01*
X97408833Y-70365952D01*
X97408833Y-70508809D01*
X97361214Y-70699285D01*
X97313595Y-70794523D01*
X97218357Y-70889761D01*
X97075500Y-70937380D01*
X96837404Y-70937380D01*
D11*
X146050000Y-99849714D02*
X145978571Y-99921142D01*
X146050000Y-99992571D01*
X146121428Y-99921142D01*
X146050000Y-99849714D01*
X146050000Y-99992571D01*
X166496928Y-78593142D02*
X165354071Y-78593142D01*
X165925500Y-79164571D02*
X165925500Y-78021714D01*
D10*
X158925023Y-80843380D02*
X158353595Y-80843380D01*
X158639309Y-80843380D02*
X158639309Y-79843380D01*
X158544071Y-79986238D01*
X158448833Y-80081476D01*
X158353595Y-80129095D01*
X159305976Y-79938619D02*
X159353595Y-79891000D01*
X159448833Y-79843380D01*
X159686928Y-79843380D01*
X159782166Y-79891000D01*
X159829785Y-79938619D01*
X159877404Y-80033857D01*
X159877404Y-80129095D01*
X159829785Y-80271952D01*
X159258357Y-80843380D01*
X159877404Y-80843380D01*
X160305976Y-80462428D02*
X161067880Y-80462428D01*
X161496452Y-79938619D02*
X161544071Y-79891000D01*
X161639309Y-79843380D01*
X161877404Y-79843380D01*
X161972642Y-79891000D01*
X162020261Y-79938619D01*
X162067880Y-80033857D01*
X162067880Y-80129095D01*
X162020261Y-80271952D01*
X161448833Y-80843380D01*
X162067880Y-80843380D01*
X162686928Y-79843380D02*
X162782166Y-79843380D01*
X162877404Y-79891000D01*
X162925023Y-79938619D01*
X162972642Y-80033857D01*
X163020261Y-80224333D01*
X163020261Y-80462428D01*
X162972642Y-80652904D01*
X162925023Y-80748142D01*
X162877404Y-80795761D01*
X162782166Y-80843380D01*
X162686928Y-80843380D01*
X162591690Y-80795761D01*
X162544071Y-80748142D01*
X162496452Y-80652904D01*
X162448833Y-80462428D01*
X162448833Y-80224333D01*
X162496452Y-80033857D01*
X162544071Y-79938619D01*
X162591690Y-79891000D01*
X162686928Y-79843380D01*
X163305976Y-79843380D02*
X163639309Y-80843380D01*
X163972642Y-79843380D01*
X164305976Y-80843380D02*
X164305976Y-79843380D01*
X164544071Y-79843380D01*
X164686928Y-79891000D01*
X164782166Y-79986238D01*
X164829785Y-80081476D01*
X164877404Y-80271952D01*
X164877404Y-80414809D01*
X164829785Y-80605285D01*
X164782166Y-80700523D01*
X164686928Y-80795761D01*
X164544071Y-80843380D01*
X164305976Y-80843380D01*
X165877404Y-80748142D02*
X165829785Y-80795761D01*
X165686928Y-80843380D01*
X165591690Y-80843380D01*
X165448833Y-80795761D01*
X165353595Y-80700523D01*
X165305976Y-80605285D01*
X165258357Y-80414809D01*
X165258357Y-80271952D01*
X165305976Y-80081476D01*
X165353595Y-79986238D01*
X165448833Y-79891000D01*
X165591690Y-79843380D01*
X165686928Y-79843380D01*
X165829785Y-79891000D01*
X165877404Y-79938619D01*
X154964142Y-109878761D02*
X155107000Y-109926380D01*
X155345095Y-109926380D01*
X155440333Y-109878761D01*
X155487952Y-109831142D01*
X155535571Y-109735904D01*
X155535571Y-109640666D01*
X155487952Y-109545428D01*
X155440333Y-109497809D01*
X155345095Y-109450190D01*
X155154619Y-109402571D01*
X155059380Y-109354952D01*
X155011761Y-109307333D01*
X154964142Y-109212095D01*
X154964142Y-109116857D01*
X155011761Y-109021619D01*
X155059380Y-108974000D01*
X155154619Y-108926380D01*
X155392714Y-108926380D01*
X155535571Y-108974000D01*
X155821285Y-109259714D02*
X156202238Y-109259714D01*
X155964142Y-108926380D02*
X155964142Y-109783523D01*
X156011761Y-109878761D01*
X156107000Y-109926380D01*
X156202238Y-109926380D01*
X156916523Y-109878761D02*
X156821285Y-109926380D01*
X156630809Y-109926380D01*
X156535571Y-109878761D01*
X156487952Y-109783523D01*
X156487952Y-109402571D01*
X156535571Y-109307333D01*
X156630809Y-109259714D01*
X156821285Y-109259714D01*
X156916523Y-109307333D01*
X156964142Y-109402571D01*
X156964142Y-109497809D01*
X156487952Y-109593047D01*
X157392714Y-109259714D02*
X157392714Y-110259714D01*
X157392714Y-109307333D02*
X157487952Y-109259714D01*
X157678428Y-109259714D01*
X157773666Y-109307333D01*
X157821285Y-109354952D01*
X157868904Y-109450190D01*
X157868904Y-109735904D01*
X157821285Y-109831142D01*
X157773666Y-109878761D01*
X157678428Y-109926380D01*
X157487952Y-109926380D01*
X157392714Y-109878761D01*
X158297476Y-109259714D02*
X158297476Y-110259714D01*
X158297476Y-109307333D02*
X158392714Y-109259714D01*
X158583190Y-109259714D01*
X158678428Y-109307333D01*
X158726047Y-109354952D01*
X158773666Y-109450190D01*
X158773666Y-109735904D01*
X158726047Y-109831142D01*
X158678428Y-109878761D01*
X158583190Y-109926380D01*
X158392714Y-109926380D01*
X158297476Y-109878761D01*
X159583190Y-109878761D02*
X159487952Y-109926380D01*
X159297476Y-109926380D01*
X159202238Y-109878761D01*
X159154619Y-109783523D01*
X159154619Y-109402571D01*
X159202238Y-109307333D01*
X159297476Y-109259714D01*
X159487952Y-109259714D01*
X159583190Y-109307333D01*
X159630809Y-109402571D01*
X159630809Y-109497809D01*
X159154619Y-109593047D01*
X160059380Y-109926380D02*
X160059380Y-109259714D01*
X160059380Y-109450190D02*
X160107000Y-109354952D01*
X160154619Y-109307333D01*
X160249857Y-109259714D01*
X160345095Y-109259714D01*
D11*
X91865142Y-106147071D02*
X91865142Y-104647071D01*
X92722285Y-106147071D02*
X92079428Y-105289928D01*
X92722285Y-104647071D02*
X91865142Y-105504214D01*
X93365142Y-106147071D02*
X93365142Y-105147071D01*
X93365142Y-104647071D02*
X93293714Y-104718500D01*
X93365142Y-104789928D01*
X93436571Y-104718500D01*
X93365142Y-104647071D01*
X93365142Y-104789928D01*
X93865142Y-105147071D02*
X94436571Y-105147071D01*
X94079428Y-104647071D02*
X94079428Y-105932785D01*
X94150857Y-106075642D01*
X94293714Y-106147071D01*
X94436571Y-106147071D01*
X94722285Y-105147071D02*
X95293714Y-105147071D01*
X94936571Y-104647071D02*
X94936571Y-105932785D01*
X95008000Y-106075642D01*
X95150857Y-106147071D01*
X95293714Y-106147071D01*
X95650857Y-105147071D02*
X96008000Y-106147071D01*
X96365142Y-105147071D02*
X96008000Y-106147071D01*
X95865142Y-106504214D01*
X95793714Y-106575642D01*
X95650857Y-106647071D01*
X98936571Y-106004214D02*
X98865142Y-106075642D01*
X98650857Y-106147071D01*
X98508000Y-106147071D01*
X98293714Y-106075642D01*
X98150857Y-105932785D01*
X98079428Y-105789928D01*
X98008000Y-105504214D01*
X98008000Y-105289928D01*
X98079428Y-105004214D01*
X98150857Y-104861357D01*
X98293714Y-104718500D01*
X98508000Y-104647071D01*
X98650857Y-104647071D01*
X98865142Y-104718500D01*
X98936571Y-104789928D01*
X100222285Y-106147071D02*
X100222285Y-105361357D01*
X100150857Y-105218500D01*
X100008000Y-105147071D01*
X99722285Y-105147071D01*
X99579428Y-105218500D01*
X100222285Y-106075642D02*
X100079428Y-106147071D01*
X99722285Y-106147071D01*
X99579428Y-106075642D01*
X99508000Y-105932785D01*
X99508000Y-105789928D01*
X99579428Y-105647071D01*
X99722285Y-105575642D01*
X100079428Y-105575642D01*
X100222285Y-105504214D01*
X101579428Y-106147071D02*
X101579428Y-104647071D01*
X101579428Y-106075642D02*
X101436571Y-106147071D01*
X101150857Y-106147071D01*
X101008000Y-106075642D01*
X100936571Y-106004214D01*
X100865142Y-105861357D01*
X100865142Y-105432785D01*
X100936571Y-105289928D01*
X101008000Y-105218500D01*
X101150857Y-105147071D01*
X101436571Y-105147071D01*
X101579428Y-105218500D01*
X102936571Y-106147071D02*
X102936571Y-104647071D01*
X102936571Y-106075642D02*
X102793714Y-106147071D01*
X102508000Y-106147071D01*
X102365142Y-106075642D01*
X102293714Y-106004214D01*
X102222285Y-105861357D01*
X102222285Y-105432785D01*
X102293714Y-105289928D01*
X102365142Y-105218500D01*
X102508000Y-105147071D01*
X102793714Y-105147071D01*
X102936571Y-105218500D01*
X103508000Y-105147071D02*
X103865142Y-106147071D01*
X104222285Y-105147071D02*
X103865142Y-106147071D01*
X103722285Y-106504214D01*
X103650857Y-106575642D01*
X103508000Y-106647071D01*
X106793714Y-106147071D02*
X106293714Y-105432785D01*
X105936571Y-106147071D02*
X105936571Y-104647071D01*
X106508000Y-104647071D01*
X106650857Y-104718500D01*
X106722285Y-104789928D01*
X106793714Y-104932785D01*
X106793714Y-105147071D01*
X106722285Y-105289928D01*
X106650857Y-105361357D01*
X106508000Y-105432785D01*
X105936571Y-105432785D01*
X108008000Y-106075642D02*
X107865142Y-106147071D01*
X107579428Y-106147071D01*
X107436571Y-106075642D01*
X107365142Y-105932785D01*
X107365142Y-105361357D01*
X107436571Y-105218500D01*
X107579428Y-105147071D01*
X107865142Y-105147071D01*
X108008000Y-105218500D01*
X108079428Y-105361357D01*
X108079428Y-105504214D01*
X107365142Y-105647071D01*
X108579428Y-105147071D02*
X108936571Y-106147071D01*
X109293714Y-105147071D01*
X109865142Y-106004214D02*
X109936571Y-106075642D01*
X109865142Y-106147071D01*
X109793714Y-106075642D01*
X109865142Y-106004214D01*
X109865142Y-106147071D01*
X111650857Y-104789928D02*
X111722285Y-104718500D01*
X111865142Y-104647071D01*
X112222285Y-104647071D01*
X112365142Y-104718500D01*
X112436571Y-104789928D01*
X112508000Y-104932785D01*
X112508000Y-105075642D01*
X112436571Y-105289928D01*
X111579428Y-106147071D01*
X112508000Y-106147071D01*
X92293714Y-109268500D02*
X92222285Y-109197071D01*
X92079428Y-108982785D01*
X92008000Y-108839928D01*
X91936571Y-108625642D01*
X91865142Y-108268500D01*
X91865142Y-107982785D01*
X91936571Y-107625642D01*
X92008000Y-107411357D01*
X92079428Y-107268500D01*
X92222285Y-107054214D01*
X92293714Y-106982785D01*
X93508000Y-108625642D02*
X93365142Y-108697071D01*
X93079428Y-108697071D01*
X92936571Y-108625642D01*
X92865142Y-108554214D01*
X92793714Y-108411357D01*
X92793714Y-107982785D01*
X92865142Y-107839928D01*
X92936571Y-107768500D01*
X93079428Y-107697071D01*
X93365142Y-107697071D01*
X93508000Y-107768500D01*
X94008000Y-109268500D02*
X94079428Y-109197071D01*
X94222285Y-108982785D01*
X94293714Y-108839928D01*
X94365142Y-108625642D01*
X94436571Y-108268500D01*
X94436571Y-107982785D01*
X94365142Y-107625642D01*
X94293714Y-107411357D01*
X94222285Y-107268500D01*
X94079428Y-107054214D01*
X94008000Y-106982785D01*
X96222285Y-107339928D02*
X96293714Y-107268500D01*
X96436571Y-107197071D01*
X96793714Y-107197071D01*
X96936571Y-107268500D01*
X97008000Y-107339928D01*
X97079428Y-107482785D01*
X97079428Y-107625642D01*
X97008000Y-107839928D01*
X96150857Y-108697071D01*
X97079428Y-108697071D01*
X98008000Y-107197071D02*
X98150857Y-107197071D01*
X98293714Y-107268500D01*
X98365142Y-107339928D01*
X98436571Y-107482785D01*
X98508000Y-107768500D01*
X98508000Y-108125642D01*
X98436571Y-108411357D01*
X98365142Y-108554214D01*
X98293714Y-108625642D01*
X98150857Y-108697071D01*
X98008000Y-108697071D01*
X97865142Y-108625642D01*
X97793714Y-108554214D01*
X97722285Y-108411357D01*
X97650857Y-108125642D01*
X97650857Y-107768500D01*
X97722285Y-107482785D01*
X97793714Y-107339928D01*
X97865142Y-107268500D01*
X98008000Y-107197071D01*
X99079428Y-107339928D02*
X99150857Y-107268500D01*
X99293714Y-107197071D01*
X99650857Y-107197071D01*
X99793714Y-107268500D01*
X99865142Y-107339928D01*
X99936571Y-107482785D01*
X99936571Y-107625642D01*
X99865142Y-107839928D01*
X99008000Y-108697071D01*
X99936571Y-108697071D01*
X101365142Y-108697071D02*
X100508000Y-108697071D01*
X100936571Y-108697071D02*
X100936571Y-107197071D01*
X100793714Y-107411357D01*
X100650857Y-107554214D01*
X100508000Y-107625642D01*
X103150857Y-108697071D02*
X103150857Y-107197071D01*
X103650857Y-108268500D01*
X104150857Y-107197071D01*
X104150857Y-108697071D01*
X104865142Y-108697071D02*
X104865142Y-107697071D01*
X104865142Y-107197071D02*
X104793714Y-107268500D01*
X104865142Y-107339928D01*
X104936571Y-107268500D01*
X104865142Y-107197071D01*
X104865142Y-107339928D01*
X106222285Y-108625642D02*
X106079428Y-108697071D01*
X105793714Y-108697071D01*
X105650857Y-108625642D01*
X105579428Y-108554214D01*
X105508000Y-108411357D01*
X105508000Y-107982785D01*
X105579428Y-107839928D01*
X105650857Y-107768500D01*
X105793714Y-107697071D01*
X106079428Y-107697071D01*
X106222285Y-107768500D01*
X106865142Y-108697071D02*
X106865142Y-107197071D01*
X107508000Y-108697071D02*
X107508000Y-107911357D01*
X107436571Y-107768500D01*
X107293714Y-107697071D01*
X107079428Y-107697071D01*
X106936571Y-107768500D01*
X106865142Y-107839928D01*
X108865142Y-108697071D02*
X108865142Y-107911357D01*
X108793714Y-107768500D01*
X108650857Y-107697071D01*
X108365142Y-107697071D01*
X108222285Y-107768500D01*
X108865142Y-108625642D02*
X108722285Y-108697071D01*
X108365142Y-108697071D01*
X108222285Y-108625642D01*
X108150857Y-108482785D01*
X108150857Y-108339928D01*
X108222285Y-108197071D01*
X108365142Y-108125642D01*
X108722285Y-108125642D01*
X108865142Y-108054214D01*
X110150857Y-108625642D02*
X110008000Y-108697071D01*
X109722285Y-108697071D01*
X109579428Y-108625642D01*
X109508000Y-108482785D01*
X109508000Y-107911357D01*
X109579428Y-107768500D01*
X109722285Y-107697071D01*
X110008000Y-107697071D01*
X110150857Y-107768500D01*
X110222285Y-107911357D01*
X110222285Y-108054214D01*
X109508000Y-108197071D01*
X111079428Y-108697071D02*
X110936571Y-108625642D01*
X110865142Y-108482785D01*
X110865142Y-107197071D01*
X113650857Y-108697071D02*
X113150857Y-107982785D01*
X112793714Y-108697071D02*
X112793714Y-107197071D01*
X113365142Y-107197071D01*
X113508000Y-107268500D01*
X113579428Y-107339928D01*
X113650857Y-107482785D01*
X113650857Y-107697071D01*
X113579428Y-107839928D01*
X113508000Y-107911357D01*
X113365142Y-107982785D01*
X112793714Y-107982785D01*
X114865142Y-108625642D02*
X114722285Y-108697071D01*
X114436571Y-108697071D01*
X114293714Y-108625642D01*
X114222285Y-108482785D01*
X114222285Y-107911357D01*
X114293714Y-107768500D01*
X114436571Y-107697071D01*
X114722285Y-107697071D01*
X114865142Y-107768500D01*
X114936571Y-107911357D01*
X114936571Y-108054214D01*
X114222285Y-108197071D01*
X115579428Y-108697071D02*
X115579428Y-107697071D01*
X115579428Y-107839928D02*
X115650857Y-107768500D01*
X115793714Y-107697071D01*
X116008000Y-107697071D01*
X116150857Y-107768500D01*
X116222285Y-107911357D01*
X116222285Y-108697071D01*
X116222285Y-107911357D02*
X116293714Y-107768500D01*
X116436571Y-107697071D01*
X116650857Y-107697071D01*
X116793714Y-107768500D01*
X116865142Y-107911357D01*
X116865142Y-108697071D01*
X117793714Y-108697071D02*
X117650857Y-108625642D01*
X117579428Y-108482785D01*
X117579428Y-107197071D01*
X118936571Y-108625642D02*
X118793714Y-108697071D01*
X118508000Y-108697071D01*
X118365142Y-108625642D01*
X118293714Y-108482785D01*
X118293714Y-107911357D01*
X118365142Y-107768500D01*
X118508000Y-107697071D01*
X118793714Y-107697071D01*
X118936571Y-107768500D01*
X119008000Y-107911357D01*
X119008000Y-108054214D01*
X118293714Y-108197071D01*
X119508000Y-107697071D02*
X119865142Y-108697071D01*
X120222285Y-107697071D02*
X119865142Y-108697071D01*
X119722285Y-109054214D01*
X119650857Y-109125642D01*
X119508000Y-109197071D01*
X131826000Y-92991714D02*
X131754571Y-93063142D01*
X131826000Y-93134571D01*
X131897428Y-93063142D01*
X131826000Y-92991714D01*
X131826000Y-93134571D01*
X125730000Y-95849214D02*
X125658571Y-95920642D01*
X125730000Y-95992071D01*
X125801428Y-95920642D01*
X125730000Y-95849214D01*
X125730000Y-95992071D01*
X129921000Y-69750714D02*
X129849571Y-69822142D01*
X129921000Y-69893571D01*
X129992428Y-69822142D01*
X129921000Y-69750714D01*
X129921000Y-69893571D01*
X148462928Y-76751642D02*
X147320071Y-76751642D01*
X147891500Y-77323071D02*
X147891500Y-76180214D01*
D10*
X122848809Y-68587880D02*
X122848809Y-67587880D01*
X123277380Y-68540261D02*
X123420238Y-68587880D01*
X123658333Y-68587880D01*
X123753571Y-68540261D01*
X123801190Y-68492642D01*
X123848809Y-68397404D01*
X123848809Y-68302166D01*
X123801190Y-68206928D01*
X123753571Y-68159309D01*
X123658333Y-68111690D01*
X123467857Y-68064071D01*
X123372619Y-68016452D01*
X123325000Y-67968833D01*
X123277380Y-67873595D01*
X123277380Y-67778357D01*
X123325000Y-67683119D01*
X123372619Y-67635500D01*
X123467857Y-67587880D01*
X123705952Y-67587880D01*
X123848809Y-67635500D01*
X124277380Y-68587880D02*
X124277380Y-67587880D01*
X124658333Y-67587880D01*
X124753571Y-67635500D01*
X124801190Y-67683119D01*
X124848809Y-67778357D01*
X124848809Y-67921214D01*
X124801190Y-68016452D01*
X124753571Y-68064071D01*
X124658333Y-68111690D01*
X124277380Y-68111690D01*
X131874119Y-93956166D02*
X132350309Y-93956166D01*
X131778880Y-94241880D02*
X132112214Y-93241880D01*
X132445547Y-94241880D01*
X132636023Y-93241880D02*
X133207452Y-93241880D01*
X132921738Y-94241880D02*
X132921738Y-93241880D01*
X133540785Y-94241880D02*
X133540785Y-93241880D01*
X133874119Y-93956166D01*
X134207452Y-93241880D01*
X134207452Y-94241880D01*
X135064595Y-94194261D02*
X134969357Y-94241880D01*
X134778880Y-94241880D01*
X134683642Y-94194261D01*
X134636023Y-94099023D01*
X134636023Y-93718071D01*
X134683642Y-93622833D01*
X134778880Y-93575214D01*
X134969357Y-93575214D01*
X135064595Y-93622833D01*
X135112214Y-93718071D01*
X135112214Y-93813309D01*
X134636023Y-93908547D01*
X135969357Y-93575214D02*
X135969357Y-94384738D01*
X135921738Y-94479976D01*
X135874119Y-94527595D01*
X135778880Y-94575214D01*
X135636023Y-94575214D01*
X135540785Y-94527595D01*
X135969357Y-94194261D02*
X135874119Y-94241880D01*
X135683642Y-94241880D01*
X135588404Y-94194261D01*
X135540785Y-94146642D01*
X135493166Y-94051404D01*
X135493166Y-93765690D01*
X135540785Y-93670452D01*
X135588404Y-93622833D01*
X135683642Y-93575214D01*
X135874119Y-93575214D01*
X135969357Y-93622833D01*
X136874119Y-94241880D02*
X136874119Y-93718071D01*
X136826500Y-93622833D01*
X136731261Y-93575214D01*
X136540785Y-93575214D01*
X136445547Y-93622833D01*
X136874119Y-94194261D02*
X136778880Y-94241880D01*
X136540785Y-94241880D01*
X136445547Y-94194261D01*
X136397928Y-94099023D01*
X136397928Y-94003785D01*
X136445547Y-93908547D01*
X136540785Y-93860928D01*
X136778880Y-93860928D01*
X136874119Y-93813309D01*
X137255071Y-93241880D02*
X137874119Y-93241880D01*
X137540785Y-93622833D01*
X137683642Y-93622833D01*
X137778880Y-93670452D01*
X137826500Y-93718071D01*
X137874119Y-93813309D01*
X137874119Y-94051404D01*
X137826500Y-94146642D01*
X137778880Y-94194261D01*
X137683642Y-94241880D01*
X137397928Y-94241880D01*
X137302690Y-94194261D01*
X137255071Y-94146642D01*
X138255071Y-93337119D02*
X138302690Y-93289500D01*
X138397928Y-93241880D01*
X138636023Y-93241880D01*
X138731261Y-93289500D01*
X138778880Y-93337119D01*
X138826500Y-93432357D01*
X138826500Y-93527595D01*
X138778880Y-93670452D01*
X138207452Y-94241880D01*
X138826500Y-94241880D01*
X139397928Y-93670452D02*
X139302690Y-93622833D01*
X139255071Y-93575214D01*
X139207452Y-93479976D01*
X139207452Y-93432357D01*
X139255071Y-93337119D01*
X139302690Y-93289500D01*
X139397928Y-93241880D01*
X139588404Y-93241880D01*
X139683642Y-93289500D01*
X139731261Y-93337119D01*
X139778880Y-93432357D01*
X139778880Y-93479976D01*
X139731261Y-93575214D01*
X139683642Y-93622833D01*
X139588404Y-93670452D01*
X139397928Y-93670452D01*
X139302690Y-93718071D01*
X139255071Y-93765690D01*
X139207452Y-93860928D01*
X139207452Y-94051404D01*
X139255071Y-94146642D01*
X139302690Y-94194261D01*
X139397928Y-94241880D01*
X139588404Y-94241880D01*
X139683642Y-94194261D01*
X139731261Y-94146642D01*
X139778880Y-94051404D01*
X139778880Y-93860928D01*
X139731261Y-93765690D01*
X139683642Y-93718071D01*
X139588404Y-93670452D01*
X118935571Y-98242380D02*
X118602238Y-97766190D01*
X118364142Y-98242380D02*
X118364142Y-97242380D01*
X118745095Y-97242380D01*
X118840333Y-97290000D01*
X118887952Y-97337619D01*
X118935571Y-97432857D01*
X118935571Y-97575714D01*
X118887952Y-97670952D01*
X118840333Y-97718571D01*
X118745095Y-97766190D01*
X118364142Y-97766190D01*
X119221285Y-97242380D02*
X119792714Y-97242380D01*
X119507000Y-98242380D02*
X119507000Y-97242380D01*
X120697476Y-98147142D02*
X120649857Y-98194761D01*
X120507000Y-98242380D01*
X120411761Y-98242380D01*
X120268904Y-98194761D01*
X120173666Y-98099523D01*
X120126047Y-98004285D01*
X120078428Y-97813809D01*
X120078428Y-97670952D01*
X120126047Y-97480476D01*
X120173666Y-97385238D01*
X120268904Y-97290000D01*
X120411761Y-97242380D01*
X120507000Y-97242380D01*
X120649857Y-97290000D01*
X120697476Y-97337619D01*
X133104619Y-109926380D02*
X133104619Y-108926380D01*
X133104619Y-109402571D02*
X133676047Y-109402571D01*
X133676047Y-109926380D02*
X133676047Y-108926380D01*
X134295095Y-109926380D02*
X134199857Y-109878761D01*
X134152238Y-109831142D01*
X134104619Y-109735904D01*
X134104619Y-109450190D01*
X134152238Y-109354952D01*
X134199857Y-109307333D01*
X134295095Y-109259714D01*
X134437952Y-109259714D01*
X134533190Y-109307333D01*
X134580809Y-109354952D01*
X134628428Y-109450190D01*
X134628428Y-109735904D01*
X134580809Y-109831142D01*
X134533190Y-109878761D01*
X134437952Y-109926380D01*
X134295095Y-109926380D01*
X135057000Y-109926380D02*
X135057000Y-109259714D01*
X135057000Y-109354952D02*
X135104619Y-109307333D01*
X135199857Y-109259714D01*
X135342714Y-109259714D01*
X135437952Y-109307333D01*
X135485571Y-109402571D01*
X135485571Y-109926380D01*
X135485571Y-109402571D02*
X135533190Y-109307333D01*
X135628428Y-109259714D01*
X135771285Y-109259714D01*
X135866523Y-109307333D01*
X135914142Y-109402571D01*
X135914142Y-109926380D01*
X136390333Y-109926380D02*
X136390333Y-109259714D01*
X136390333Y-108926380D02*
X136342714Y-108974000D01*
X136390333Y-109021619D01*
X136437952Y-108974000D01*
X136390333Y-108926380D01*
X136390333Y-109021619D01*
X136866523Y-109259714D02*
X136866523Y-109926380D01*
X136866523Y-109354952D02*
X136914142Y-109307333D01*
X137009380Y-109259714D01*
X137152238Y-109259714D01*
X137247476Y-109307333D01*
X137295095Y-109402571D01*
X137295095Y-109926380D01*
X138199857Y-109259714D02*
X138199857Y-110069238D01*
X138152238Y-110164476D01*
X138104619Y-110212095D01*
X138009380Y-110259714D01*
X137866523Y-110259714D01*
X137771285Y-110212095D01*
X138199857Y-109878761D02*
X138104619Y-109926380D01*
X137914142Y-109926380D01*
X137818904Y-109878761D01*
X137771285Y-109831142D01*
X137723666Y-109735904D01*
X137723666Y-109450190D01*
X137771285Y-109354952D01*
X137818904Y-109307333D01*
X137914142Y-109259714D01*
X138104619Y-109259714D01*
X138199857Y-109307333D01*
X139390333Y-109878761D02*
X139533190Y-109926380D01*
X139771285Y-109926380D01*
X139866523Y-109878761D01*
X139914142Y-109831142D01*
X139961761Y-109735904D01*
X139961761Y-109640666D01*
X139914142Y-109545428D01*
X139866523Y-109497809D01*
X139771285Y-109450190D01*
X139580809Y-109402571D01*
X139485571Y-109354952D01*
X139437952Y-109307333D01*
X139390333Y-109212095D01*
X139390333Y-109116857D01*
X139437952Y-109021619D01*
X139485571Y-108974000D01*
X139580809Y-108926380D01*
X139818904Y-108926380D01*
X139961761Y-108974000D01*
X140771285Y-109878761D02*
X140676047Y-109926380D01*
X140485571Y-109926380D01*
X140390333Y-109878761D01*
X140342714Y-109783523D01*
X140342714Y-109402571D01*
X140390333Y-109307333D01*
X140485571Y-109259714D01*
X140676047Y-109259714D01*
X140771285Y-109307333D01*
X140818904Y-109402571D01*
X140818904Y-109497809D01*
X140342714Y-109593047D01*
X141247476Y-109259714D02*
X141247476Y-109926380D01*
X141247476Y-109354952D02*
X141295095Y-109307333D01*
X141390333Y-109259714D01*
X141533190Y-109259714D01*
X141628428Y-109307333D01*
X141676047Y-109402571D01*
X141676047Y-109926380D01*
X142104619Y-109878761D02*
X142199857Y-109926380D01*
X142390333Y-109926380D01*
X142485571Y-109878761D01*
X142533190Y-109783523D01*
X142533190Y-109735904D01*
X142485571Y-109640666D01*
X142390333Y-109593047D01*
X142247476Y-109593047D01*
X142152238Y-109545428D01*
X142104619Y-109450190D01*
X142104619Y-109402571D01*
X142152238Y-109307333D01*
X142247476Y-109259714D01*
X142390333Y-109259714D01*
X142485571Y-109307333D01*
X143104619Y-109926380D02*
X143009380Y-109878761D01*
X142961761Y-109831142D01*
X142914142Y-109735904D01*
X142914142Y-109450190D01*
X142961761Y-109354952D01*
X143009380Y-109307333D01*
X143104619Y-109259714D01*
X143247476Y-109259714D01*
X143342714Y-109307333D01*
X143390333Y-109354952D01*
X143437952Y-109450190D01*
X143437952Y-109735904D01*
X143390333Y-109831142D01*
X143342714Y-109878761D01*
X143247476Y-109926380D01*
X143104619Y-109926380D01*
X143866523Y-109926380D02*
X143866523Y-109259714D01*
X143866523Y-109450190D02*
X143914142Y-109354952D01*
X143961761Y-109307333D01*
X144057000Y-109259714D01*
X144152238Y-109259714D01*
X150892523Y-100671261D02*
X151035380Y-100718880D01*
X151273476Y-100718880D01*
X151368714Y-100671261D01*
X151416333Y-100623642D01*
X151463952Y-100528404D01*
X151463952Y-100433166D01*
X151416333Y-100337928D01*
X151368714Y-100290309D01*
X151273476Y-100242690D01*
X151083000Y-100195071D01*
X150987761Y-100147452D01*
X150940142Y-100099833D01*
X150892523Y-100004595D01*
X150892523Y-99909357D01*
X150940142Y-99814119D01*
X150987761Y-99766500D01*
X151083000Y-99718880D01*
X151321095Y-99718880D01*
X151463952Y-99766500D01*
X151749666Y-100052214D02*
X152130619Y-100052214D01*
X151892523Y-99718880D02*
X151892523Y-100576023D01*
X151940142Y-100671261D01*
X152035380Y-100718880D01*
X152130619Y-100718880D01*
X152844904Y-100671261D02*
X152749666Y-100718880D01*
X152559190Y-100718880D01*
X152463952Y-100671261D01*
X152416333Y-100576023D01*
X152416333Y-100195071D01*
X152463952Y-100099833D01*
X152559190Y-100052214D01*
X152749666Y-100052214D01*
X152844904Y-100099833D01*
X152892523Y-100195071D01*
X152892523Y-100290309D01*
X152416333Y-100385547D01*
X153321095Y-100052214D02*
X153321095Y-101052214D01*
X153321095Y-100099833D02*
X153416333Y-100052214D01*
X153606809Y-100052214D01*
X153702047Y-100099833D01*
X153749666Y-100147452D01*
X153797285Y-100242690D01*
X153797285Y-100528404D01*
X153749666Y-100623642D01*
X153702047Y-100671261D01*
X153606809Y-100718880D01*
X153416333Y-100718880D01*
X153321095Y-100671261D01*
X154225857Y-100052214D02*
X154225857Y-101052214D01*
X154225857Y-100099833D02*
X154321095Y-100052214D01*
X154511571Y-100052214D01*
X154606809Y-100099833D01*
X154654428Y-100147452D01*
X154702047Y-100242690D01*
X154702047Y-100528404D01*
X154654428Y-100623642D01*
X154606809Y-100671261D01*
X154511571Y-100718880D01*
X154321095Y-100718880D01*
X154225857Y-100671261D01*
X155511571Y-100671261D02*
X155416333Y-100718880D01*
X155225857Y-100718880D01*
X155130619Y-100671261D01*
X155083000Y-100576023D01*
X155083000Y-100195071D01*
X155130619Y-100099833D01*
X155225857Y-100052214D01*
X155416333Y-100052214D01*
X155511571Y-100099833D01*
X155559190Y-100195071D01*
X155559190Y-100290309D01*
X155083000Y-100385547D01*
X155987761Y-100718880D02*
X155987761Y-100052214D01*
X155987761Y-100242690D02*
X156035380Y-100147452D01*
X156083000Y-100099833D01*
X156178238Y-100052214D01*
X156273476Y-100052214D01*
X157368714Y-100718880D02*
X157368714Y-99718880D01*
X157606809Y-99718880D01*
X157749666Y-99766500D01*
X157844904Y-99861738D01*
X157892523Y-99956976D01*
X157940142Y-100147452D01*
X157940142Y-100290309D01*
X157892523Y-100480785D01*
X157844904Y-100576023D01*
X157749666Y-100671261D01*
X157606809Y-100718880D01*
X157368714Y-100718880D01*
X158368714Y-100718880D02*
X158368714Y-100052214D01*
X158368714Y-100242690D02*
X158416333Y-100147452D01*
X158463952Y-100099833D01*
X158559190Y-100052214D01*
X158654428Y-100052214D01*
X158987761Y-100718880D02*
X158987761Y-100052214D01*
X158987761Y-99718880D02*
X158940142Y-99766500D01*
X158987761Y-99814119D01*
X159035380Y-99766500D01*
X158987761Y-99718880D01*
X158987761Y-99814119D01*
X159368714Y-100052214D02*
X159606809Y-100718880D01*
X159844904Y-100052214D01*
X160606809Y-100671261D02*
X160511571Y-100718880D01*
X160321095Y-100718880D01*
X160225857Y-100671261D01*
X160178238Y-100576023D01*
X160178238Y-100195071D01*
X160225857Y-100099833D01*
X160321095Y-100052214D01*
X160511571Y-100052214D01*
X160606809Y-100099833D01*
X160654428Y-100195071D01*
X160654428Y-100290309D01*
X160178238Y-100385547D01*
X161083000Y-100718880D02*
X161083000Y-100052214D01*
X161083000Y-100242690D02*
X161130619Y-100147452D01*
X161178238Y-100099833D01*
X161273476Y-100052214D01*
X161368714Y-100052214D01*
D12*
G04 #@! TO.C,U3*
X123240000Y-96445000D02*
X125055000Y-96445000D01*
X123240000Y-96700000D02*
X123240000Y-96445000D01*
X119380000Y-96700000D02*
X123240000Y-96700000D01*
X115520000Y-96700000D02*
X115520000Y-96445000D01*
X119380000Y-96700000D02*
X115520000Y-96700000D01*
X123240000Y-86180000D02*
X123240000Y-86435000D01*
X119380000Y-86180000D02*
X123240000Y-86180000D01*
X115520000Y-86180000D02*
X115520000Y-86435000D01*
X119380000Y-86180000D02*
X115520000Y-86180000D01*
G04 #@! TO.C,L1*
X142740000Y-75350000D02*
X154440000Y-75350000D01*
X142740000Y-64350000D02*
X142740000Y-75350000D01*
X154440000Y-64350000D02*
X142740000Y-64350000D01*
X154440000Y-75350000D02*
X154440000Y-64350000D01*
G04 #@! TO.C,BT1*
X107956346Y-93345000D02*
G75*
G03*
X107956346Y-93345000I-5086346J0D01*
G01*
G04 #@! TO.C,C10*
X120295302Y-77930000D02*
X120295302Y-78730000D01*
X119895302Y-78330000D02*
X120695302Y-78330000D01*
X128386000Y-80112000D02*
X128386000Y-81178000D01*
X128346000Y-79877000D02*
X128346000Y-81413000D01*
X128306000Y-79697000D02*
X128306000Y-81593000D01*
X128266000Y-79547000D02*
X128266000Y-81743000D01*
X128226000Y-79416000D02*
X128226000Y-81874000D01*
X128186000Y-79299000D02*
X128186000Y-81991000D01*
X128146000Y-79192000D02*
X128146000Y-82098000D01*
X128106000Y-79093000D02*
X128106000Y-82197000D01*
X128066000Y-79000000D02*
X128066000Y-82290000D01*
X128026000Y-78914000D02*
X128026000Y-82376000D01*
X127986000Y-78832000D02*
X127986000Y-82458000D01*
X127946000Y-78755000D02*
X127946000Y-82535000D01*
X127906000Y-78681000D02*
X127906000Y-82609000D01*
X127866000Y-78611000D02*
X127866000Y-82679000D01*
X127826000Y-78543000D02*
X127826000Y-82747000D01*
X127786000Y-78479000D02*
X127786000Y-82811000D01*
X127746000Y-78417000D02*
X127746000Y-82873000D01*
X127706000Y-78358000D02*
X127706000Y-82932000D01*
X127666000Y-78300000D02*
X127666000Y-82990000D01*
X127626000Y-78245000D02*
X127626000Y-83045000D01*
X127586000Y-78191000D02*
X127586000Y-83099000D01*
X127546000Y-78140000D02*
X127546000Y-83150000D01*
X127506000Y-78089000D02*
X127506000Y-83201000D01*
X127466000Y-78041000D02*
X127466000Y-83249000D01*
X127426000Y-77994000D02*
X127426000Y-83296000D01*
X127386000Y-77948000D02*
X127386000Y-83342000D01*
X127346000Y-77904000D02*
X127346000Y-83386000D01*
X127306000Y-77861000D02*
X127306000Y-83429000D01*
X127266000Y-77819000D02*
X127266000Y-83471000D01*
X127226000Y-77778000D02*
X127226000Y-83512000D01*
X127186000Y-77738000D02*
X127186000Y-83552000D01*
X127146000Y-77700000D02*
X127146000Y-83590000D01*
X127106000Y-77662000D02*
X127106000Y-83628000D01*
X127066000Y-81685000D02*
X127066000Y-83664000D01*
X127066000Y-77626000D02*
X127066000Y-79605000D01*
X127026000Y-81685000D02*
X127026000Y-83700000D01*
X127026000Y-77590000D02*
X127026000Y-79605000D01*
X126986000Y-81685000D02*
X126986000Y-83735000D01*
X126986000Y-77555000D02*
X126986000Y-79605000D01*
X126946000Y-81685000D02*
X126946000Y-83769000D01*
X126946000Y-77521000D02*
X126946000Y-79605000D01*
X126906000Y-81685000D02*
X126906000Y-83801000D01*
X126906000Y-77489000D02*
X126906000Y-79605000D01*
X126866000Y-81685000D02*
X126866000Y-83834000D01*
X126866000Y-77456000D02*
X126866000Y-79605000D01*
X126826000Y-81685000D02*
X126826000Y-83865000D01*
X126826000Y-77425000D02*
X126826000Y-79605000D01*
X126786000Y-81685000D02*
X126786000Y-83895000D01*
X126786000Y-77395000D02*
X126786000Y-79605000D01*
X126746000Y-81685000D02*
X126746000Y-83925000D01*
X126746000Y-77365000D02*
X126746000Y-79605000D01*
X126706000Y-81685000D02*
X126706000Y-83954000D01*
X126706000Y-77336000D02*
X126706000Y-79605000D01*
X126666000Y-81685000D02*
X126666000Y-83983000D01*
X126666000Y-77307000D02*
X126666000Y-79605000D01*
X126626000Y-81685000D02*
X126626000Y-84010000D01*
X126626000Y-77280000D02*
X126626000Y-79605000D01*
X126586000Y-81685000D02*
X126586000Y-84037000D01*
X126586000Y-77253000D02*
X126586000Y-79605000D01*
X126546000Y-81685000D02*
X126546000Y-84063000D01*
X126546000Y-77227000D02*
X126546000Y-79605000D01*
X126506000Y-81685000D02*
X126506000Y-84089000D01*
X126506000Y-77201000D02*
X126506000Y-79605000D01*
X126466000Y-81685000D02*
X126466000Y-84114000D01*
X126466000Y-77176000D02*
X126466000Y-79605000D01*
X126426000Y-81685000D02*
X126426000Y-84138000D01*
X126426000Y-77152000D02*
X126426000Y-79605000D01*
X126386000Y-81685000D02*
X126386000Y-84162000D01*
X126386000Y-77128000D02*
X126386000Y-79605000D01*
X126346000Y-81685000D02*
X126346000Y-84185000D01*
X126346000Y-77105000D02*
X126346000Y-79605000D01*
X126306000Y-81685000D02*
X126306000Y-84207000D01*
X126306000Y-77083000D02*
X126306000Y-79605000D01*
X126266000Y-81685000D02*
X126266000Y-84229000D01*
X126266000Y-77061000D02*
X126266000Y-79605000D01*
X126226000Y-81685000D02*
X126226000Y-84251000D01*
X126226000Y-77039000D02*
X126226000Y-79605000D01*
X126186000Y-81685000D02*
X126186000Y-84272000D01*
X126186000Y-77018000D02*
X126186000Y-79605000D01*
X126146000Y-81685000D02*
X126146000Y-84292000D01*
X126146000Y-76998000D02*
X126146000Y-79605000D01*
X126106000Y-81685000D02*
X126106000Y-84311000D01*
X126106000Y-76979000D02*
X126106000Y-79605000D01*
X126066000Y-81685000D02*
X126066000Y-84331000D01*
X126066000Y-76959000D02*
X126066000Y-79605000D01*
X126026000Y-81685000D02*
X126026000Y-84349000D01*
X126026000Y-76941000D02*
X126026000Y-79605000D01*
X125986000Y-81685000D02*
X125986000Y-84367000D01*
X125986000Y-76923000D02*
X125986000Y-79605000D01*
X125946000Y-81685000D02*
X125946000Y-84385000D01*
X125946000Y-76905000D02*
X125946000Y-79605000D01*
X125906000Y-81685000D02*
X125906000Y-84402000D01*
X125906000Y-76888000D02*
X125906000Y-79605000D01*
X125866000Y-81685000D02*
X125866000Y-84419000D01*
X125866000Y-76871000D02*
X125866000Y-79605000D01*
X125826000Y-81685000D02*
X125826000Y-84435000D01*
X125826000Y-76855000D02*
X125826000Y-79605000D01*
X125786000Y-81685000D02*
X125786000Y-84450000D01*
X125786000Y-76840000D02*
X125786000Y-79605000D01*
X125746000Y-81685000D02*
X125746000Y-84466000D01*
X125746000Y-76824000D02*
X125746000Y-79605000D01*
X125706000Y-81685000D02*
X125706000Y-84480000D01*
X125706000Y-76810000D02*
X125706000Y-79605000D01*
X125666000Y-81685000D02*
X125666000Y-84495000D01*
X125666000Y-76795000D02*
X125666000Y-79605000D01*
X125626000Y-81685000D02*
X125626000Y-84508000D01*
X125626000Y-76782000D02*
X125626000Y-79605000D01*
X125586000Y-81685000D02*
X125586000Y-84522000D01*
X125586000Y-76768000D02*
X125586000Y-79605000D01*
X125546000Y-81685000D02*
X125546000Y-84534000D01*
X125546000Y-76756000D02*
X125546000Y-79605000D01*
X125506000Y-81685000D02*
X125506000Y-84547000D01*
X125506000Y-76743000D02*
X125506000Y-79605000D01*
X125466000Y-81685000D02*
X125466000Y-84559000D01*
X125466000Y-76731000D02*
X125466000Y-79605000D01*
X125426000Y-81685000D02*
X125426000Y-84570000D01*
X125426000Y-76720000D02*
X125426000Y-79605000D01*
X125386000Y-81685000D02*
X125386000Y-84581000D01*
X125386000Y-76709000D02*
X125386000Y-79605000D01*
X125346000Y-81685000D02*
X125346000Y-84592000D01*
X125346000Y-76698000D02*
X125346000Y-79605000D01*
X125306000Y-81685000D02*
X125306000Y-84602000D01*
X125306000Y-76688000D02*
X125306000Y-79605000D01*
X125266000Y-81685000D02*
X125266000Y-84612000D01*
X125266000Y-76678000D02*
X125266000Y-79605000D01*
X125226000Y-81685000D02*
X125226000Y-84621000D01*
X125226000Y-76669000D02*
X125226000Y-79605000D01*
X125186000Y-81685000D02*
X125186000Y-84630000D01*
X125186000Y-76660000D02*
X125186000Y-79605000D01*
X125146000Y-81685000D02*
X125146000Y-84639000D01*
X125146000Y-76651000D02*
X125146000Y-79605000D01*
X125106000Y-81685000D02*
X125106000Y-84647000D01*
X125106000Y-76643000D02*
X125106000Y-79605000D01*
X125066000Y-81685000D02*
X125066000Y-84655000D01*
X125066000Y-76635000D02*
X125066000Y-79605000D01*
X125026000Y-81685000D02*
X125026000Y-84662000D01*
X125026000Y-76628000D02*
X125026000Y-79605000D01*
X124985000Y-76621000D02*
X124985000Y-84669000D01*
X124945000Y-76615000D02*
X124945000Y-84675000D01*
X124905000Y-76608000D02*
X124905000Y-84682000D01*
X124865000Y-76603000D02*
X124865000Y-84687000D01*
X124825000Y-76597000D02*
X124825000Y-84693000D01*
X124785000Y-76593000D02*
X124785000Y-84697000D01*
X124745000Y-76588000D02*
X124745000Y-84702000D01*
X124705000Y-76584000D02*
X124705000Y-84706000D01*
X124665000Y-76580000D02*
X124665000Y-84710000D01*
X124625000Y-76577000D02*
X124625000Y-84713000D01*
X124585000Y-76574000D02*
X124585000Y-84716000D01*
X124545000Y-76571000D02*
X124545000Y-84719000D01*
X124505000Y-76569000D02*
X124505000Y-84721000D01*
X124465000Y-76568000D02*
X124465000Y-84722000D01*
X124425000Y-76566000D02*
X124425000Y-84724000D01*
X124385000Y-76565000D02*
X124385000Y-84725000D01*
X124345000Y-76565000D02*
X124345000Y-84725000D01*
X124305000Y-76565000D02*
X124305000Y-84725000D01*
X128425000Y-80645000D02*
G75*
G03*
X128425000Y-80645000I-4120000J0D01*
G01*
G04 #@! TO.C,C3*
X167920302Y-84915000D02*
X167920302Y-85715000D01*
X167520302Y-85315000D02*
X168320302Y-85315000D01*
X176011000Y-87097000D02*
X176011000Y-88163000D01*
X175971000Y-86862000D02*
X175971000Y-88398000D01*
X175931000Y-86682000D02*
X175931000Y-88578000D01*
X175891000Y-86532000D02*
X175891000Y-88728000D01*
X175851000Y-86401000D02*
X175851000Y-88859000D01*
X175811000Y-86284000D02*
X175811000Y-88976000D01*
X175771000Y-86177000D02*
X175771000Y-89083000D01*
X175731000Y-86078000D02*
X175731000Y-89182000D01*
X175691000Y-85985000D02*
X175691000Y-89275000D01*
X175651000Y-85899000D02*
X175651000Y-89361000D01*
X175611000Y-85817000D02*
X175611000Y-89443000D01*
X175571000Y-85740000D02*
X175571000Y-89520000D01*
X175531000Y-85666000D02*
X175531000Y-89594000D01*
X175491000Y-85596000D02*
X175491000Y-89664000D01*
X175451000Y-85528000D02*
X175451000Y-89732000D01*
X175411000Y-85464000D02*
X175411000Y-89796000D01*
X175371000Y-85402000D02*
X175371000Y-89858000D01*
X175331000Y-85343000D02*
X175331000Y-89917000D01*
X175291000Y-85285000D02*
X175291000Y-89975000D01*
X175251000Y-85230000D02*
X175251000Y-90030000D01*
X175211000Y-85176000D02*
X175211000Y-90084000D01*
X175171000Y-85125000D02*
X175171000Y-90135000D01*
X175131000Y-85074000D02*
X175131000Y-90186000D01*
X175091000Y-85026000D02*
X175091000Y-90234000D01*
X175051000Y-84979000D02*
X175051000Y-90281000D01*
X175011000Y-84933000D02*
X175011000Y-90327000D01*
X174971000Y-84889000D02*
X174971000Y-90371000D01*
X174931000Y-84846000D02*
X174931000Y-90414000D01*
X174891000Y-84804000D02*
X174891000Y-90456000D01*
X174851000Y-84763000D02*
X174851000Y-90497000D01*
X174811000Y-84723000D02*
X174811000Y-90537000D01*
X174771000Y-84685000D02*
X174771000Y-90575000D01*
X174731000Y-84647000D02*
X174731000Y-90613000D01*
X174691000Y-88670000D02*
X174691000Y-90649000D01*
X174691000Y-84611000D02*
X174691000Y-86590000D01*
X174651000Y-88670000D02*
X174651000Y-90685000D01*
X174651000Y-84575000D02*
X174651000Y-86590000D01*
X174611000Y-88670000D02*
X174611000Y-90720000D01*
X174611000Y-84540000D02*
X174611000Y-86590000D01*
X174571000Y-88670000D02*
X174571000Y-90754000D01*
X174571000Y-84506000D02*
X174571000Y-86590000D01*
X174531000Y-88670000D02*
X174531000Y-90786000D01*
X174531000Y-84474000D02*
X174531000Y-86590000D01*
X174491000Y-88670000D02*
X174491000Y-90819000D01*
X174491000Y-84441000D02*
X174491000Y-86590000D01*
X174451000Y-88670000D02*
X174451000Y-90850000D01*
X174451000Y-84410000D02*
X174451000Y-86590000D01*
X174411000Y-88670000D02*
X174411000Y-90880000D01*
X174411000Y-84380000D02*
X174411000Y-86590000D01*
X174371000Y-88670000D02*
X174371000Y-90910000D01*
X174371000Y-84350000D02*
X174371000Y-86590000D01*
X174331000Y-88670000D02*
X174331000Y-90939000D01*
X174331000Y-84321000D02*
X174331000Y-86590000D01*
X174291000Y-88670000D02*
X174291000Y-90968000D01*
X174291000Y-84292000D02*
X174291000Y-86590000D01*
X174251000Y-88670000D02*
X174251000Y-90995000D01*
X174251000Y-84265000D02*
X174251000Y-86590000D01*
X174211000Y-88670000D02*
X174211000Y-91022000D01*
X174211000Y-84238000D02*
X174211000Y-86590000D01*
X174171000Y-88670000D02*
X174171000Y-91048000D01*
X174171000Y-84212000D02*
X174171000Y-86590000D01*
X174131000Y-88670000D02*
X174131000Y-91074000D01*
X174131000Y-84186000D02*
X174131000Y-86590000D01*
X174091000Y-88670000D02*
X174091000Y-91099000D01*
X174091000Y-84161000D02*
X174091000Y-86590000D01*
X174051000Y-88670000D02*
X174051000Y-91123000D01*
X174051000Y-84137000D02*
X174051000Y-86590000D01*
X174011000Y-88670000D02*
X174011000Y-91147000D01*
X174011000Y-84113000D02*
X174011000Y-86590000D01*
X173971000Y-88670000D02*
X173971000Y-91170000D01*
X173971000Y-84090000D02*
X173971000Y-86590000D01*
X173931000Y-88670000D02*
X173931000Y-91192000D01*
X173931000Y-84068000D02*
X173931000Y-86590000D01*
X173891000Y-88670000D02*
X173891000Y-91214000D01*
X173891000Y-84046000D02*
X173891000Y-86590000D01*
X173851000Y-88670000D02*
X173851000Y-91236000D01*
X173851000Y-84024000D02*
X173851000Y-86590000D01*
X173811000Y-88670000D02*
X173811000Y-91257000D01*
X173811000Y-84003000D02*
X173811000Y-86590000D01*
X173771000Y-88670000D02*
X173771000Y-91277000D01*
X173771000Y-83983000D02*
X173771000Y-86590000D01*
X173731000Y-88670000D02*
X173731000Y-91296000D01*
X173731000Y-83964000D02*
X173731000Y-86590000D01*
X173691000Y-88670000D02*
X173691000Y-91316000D01*
X173691000Y-83944000D02*
X173691000Y-86590000D01*
X173651000Y-88670000D02*
X173651000Y-91334000D01*
X173651000Y-83926000D02*
X173651000Y-86590000D01*
X173611000Y-88670000D02*
X173611000Y-91352000D01*
X173611000Y-83908000D02*
X173611000Y-86590000D01*
X173571000Y-88670000D02*
X173571000Y-91370000D01*
X173571000Y-83890000D02*
X173571000Y-86590000D01*
X173531000Y-88670000D02*
X173531000Y-91387000D01*
X173531000Y-83873000D02*
X173531000Y-86590000D01*
X173491000Y-88670000D02*
X173491000Y-91404000D01*
X173491000Y-83856000D02*
X173491000Y-86590000D01*
X173451000Y-88670000D02*
X173451000Y-91420000D01*
X173451000Y-83840000D02*
X173451000Y-86590000D01*
X173411000Y-88670000D02*
X173411000Y-91435000D01*
X173411000Y-83825000D02*
X173411000Y-86590000D01*
X173371000Y-88670000D02*
X173371000Y-91451000D01*
X173371000Y-83809000D02*
X173371000Y-86590000D01*
X173331000Y-88670000D02*
X173331000Y-91465000D01*
X173331000Y-83795000D02*
X173331000Y-86590000D01*
X173291000Y-88670000D02*
X173291000Y-91480000D01*
X173291000Y-83780000D02*
X173291000Y-86590000D01*
X173251000Y-88670000D02*
X173251000Y-91493000D01*
X173251000Y-83767000D02*
X173251000Y-86590000D01*
X173211000Y-88670000D02*
X173211000Y-91507000D01*
X173211000Y-83753000D02*
X173211000Y-86590000D01*
X173171000Y-88670000D02*
X173171000Y-91519000D01*
X173171000Y-83741000D02*
X173171000Y-86590000D01*
X173131000Y-88670000D02*
X173131000Y-91532000D01*
X173131000Y-83728000D02*
X173131000Y-86590000D01*
X173091000Y-88670000D02*
X173091000Y-91544000D01*
X173091000Y-83716000D02*
X173091000Y-86590000D01*
X173051000Y-88670000D02*
X173051000Y-91555000D01*
X173051000Y-83705000D02*
X173051000Y-86590000D01*
X173011000Y-88670000D02*
X173011000Y-91566000D01*
X173011000Y-83694000D02*
X173011000Y-86590000D01*
X172971000Y-88670000D02*
X172971000Y-91577000D01*
X172971000Y-83683000D02*
X172971000Y-86590000D01*
X172931000Y-88670000D02*
X172931000Y-91587000D01*
X172931000Y-83673000D02*
X172931000Y-86590000D01*
X172891000Y-88670000D02*
X172891000Y-91597000D01*
X172891000Y-83663000D02*
X172891000Y-86590000D01*
X172851000Y-88670000D02*
X172851000Y-91606000D01*
X172851000Y-83654000D02*
X172851000Y-86590000D01*
X172811000Y-88670000D02*
X172811000Y-91615000D01*
X172811000Y-83645000D02*
X172811000Y-86590000D01*
X172771000Y-88670000D02*
X172771000Y-91624000D01*
X172771000Y-83636000D02*
X172771000Y-86590000D01*
X172731000Y-88670000D02*
X172731000Y-91632000D01*
X172731000Y-83628000D02*
X172731000Y-86590000D01*
X172691000Y-88670000D02*
X172691000Y-91640000D01*
X172691000Y-83620000D02*
X172691000Y-86590000D01*
X172651000Y-88670000D02*
X172651000Y-91647000D01*
X172651000Y-83613000D02*
X172651000Y-86590000D01*
X172610000Y-83606000D02*
X172610000Y-91654000D01*
X172570000Y-83600000D02*
X172570000Y-91660000D01*
X172530000Y-83593000D02*
X172530000Y-91667000D01*
X172490000Y-83588000D02*
X172490000Y-91672000D01*
X172450000Y-83582000D02*
X172450000Y-91678000D01*
X172410000Y-83578000D02*
X172410000Y-91682000D01*
X172370000Y-83573000D02*
X172370000Y-91687000D01*
X172330000Y-83569000D02*
X172330000Y-91691000D01*
X172290000Y-83565000D02*
X172290000Y-91695000D01*
X172250000Y-83562000D02*
X172250000Y-91698000D01*
X172210000Y-83559000D02*
X172210000Y-91701000D01*
X172170000Y-83556000D02*
X172170000Y-91704000D01*
X172130000Y-83554000D02*
X172130000Y-91706000D01*
X172090000Y-83553000D02*
X172090000Y-91707000D01*
X172050000Y-83551000D02*
X172050000Y-91709000D01*
X172010000Y-83550000D02*
X172010000Y-91710000D01*
X171970000Y-83550000D02*
X171970000Y-91710000D01*
X171930000Y-83550000D02*
X171930000Y-91710000D01*
X176050000Y-87630000D02*
G75*
G03*
X176050000Y-87630000I-4120000J0D01*
G01*
G04 #@! TO.C,C2*
X167920302Y-94440000D02*
X167920302Y-95240000D01*
X167520302Y-94840000D02*
X168320302Y-94840000D01*
X176011000Y-96622000D02*
X176011000Y-97688000D01*
X175971000Y-96387000D02*
X175971000Y-97923000D01*
X175931000Y-96207000D02*
X175931000Y-98103000D01*
X175891000Y-96057000D02*
X175891000Y-98253000D01*
X175851000Y-95926000D02*
X175851000Y-98384000D01*
X175811000Y-95809000D02*
X175811000Y-98501000D01*
X175771000Y-95702000D02*
X175771000Y-98608000D01*
X175731000Y-95603000D02*
X175731000Y-98707000D01*
X175691000Y-95510000D02*
X175691000Y-98800000D01*
X175651000Y-95424000D02*
X175651000Y-98886000D01*
X175611000Y-95342000D02*
X175611000Y-98968000D01*
X175571000Y-95265000D02*
X175571000Y-99045000D01*
X175531000Y-95191000D02*
X175531000Y-99119000D01*
X175491000Y-95121000D02*
X175491000Y-99189000D01*
X175451000Y-95053000D02*
X175451000Y-99257000D01*
X175411000Y-94989000D02*
X175411000Y-99321000D01*
X175371000Y-94927000D02*
X175371000Y-99383000D01*
X175331000Y-94868000D02*
X175331000Y-99442000D01*
X175291000Y-94810000D02*
X175291000Y-99500000D01*
X175251000Y-94755000D02*
X175251000Y-99555000D01*
X175211000Y-94701000D02*
X175211000Y-99609000D01*
X175171000Y-94650000D02*
X175171000Y-99660000D01*
X175131000Y-94599000D02*
X175131000Y-99711000D01*
X175091000Y-94551000D02*
X175091000Y-99759000D01*
X175051000Y-94504000D02*
X175051000Y-99806000D01*
X175011000Y-94458000D02*
X175011000Y-99852000D01*
X174971000Y-94414000D02*
X174971000Y-99896000D01*
X174931000Y-94371000D02*
X174931000Y-99939000D01*
X174891000Y-94329000D02*
X174891000Y-99981000D01*
X174851000Y-94288000D02*
X174851000Y-100022000D01*
X174811000Y-94248000D02*
X174811000Y-100062000D01*
X174771000Y-94210000D02*
X174771000Y-100100000D01*
X174731000Y-94172000D02*
X174731000Y-100138000D01*
X174691000Y-98195000D02*
X174691000Y-100174000D01*
X174691000Y-94136000D02*
X174691000Y-96115000D01*
X174651000Y-98195000D02*
X174651000Y-100210000D01*
X174651000Y-94100000D02*
X174651000Y-96115000D01*
X174611000Y-98195000D02*
X174611000Y-100245000D01*
X174611000Y-94065000D02*
X174611000Y-96115000D01*
X174571000Y-98195000D02*
X174571000Y-100279000D01*
X174571000Y-94031000D02*
X174571000Y-96115000D01*
X174531000Y-98195000D02*
X174531000Y-100311000D01*
X174531000Y-93999000D02*
X174531000Y-96115000D01*
X174491000Y-98195000D02*
X174491000Y-100344000D01*
X174491000Y-93966000D02*
X174491000Y-96115000D01*
X174451000Y-98195000D02*
X174451000Y-100375000D01*
X174451000Y-93935000D02*
X174451000Y-96115000D01*
X174411000Y-98195000D02*
X174411000Y-100405000D01*
X174411000Y-93905000D02*
X174411000Y-96115000D01*
X174371000Y-98195000D02*
X174371000Y-100435000D01*
X174371000Y-93875000D02*
X174371000Y-96115000D01*
X174331000Y-98195000D02*
X174331000Y-100464000D01*
X174331000Y-93846000D02*
X174331000Y-96115000D01*
X174291000Y-98195000D02*
X174291000Y-100493000D01*
X174291000Y-93817000D02*
X174291000Y-96115000D01*
X174251000Y-98195000D02*
X174251000Y-100520000D01*
X174251000Y-93790000D02*
X174251000Y-96115000D01*
X174211000Y-98195000D02*
X174211000Y-100547000D01*
X174211000Y-93763000D02*
X174211000Y-96115000D01*
X174171000Y-98195000D02*
X174171000Y-100573000D01*
X174171000Y-93737000D02*
X174171000Y-96115000D01*
X174131000Y-98195000D02*
X174131000Y-100599000D01*
X174131000Y-93711000D02*
X174131000Y-96115000D01*
X174091000Y-98195000D02*
X174091000Y-100624000D01*
X174091000Y-93686000D02*
X174091000Y-96115000D01*
X174051000Y-98195000D02*
X174051000Y-100648000D01*
X174051000Y-93662000D02*
X174051000Y-96115000D01*
X174011000Y-98195000D02*
X174011000Y-100672000D01*
X174011000Y-93638000D02*
X174011000Y-96115000D01*
X173971000Y-98195000D02*
X173971000Y-100695000D01*
X173971000Y-93615000D02*
X173971000Y-96115000D01*
X173931000Y-98195000D02*
X173931000Y-100717000D01*
X173931000Y-93593000D02*
X173931000Y-96115000D01*
X173891000Y-98195000D02*
X173891000Y-100739000D01*
X173891000Y-93571000D02*
X173891000Y-96115000D01*
X173851000Y-98195000D02*
X173851000Y-100761000D01*
X173851000Y-93549000D02*
X173851000Y-96115000D01*
X173811000Y-98195000D02*
X173811000Y-100782000D01*
X173811000Y-93528000D02*
X173811000Y-96115000D01*
X173771000Y-98195000D02*
X173771000Y-100802000D01*
X173771000Y-93508000D02*
X173771000Y-96115000D01*
X173731000Y-98195000D02*
X173731000Y-100821000D01*
X173731000Y-93489000D02*
X173731000Y-96115000D01*
X173691000Y-98195000D02*
X173691000Y-100841000D01*
X173691000Y-93469000D02*
X173691000Y-96115000D01*
X173651000Y-98195000D02*
X173651000Y-100859000D01*
X173651000Y-93451000D02*
X173651000Y-96115000D01*
X173611000Y-98195000D02*
X173611000Y-100877000D01*
X173611000Y-93433000D02*
X173611000Y-96115000D01*
X173571000Y-98195000D02*
X173571000Y-100895000D01*
X173571000Y-93415000D02*
X173571000Y-96115000D01*
X173531000Y-98195000D02*
X173531000Y-100912000D01*
X173531000Y-93398000D02*
X173531000Y-96115000D01*
X173491000Y-98195000D02*
X173491000Y-100929000D01*
X173491000Y-93381000D02*
X173491000Y-96115000D01*
X173451000Y-98195000D02*
X173451000Y-100945000D01*
X173451000Y-93365000D02*
X173451000Y-96115000D01*
X173411000Y-98195000D02*
X173411000Y-100960000D01*
X173411000Y-93350000D02*
X173411000Y-96115000D01*
X173371000Y-98195000D02*
X173371000Y-100976000D01*
X173371000Y-93334000D02*
X173371000Y-96115000D01*
X173331000Y-98195000D02*
X173331000Y-100990000D01*
X173331000Y-93320000D02*
X173331000Y-96115000D01*
X173291000Y-98195000D02*
X173291000Y-101005000D01*
X173291000Y-93305000D02*
X173291000Y-96115000D01*
X173251000Y-98195000D02*
X173251000Y-101018000D01*
X173251000Y-93292000D02*
X173251000Y-96115000D01*
X173211000Y-98195000D02*
X173211000Y-101032000D01*
X173211000Y-93278000D02*
X173211000Y-96115000D01*
X173171000Y-98195000D02*
X173171000Y-101044000D01*
X173171000Y-93266000D02*
X173171000Y-96115000D01*
X173131000Y-98195000D02*
X173131000Y-101057000D01*
X173131000Y-93253000D02*
X173131000Y-96115000D01*
X173091000Y-98195000D02*
X173091000Y-101069000D01*
X173091000Y-93241000D02*
X173091000Y-96115000D01*
X173051000Y-98195000D02*
X173051000Y-101080000D01*
X173051000Y-93230000D02*
X173051000Y-96115000D01*
X173011000Y-98195000D02*
X173011000Y-101091000D01*
X173011000Y-93219000D02*
X173011000Y-96115000D01*
X172971000Y-98195000D02*
X172971000Y-101102000D01*
X172971000Y-93208000D02*
X172971000Y-96115000D01*
X172931000Y-98195000D02*
X172931000Y-101112000D01*
X172931000Y-93198000D02*
X172931000Y-96115000D01*
X172891000Y-98195000D02*
X172891000Y-101122000D01*
X172891000Y-93188000D02*
X172891000Y-96115000D01*
X172851000Y-98195000D02*
X172851000Y-101131000D01*
X172851000Y-93179000D02*
X172851000Y-96115000D01*
X172811000Y-98195000D02*
X172811000Y-101140000D01*
X172811000Y-93170000D02*
X172811000Y-96115000D01*
X172771000Y-98195000D02*
X172771000Y-101149000D01*
X172771000Y-93161000D02*
X172771000Y-96115000D01*
X172731000Y-98195000D02*
X172731000Y-101157000D01*
X172731000Y-93153000D02*
X172731000Y-96115000D01*
X172691000Y-98195000D02*
X172691000Y-101165000D01*
X172691000Y-93145000D02*
X172691000Y-96115000D01*
X172651000Y-98195000D02*
X172651000Y-101172000D01*
X172651000Y-93138000D02*
X172651000Y-96115000D01*
X172610000Y-93131000D02*
X172610000Y-101179000D01*
X172570000Y-93125000D02*
X172570000Y-101185000D01*
X172530000Y-93118000D02*
X172530000Y-101192000D01*
X172490000Y-93113000D02*
X172490000Y-101197000D01*
X172450000Y-93107000D02*
X172450000Y-101203000D01*
X172410000Y-93103000D02*
X172410000Y-101207000D01*
X172370000Y-93098000D02*
X172370000Y-101212000D01*
X172330000Y-93094000D02*
X172330000Y-101216000D01*
X172290000Y-93090000D02*
X172290000Y-101220000D01*
X172250000Y-93087000D02*
X172250000Y-101223000D01*
X172210000Y-93084000D02*
X172210000Y-101226000D01*
X172170000Y-93081000D02*
X172170000Y-101229000D01*
X172130000Y-93079000D02*
X172130000Y-101231000D01*
X172090000Y-93078000D02*
X172090000Y-101232000D01*
X172050000Y-93076000D02*
X172050000Y-101234000D01*
X172010000Y-93075000D02*
X172010000Y-101235000D01*
X171970000Y-93075000D02*
X171970000Y-101235000D01*
X171930000Y-93075000D02*
X171930000Y-101235000D01*
X176050000Y-97155000D02*
G75*
G03*
X176050000Y-97155000I-4120000J0D01*
G01*
G04 #@! TO.C,Y1*
X137700000Y-94870000D02*
X137700000Y-98170000D01*
X137700000Y-98170000D02*
X141700000Y-98170000D01*
G04 #@! TO.C,R4*
X105182936Y-73125000D02*
X105637064Y-73125000D01*
X105182936Y-71655000D02*
X105637064Y-71655000D01*
G04 #@! TO.C,R3*
X100102936Y-73125000D02*
X100557064Y-73125000D01*
X100102936Y-71655000D02*
X100557064Y-71655000D01*
G04 #@! TO.C,R1*
X148817064Y-104675000D02*
X148362936Y-104675000D01*
X148817064Y-106145000D02*
X148362936Y-106145000D01*
G04 #@! TO.C,R2*
X128042936Y-106145000D02*
X128497064Y-106145000D01*
X128042936Y-104675000D02*
X128497064Y-104675000D01*
G04 #@! TO.C,C12*
X144245000Y-96258748D02*
X144245000Y-96781252D01*
X142775000Y-96258748D02*
X142775000Y-96781252D01*
G04 #@! TO.C,C11*
X136625000Y-96258748D02*
X136625000Y-96781252D01*
X135155000Y-96258748D02*
X135155000Y-96781252D01*
G04 #@! TO.C,C7*
X132815000Y-96258748D02*
X132815000Y-96781252D01*
X131345000Y-96258748D02*
X131345000Y-96781252D01*
G04 #@! TO.C,C8*
X138168748Y-80745000D02*
X138691252Y-80745000D01*
X138168748Y-79275000D02*
X138691252Y-79275000D01*
G04 #@! TO.C,C9*
X129913748Y-68045000D02*
X130436252Y-68045000D01*
X129913748Y-66575000D02*
X130436252Y-66575000D01*
G04 #@! TO.C,C4*
X137533748Y-68045000D02*
X138056252Y-68045000D01*
X137533748Y-66575000D02*
X138056252Y-66575000D01*
G04 #@! TO.C,C5*
X134881252Y-80745000D02*
X134358748Y-80745000D01*
X134881252Y-79275000D02*
X134358748Y-79275000D01*
G04 #@! TO.C,C6*
X126738748Y-73125000D02*
X127261252Y-73125000D01*
X126738748Y-71655000D02*
X127261252Y-71655000D01*
G04 #@! TO.C,C1*
X171188748Y-82015000D02*
X171711252Y-82015000D01*
X171188748Y-80545000D02*
X171711252Y-80545000D01*
G04 #@! TO.C,C13*
X129005000Y-96258748D02*
X129005000Y-96781252D01*
X127535000Y-96258748D02*
X127535000Y-96781252D01*
D13*
G04 #@! TO.C,U1*
X130995000Y-91255000D02*
X131220000Y-91255000D01*
X130995000Y-84005000D02*
X131320000Y-84005000D01*
X138245000Y-84005000D02*
X137920000Y-84005000D01*
X138245000Y-91255000D02*
X137920000Y-91255000D01*
X130995000Y-91255000D02*
X130995000Y-90930000D01*
X138245000Y-91255000D02*
X138245000Y-90930000D01*
X138245000Y-84005000D02*
X138245000Y-84330000D01*
X130995000Y-84005000D02*
X130995000Y-84330000D01*
X131220000Y-91255000D02*
X131220000Y-92680000D01*
D12*
G04 #@! TO.C,U2*
X133985000Y-69195000D02*
X130535000Y-69195000D01*
X133985000Y-69195000D02*
X135935000Y-69195000D01*
X133985000Y-74315000D02*
X132035000Y-74315000D01*
X133985000Y-74315000D02*
X135935000Y-74315000D01*
G04 #@! TO.C,J3*
X162090000Y-102980000D02*
X162090000Y-102380000D01*
X160490000Y-102980000D02*
X162090000Y-102980000D01*
X160490000Y-102380000D02*
X160490000Y-102980000D01*
X159550000Y-102980000D02*
X159550000Y-102380000D01*
X157950000Y-102980000D02*
X159550000Y-102980000D01*
X157950000Y-102380000D02*
X157950000Y-102980000D01*
X157010000Y-102980000D02*
X157010000Y-102380000D01*
X155410000Y-102980000D02*
X157010000Y-102980000D01*
X155410000Y-102380000D02*
X155410000Y-102980000D01*
X154470000Y-102980000D02*
X154470000Y-102380000D01*
X152870000Y-102980000D02*
X154470000Y-102980000D01*
X152870000Y-102380000D02*
X152870000Y-102980000D01*
X161040000Y-108400000D02*
X161040000Y-107400000D01*
X153920000Y-108400000D02*
X153920000Y-107400000D01*
X161040000Y-106870000D02*
X161290000Y-107400000D01*
X153920000Y-106870000D02*
X161040000Y-106870000D01*
X153670000Y-107400000D02*
X153920000Y-106870000D01*
X161290000Y-107400000D02*
X161290000Y-108400000D01*
X153670000Y-107400000D02*
X161290000Y-107400000D01*
X153670000Y-108400000D02*
X153670000Y-107400000D01*
X152000000Y-103410000D02*
X152000000Y-107410000D01*
X162670000Y-102380000D02*
X152290000Y-102380000D01*
X162670000Y-108400000D02*
X162670000Y-102380000D01*
X152290000Y-108400000D02*
X162670000Y-108400000D01*
X152290000Y-102380000D02*
X152290000Y-108400000D01*
G04 #@! TO.C,J2*
X144310000Y-102980000D02*
X144310000Y-102380000D01*
X142710000Y-102980000D02*
X144310000Y-102980000D01*
X142710000Y-102380000D02*
X142710000Y-102980000D01*
X141770000Y-102980000D02*
X141770000Y-102380000D01*
X140170000Y-102980000D02*
X141770000Y-102980000D01*
X140170000Y-102380000D02*
X140170000Y-102980000D01*
X139230000Y-102980000D02*
X139230000Y-102380000D01*
X137630000Y-102980000D02*
X139230000Y-102980000D01*
X137630000Y-102380000D02*
X137630000Y-102980000D01*
X136690000Y-102980000D02*
X136690000Y-102380000D01*
X135090000Y-102980000D02*
X136690000Y-102980000D01*
X135090000Y-102380000D02*
X135090000Y-102980000D01*
X134150000Y-102980000D02*
X134150000Y-102380000D01*
X132550000Y-102980000D02*
X134150000Y-102980000D01*
X132550000Y-102380000D02*
X132550000Y-102980000D01*
X143260000Y-108400000D02*
X143260000Y-107400000D01*
X133600000Y-108400000D02*
X133600000Y-107400000D01*
X143260000Y-106870000D02*
X143510000Y-107400000D01*
X133600000Y-106870000D02*
X143260000Y-106870000D01*
X133350000Y-107400000D02*
X133600000Y-106870000D01*
X143510000Y-107400000D02*
X143510000Y-108400000D01*
X133350000Y-107400000D02*
X143510000Y-107400000D01*
X133350000Y-108400000D02*
X133350000Y-107400000D01*
X131680000Y-103410000D02*
X131680000Y-107410000D01*
X144890000Y-102380000D02*
X131970000Y-102380000D01*
X144890000Y-108400000D02*
X144890000Y-102380000D01*
X131970000Y-108400000D02*
X144890000Y-108400000D01*
X131970000Y-102380000D02*
X131970000Y-108400000D01*
G04 #@! TO.C,J4*
X121980000Y-65980000D02*
X121980000Y-67310000D01*
X120650000Y-65980000D02*
X121980000Y-65980000D01*
X121980000Y-68580000D02*
X121980000Y-71180000D01*
X119380000Y-68580000D02*
X121980000Y-68580000D01*
X119380000Y-65980000D02*
X119380000Y-68580000D01*
X121980000Y-71180000D02*
X114240000Y-71180000D01*
X119380000Y-65980000D02*
X114240000Y-65980000D01*
X114240000Y-65980000D02*
X114240000Y-71180000D01*
G04 #@! TO.C,J1*
X168670000Y-77875000D02*
X166930000Y-77875000D01*
X168670000Y-76135000D02*
X168670000Y-77875000D01*
X159230000Y-77635000D02*
X159230000Y-75635000D01*
X162030000Y-77635000D02*
X159230000Y-77635000D01*
X168430000Y-77635000D02*
X165630000Y-77635000D01*
X168430000Y-63035000D02*
X168430000Y-77635000D01*
X159230000Y-63035000D02*
X168430000Y-63035000D01*
X159230000Y-72035000D02*
X159230000Y-63035000D01*
G04 #@! TO.C,D1*
X154265000Y-77205000D02*
X148380000Y-77205000D01*
X148380000Y-77205000D02*
X148380000Y-80275000D01*
X148380000Y-80275000D02*
X154265000Y-80275000D01*
G04 #@! TO.C,A1*
X145920000Y-83690000D02*
X145920000Y-96520000D01*
X166500000Y-83690000D02*
X145920000Y-83690000D01*
X166500000Y-99190000D02*
X166500000Y-83690000D01*
X148590000Y-99190000D02*
X166500000Y-99190000D01*
X148590000Y-96520000D02*
X148590000Y-99190000D01*
X145920000Y-96520000D02*
X148590000Y-96520000D01*
X145920000Y-99190000D02*
X147320000Y-99190000D01*
X145920000Y-97790000D02*
X145920000Y-99190000D01*
X148590000Y-96520000D02*
X166500000Y-96520000D01*
X145920000Y-86360000D02*
X166500000Y-86360000D01*
G04 #@! TO.C,U3*
D13*
X113665095Y-97178880D02*
X113665095Y-97988404D01*
X113712714Y-98083642D01*
X113760333Y-98131261D01*
X113855571Y-98178880D01*
X114046047Y-98178880D01*
X114141285Y-98131261D01*
X114188904Y-98083642D01*
X114236523Y-97988404D01*
X114236523Y-97178880D01*
X114617476Y-97178880D02*
X115236523Y-97178880D01*
X114903190Y-97559833D01*
X115046047Y-97559833D01*
X115141285Y-97607452D01*
X115188904Y-97655071D01*
X115236523Y-97750309D01*
X115236523Y-97988404D01*
X115188904Y-98083642D01*
X115141285Y-98131261D01*
X115046047Y-98178880D01*
X114760333Y-98178880D01*
X114665095Y-98131261D01*
X114617476Y-98083642D01*
G04 #@! TO.C,L1*
X142898833Y-76588880D02*
X142422642Y-76588880D01*
X142422642Y-75588880D01*
X143755976Y-76588880D02*
X143184547Y-76588880D01*
X143470261Y-76588880D02*
X143470261Y-75588880D01*
X143375023Y-75731738D01*
X143279785Y-75826976D01*
X143184547Y-75874595D01*
G04 #@! TO.C,BT1*
X102084285Y-99750571D02*
X102227142Y-99798190D01*
X102274761Y-99845809D01*
X102322380Y-99941047D01*
X102322380Y-100083904D01*
X102274761Y-100179142D01*
X102227142Y-100226761D01*
X102131904Y-100274380D01*
X101750952Y-100274380D01*
X101750952Y-99274380D01*
X102084285Y-99274380D01*
X102179523Y-99322000D01*
X102227142Y-99369619D01*
X102274761Y-99464857D01*
X102274761Y-99560095D01*
X102227142Y-99655333D01*
X102179523Y-99702952D01*
X102084285Y-99750571D01*
X101750952Y-99750571D01*
X102608095Y-99274380D02*
X103179523Y-99274380D01*
X102893809Y-100274380D02*
X102893809Y-99274380D01*
X104036666Y-100274380D02*
X103465238Y-100274380D01*
X103750952Y-100274380D02*
X103750952Y-99274380D01*
X103655714Y-99417238D01*
X103560476Y-99512476D01*
X103465238Y-99560095D01*
X101727142Y-87701380D02*
X101250952Y-87701380D01*
X101250952Y-86701380D01*
X102631904Y-87701380D02*
X102298571Y-87225190D01*
X102060476Y-87701380D02*
X102060476Y-86701380D01*
X102441428Y-86701380D01*
X102536666Y-86749000D01*
X102584285Y-86796619D01*
X102631904Y-86891857D01*
X102631904Y-87034714D01*
X102584285Y-87129952D01*
X102536666Y-87177571D01*
X102441428Y-87225190D01*
X102060476Y-87225190D01*
X103489047Y-87034714D02*
X103489047Y-87701380D01*
X103250952Y-86653761D02*
X103012857Y-87368047D01*
X103631904Y-87368047D01*
X104441428Y-87034714D02*
X104441428Y-87701380D01*
X104203333Y-86653761D02*
X103965238Y-87368047D01*
X104584285Y-87368047D01*
G04 #@! TO.C,C10*
X123662142Y-75752142D02*
X123614523Y-75799761D01*
X123471666Y-75847380D01*
X123376428Y-75847380D01*
X123233571Y-75799761D01*
X123138333Y-75704523D01*
X123090714Y-75609285D01*
X123043095Y-75418809D01*
X123043095Y-75275952D01*
X123090714Y-75085476D01*
X123138333Y-74990238D01*
X123233571Y-74895000D01*
X123376428Y-74847380D01*
X123471666Y-74847380D01*
X123614523Y-74895000D01*
X123662142Y-74942619D01*
X124614523Y-75847380D02*
X124043095Y-75847380D01*
X124328809Y-75847380D02*
X124328809Y-74847380D01*
X124233571Y-74990238D01*
X124138333Y-75085476D01*
X124043095Y-75133095D01*
X125233571Y-74847380D02*
X125328809Y-74847380D01*
X125424047Y-74895000D01*
X125471666Y-74942619D01*
X125519285Y-75037857D01*
X125566904Y-75228333D01*
X125566904Y-75466428D01*
X125519285Y-75656904D01*
X125471666Y-75752142D01*
X125424047Y-75799761D01*
X125328809Y-75847380D01*
X125233571Y-75847380D01*
X125138333Y-75799761D01*
X125090714Y-75752142D01*
X125043095Y-75656904D01*
X124995476Y-75466428D01*
X124995476Y-75228333D01*
X125043095Y-75037857D01*
X125090714Y-74942619D01*
X125138333Y-74895000D01*
X125233571Y-74847380D01*
G04 #@! TO.C,C3*
X168108333Y-83542142D02*
X168060714Y-83589761D01*
X167917857Y-83637380D01*
X167822619Y-83637380D01*
X167679761Y-83589761D01*
X167584523Y-83494523D01*
X167536904Y-83399285D01*
X167489285Y-83208809D01*
X167489285Y-83065952D01*
X167536904Y-82875476D01*
X167584523Y-82780238D01*
X167679761Y-82685000D01*
X167822619Y-82637380D01*
X167917857Y-82637380D01*
X168060714Y-82685000D01*
X168108333Y-82732619D01*
X168441666Y-82637380D02*
X169060714Y-82637380D01*
X168727380Y-83018333D01*
X168870238Y-83018333D01*
X168965476Y-83065952D01*
X169013095Y-83113571D01*
X169060714Y-83208809D01*
X169060714Y-83446904D01*
X169013095Y-83542142D01*
X168965476Y-83589761D01*
X168870238Y-83637380D01*
X168584523Y-83637380D01*
X168489285Y-83589761D01*
X168441666Y-83542142D01*
G04 #@! TO.C,C2*
X168743333Y-93067142D02*
X168695714Y-93114761D01*
X168552857Y-93162380D01*
X168457619Y-93162380D01*
X168314761Y-93114761D01*
X168219523Y-93019523D01*
X168171904Y-92924285D01*
X168124285Y-92733809D01*
X168124285Y-92590952D01*
X168171904Y-92400476D01*
X168219523Y-92305238D01*
X168314761Y-92210000D01*
X168457619Y-92162380D01*
X168552857Y-92162380D01*
X168695714Y-92210000D01*
X168743333Y-92257619D01*
X169124285Y-92257619D02*
X169171904Y-92210000D01*
X169267142Y-92162380D01*
X169505238Y-92162380D01*
X169600476Y-92210000D01*
X169648095Y-92257619D01*
X169695714Y-92352857D01*
X169695714Y-92448095D01*
X169648095Y-92590952D01*
X169076666Y-93162380D01*
X169695714Y-93162380D01*
G04 #@! TO.C,Y1*
X139223809Y-99036190D02*
X139223809Y-99512380D01*
X138890476Y-98512380D02*
X139223809Y-99036190D01*
X139557142Y-98512380D01*
X140414285Y-99512380D02*
X139842857Y-99512380D01*
X140128571Y-99512380D02*
X140128571Y-98512380D01*
X140033333Y-98655238D01*
X139938095Y-98750476D01*
X139842857Y-98798095D01*
G04 #@! TO.C,R4*
X105243333Y-71192380D02*
X104910000Y-70716190D01*
X104671904Y-71192380D02*
X104671904Y-70192380D01*
X105052857Y-70192380D01*
X105148095Y-70240000D01*
X105195714Y-70287619D01*
X105243333Y-70382857D01*
X105243333Y-70525714D01*
X105195714Y-70620952D01*
X105148095Y-70668571D01*
X105052857Y-70716190D01*
X104671904Y-70716190D01*
X106100476Y-70525714D02*
X106100476Y-71192380D01*
X105862380Y-70144761D02*
X105624285Y-70859047D01*
X106243333Y-70859047D01*
G04 #@! TO.C,R3*
X100163333Y-71192380D02*
X99830000Y-70716190D01*
X99591904Y-71192380D02*
X99591904Y-70192380D01*
X99972857Y-70192380D01*
X100068095Y-70240000D01*
X100115714Y-70287619D01*
X100163333Y-70382857D01*
X100163333Y-70525714D01*
X100115714Y-70620952D01*
X100068095Y-70668571D01*
X99972857Y-70716190D01*
X99591904Y-70716190D01*
X100496666Y-70192380D02*
X101115714Y-70192380D01*
X100782380Y-70573333D01*
X100925238Y-70573333D01*
X101020476Y-70620952D01*
X101068095Y-70668571D01*
X101115714Y-70763809D01*
X101115714Y-71001904D01*
X101068095Y-71097142D01*
X101020476Y-71144761D01*
X100925238Y-71192380D01*
X100639523Y-71192380D01*
X100544285Y-71144761D01*
X100496666Y-71097142D01*
G04 #@! TO.C,R1*
X148423333Y-103957380D02*
X148090000Y-103481190D01*
X147851904Y-103957380D02*
X147851904Y-102957380D01*
X148232857Y-102957380D01*
X148328095Y-103005000D01*
X148375714Y-103052619D01*
X148423333Y-103147857D01*
X148423333Y-103290714D01*
X148375714Y-103385952D01*
X148328095Y-103433571D01*
X148232857Y-103481190D01*
X147851904Y-103481190D01*
X149375714Y-103957380D02*
X148804285Y-103957380D01*
X149090000Y-103957380D02*
X149090000Y-102957380D01*
X148994761Y-103100238D01*
X148899523Y-103195476D01*
X148804285Y-103243095D01*
G04 #@! TO.C,R2*
X128103333Y-104212380D02*
X127770000Y-103736190D01*
X127531904Y-104212380D02*
X127531904Y-103212380D01*
X127912857Y-103212380D01*
X128008095Y-103260000D01*
X128055714Y-103307619D01*
X128103333Y-103402857D01*
X128103333Y-103545714D01*
X128055714Y-103640952D01*
X128008095Y-103688571D01*
X127912857Y-103736190D01*
X127531904Y-103736190D01*
X128484285Y-103307619D02*
X128531904Y-103260000D01*
X128627142Y-103212380D01*
X128865238Y-103212380D01*
X128960476Y-103260000D01*
X129008095Y-103307619D01*
X129055714Y-103402857D01*
X129055714Y-103498095D01*
X129008095Y-103640952D01*
X128436666Y-104212380D01*
X129055714Y-104212380D01*
G04 #@! TO.C,C12*
X142867142Y-99417142D02*
X142819523Y-99464761D01*
X142676666Y-99512380D01*
X142581428Y-99512380D01*
X142438571Y-99464761D01*
X142343333Y-99369523D01*
X142295714Y-99274285D01*
X142248095Y-99083809D01*
X142248095Y-98940952D01*
X142295714Y-98750476D01*
X142343333Y-98655238D01*
X142438571Y-98560000D01*
X142581428Y-98512380D01*
X142676666Y-98512380D01*
X142819523Y-98560000D01*
X142867142Y-98607619D01*
X143819523Y-99512380D02*
X143248095Y-99512380D01*
X143533809Y-99512380D02*
X143533809Y-98512380D01*
X143438571Y-98655238D01*
X143343333Y-98750476D01*
X143248095Y-98798095D01*
X144200476Y-98607619D02*
X144248095Y-98560000D01*
X144343333Y-98512380D01*
X144581428Y-98512380D01*
X144676666Y-98560000D01*
X144724285Y-98607619D01*
X144771904Y-98702857D01*
X144771904Y-98798095D01*
X144724285Y-98940952D01*
X144152857Y-99512380D01*
X144771904Y-99512380D01*
G04 #@! TO.C,C11*
X135247142Y-99417142D02*
X135199523Y-99464761D01*
X135056666Y-99512380D01*
X134961428Y-99512380D01*
X134818571Y-99464761D01*
X134723333Y-99369523D01*
X134675714Y-99274285D01*
X134628095Y-99083809D01*
X134628095Y-98940952D01*
X134675714Y-98750476D01*
X134723333Y-98655238D01*
X134818571Y-98560000D01*
X134961428Y-98512380D01*
X135056666Y-98512380D01*
X135199523Y-98560000D01*
X135247142Y-98607619D01*
X136199523Y-99512380D02*
X135628095Y-99512380D01*
X135913809Y-99512380D02*
X135913809Y-98512380D01*
X135818571Y-98655238D01*
X135723333Y-98750476D01*
X135628095Y-98798095D01*
X137151904Y-99512380D02*
X136580476Y-99512380D01*
X136866190Y-99512380D02*
X136866190Y-98512380D01*
X136770952Y-98655238D01*
X136675714Y-98750476D01*
X136580476Y-98798095D01*
G04 #@! TO.C,C7*
X131913333Y-99417142D02*
X131865714Y-99464761D01*
X131722857Y-99512380D01*
X131627619Y-99512380D01*
X131484761Y-99464761D01*
X131389523Y-99369523D01*
X131341904Y-99274285D01*
X131294285Y-99083809D01*
X131294285Y-98940952D01*
X131341904Y-98750476D01*
X131389523Y-98655238D01*
X131484761Y-98560000D01*
X131627619Y-98512380D01*
X131722857Y-98512380D01*
X131865714Y-98560000D01*
X131913333Y-98607619D01*
X132246666Y-98512380D02*
X132913333Y-98512380D01*
X132484761Y-99512380D01*
G04 #@! TO.C,C8*
X138263333Y-78687142D02*
X138215714Y-78734761D01*
X138072857Y-78782380D01*
X137977619Y-78782380D01*
X137834761Y-78734761D01*
X137739523Y-78639523D01*
X137691904Y-78544285D01*
X137644285Y-78353809D01*
X137644285Y-78210952D01*
X137691904Y-78020476D01*
X137739523Y-77925238D01*
X137834761Y-77830000D01*
X137977619Y-77782380D01*
X138072857Y-77782380D01*
X138215714Y-77830000D01*
X138263333Y-77877619D01*
X138834761Y-78210952D02*
X138739523Y-78163333D01*
X138691904Y-78115714D01*
X138644285Y-78020476D01*
X138644285Y-77972857D01*
X138691904Y-77877619D01*
X138739523Y-77830000D01*
X138834761Y-77782380D01*
X139025238Y-77782380D01*
X139120476Y-77830000D01*
X139168095Y-77877619D01*
X139215714Y-77972857D01*
X139215714Y-78020476D01*
X139168095Y-78115714D01*
X139120476Y-78163333D01*
X139025238Y-78210952D01*
X138834761Y-78210952D01*
X138739523Y-78258571D01*
X138691904Y-78306190D01*
X138644285Y-78401428D01*
X138644285Y-78591904D01*
X138691904Y-78687142D01*
X138739523Y-78734761D01*
X138834761Y-78782380D01*
X139025238Y-78782380D01*
X139120476Y-78734761D01*
X139168095Y-78687142D01*
X139215714Y-78591904D01*
X139215714Y-78401428D01*
X139168095Y-78306190D01*
X139120476Y-78258571D01*
X139025238Y-78210952D01*
G04 #@! TO.C,C9*
X130008333Y-65987142D02*
X129960714Y-66034761D01*
X129817857Y-66082380D01*
X129722619Y-66082380D01*
X129579761Y-66034761D01*
X129484523Y-65939523D01*
X129436904Y-65844285D01*
X129389285Y-65653809D01*
X129389285Y-65510952D01*
X129436904Y-65320476D01*
X129484523Y-65225238D01*
X129579761Y-65130000D01*
X129722619Y-65082380D01*
X129817857Y-65082380D01*
X129960714Y-65130000D01*
X130008333Y-65177619D01*
X130484523Y-66082380D02*
X130675000Y-66082380D01*
X130770238Y-66034761D01*
X130817857Y-65987142D01*
X130913095Y-65844285D01*
X130960714Y-65653809D01*
X130960714Y-65272857D01*
X130913095Y-65177619D01*
X130865476Y-65130000D01*
X130770238Y-65082380D01*
X130579761Y-65082380D01*
X130484523Y-65130000D01*
X130436904Y-65177619D01*
X130389285Y-65272857D01*
X130389285Y-65510952D01*
X130436904Y-65606190D01*
X130484523Y-65653809D01*
X130579761Y-65701428D01*
X130770238Y-65701428D01*
X130865476Y-65653809D01*
X130913095Y-65606190D01*
X130960714Y-65510952D01*
G04 #@! TO.C,C4*
X137628333Y-65987142D02*
X137580714Y-66034761D01*
X137437857Y-66082380D01*
X137342619Y-66082380D01*
X137199761Y-66034761D01*
X137104523Y-65939523D01*
X137056904Y-65844285D01*
X137009285Y-65653809D01*
X137009285Y-65510952D01*
X137056904Y-65320476D01*
X137104523Y-65225238D01*
X137199761Y-65130000D01*
X137342619Y-65082380D01*
X137437857Y-65082380D01*
X137580714Y-65130000D01*
X137628333Y-65177619D01*
X138485476Y-65415714D02*
X138485476Y-66082380D01*
X138247380Y-65034761D02*
X138009285Y-65749047D01*
X138628333Y-65749047D01*
G04 #@! TO.C,C5*
X134453333Y-78687142D02*
X134405714Y-78734761D01*
X134262857Y-78782380D01*
X134167619Y-78782380D01*
X134024761Y-78734761D01*
X133929523Y-78639523D01*
X133881904Y-78544285D01*
X133834285Y-78353809D01*
X133834285Y-78210952D01*
X133881904Y-78020476D01*
X133929523Y-77925238D01*
X134024761Y-77830000D01*
X134167619Y-77782380D01*
X134262857Y-77782380D01*
X134405714Y-77830000D01*
X134453333Y-77877619D01*
X135358095Y-77782380D02*
X134881904Y-77782380D01*
X134834285Y-78258571D01*
X134881904Y-78210952D01*
X134977142Y-78163333D01*
X135215238Y-78163333D01*
X135310476Y-78210952D01*
X135358095Y-78258571D01*
X135405714Y-78353809D01*
X135405714Y-78591904D01*
X135358095Y-78687142D01*
X135310476Y-78734761D01*
X135215238Y-78782380D01*
X134977142Y-78782380D01*
X134881904Y-78734761D01*
X134834285Y-78687142D01*
G04 #@! TO.C,C6*
X125563333Y-70842142D02*
X125515714Y-70889761D01*
X125372857Y-70937380D01*
X125277619Y-70937380D01*
X125134761Y-70889761D01*
X125039523Y-70794523D01*
X124991904Y-70699285D01*
X124944285Y-70508809D01*
X124944285Y-70365952D01*
X124991904Y-70175476D01*
X125039523Y-70080238D01*
X125134761Y-69985000D01*
X125277619Y-69937380D01*
X125372857Y-69937380D01*
X125515714Y-69985000D01*
X125563333Y-70032619D01*
X126420476Y-69937380D02*
X126230000Y-69937380D01*
X126134761Y-69985000D01*
X126087142Y-70032619D01*
X125991904Y-70175476D01*
X125944285Y-70365952D01*
X125944285Y-70746904D01*
X125991904Y-70842142D01*
X126039523Y-70889761D01*
X126134761Y-70937380D01*
X126325238Y-70937380D01*
X126420476Y-70889761D01*
X126468095Y-70842142D01*
X126515714Y-70746904D01*
X126515714Y-70508809D01*
X126468095Y-70413571D01*
X126420476Y-70365952D01*
X126325238Y-70318333D01*
X126134761Y-70318333D01*
X126039523Y-70365952D01*
X125991904Y-70413571D01*
X125944285Y-70508809D01*
G04 #@! TO.C,C1*
X168108333Y-81637142D02*
X168060714Y-81684761D01*
X167917857Y-81732380D01*
X167822619Y-81732380D01*
X167679761Y-81684761D01*
X167584523Y-81589523D01*
X167536904Y-81494285D01*
X167489285Y-81303809D01*
X167489285Y-81160952D01*
X167536904Y-80970476D01*
X167584523Y-80875238D01*
X167679761Y-80780000D01*
X167822619Y-80732380D01*
X167917857Y-80732380D01*
X168060714Y-80780000D01*
X168108333Y-80827619D01*
X169060714Y-81732380D02*
X168489285Y-81732380D01*
X168775000Y-81732380D02*
X168775000Y-80732380D01*
X168679761Y-80875238D01*
X168584523Y-80970476D01*
X168489285Y-81018095D01*
G04 #@! TO.C,C13*
X127627142Y-99417142D02*
X127579523Y-99464761D01*
X127436666Y-99512380D01*
X127341428Y-99512380D01*
X127198571Y-99464761D01*
X127103333Y-99369523D01*
X127055714Y-99274285D01*
X127008095Y-99083809D01*
X127008095Y-98940952D01*
X127055714Y-98750476D01*
X127103333Y-98655238D01*
X127198571Y-98560000D01*
X127341428Y-98512380D01*
X127436666Y-98512380D01*
X127579523Y-98560000D01*
X127627142Y-98607619D01*
X128579523Y-99512380D02*
X128008095Y-99512380D01*
X128293809Y-99512380D02*
X128293809Y-98512380D01*
X128198571Y-98655238D01*
X128103333Y-98750476D01*
X128008095Y-98798095D01*
X128912857Y-98512380D02*
X129531904Y-98512380D01*
X129198571Y-98893333D01*
X129341428Y-98893333D01*
X129436666Y-98940952D01*
X129484285Y-98988571D01*
X129531904Y-99083809D01*
X129531904Y-99321904D01*
X129484285Y-99417142D01*
X129436666Y-99464761D01*
X129341428Y-99512380D01*
X129055714Y-99512380D01*
X128960476Y-99464761D01*
X128912857Y-99417142D01*
G04 #@! TO.C,U1*
X129413095Y-93368880D02*
X129413095Y-94178404D01*
X129460714Y-94273642D01*
X129508333Y-94321261D01*
X129603571Y-94368880D01*
X129794047Y-94368880D01*
X129889285Y-94321261D01*
X129936904Y-94273642D01*
X129984523Y-94178404D01*
X129984523Y-93368880D01*
X130984523Y-94368880D02*
X130413095Y-94368880D01*
X130698809Y-94368880D02*
X130698809Y-93368880D01*
X130603571Y-93511738D01*
X130508333Y-93606976D01*
X130413095Y-93654595D01*
G04 #@! TO.C,U2*
X133223095Y-67807380D02*
X133223095Y-68616904D01*
X133270714Y-68712142D01*
X133318333Y-68759761D01*
X133413571Y-68807380D01*
X133604047Y-68807380D01*
X133699285Y-68759761D01*
X133746904Y-68712142D01*
X133794523Y-68616904D01*
X133794523Y-67807380D01*
X134223095Y-67902619D02*
X134270714Y-67855000D01*
X134365952Y-67807380D01*
X134604047Y-67807380D01*
X134699285Y-67855000D01*
X134746904Y-67902619D01*
X134794523Y-67997857D01*
X134794523Y-68093095D01*
X134746904Y-68235952D01*
X134175476Y-68807380D01*
X134794523Y-68807380D01*
G04 #@! TO.C,J3*
X151431666Y-109180380D02*
X151431666Y-109894666D01*
X151384047Y-110037523D01*
X151288809Y-110132761D01*
X151145952Y-110180380D01*
X151050714Y-110180380D01*
X151812619Y-109180380D02*
X152431666Y-109180380D01*
X152098333Y-109561333D01*
X152241190Y-109561333D01*
X152336428Y-109608952D01*
X152384047Y-109656571D01*
X152431666Y-109751809D01*
X152431666Y-109989904D01*
X152384047Y-110085142D01*
X152336428Y-110132761D01*
X152241190Y-110180380D01*
X151955476Y-110180380D01*
X151860238Y-110132761D01*
X151812619Y-110085142D01*
G04 #@! TO.C,J2*
X130603666Y-108926380D02*
X130603666Y-109640666D01*
X130556047Y-109783523D01*
X130460809Y-109878761D01*
X130317952Y-109926380D01*
X130222714Y-109926380D01*
X131032238Y-109021619D02*
X131079857Y-108974000D01*
X131175095Y-108926380D01*
X131413190Y-108926380D01*
X131508428Y-108974000D01*
X131556047Y-109021619D01*
X131603666Y-109116857D01*
X131603666Y-109212095D01*
X131556047Y-109354952D01*
X130984619Y-109926380D01*
X131603666Y-109926380D01*
G04 #@! TO.C,J4*
X123047166Y-66000380D02*
X123047166Y-66714666D01*
X122999547Y-66857523D01*
X122904309Y-66952761D01*
X122761452Y-67000380D01*
X122666214Y-67000380D01*
X123951928Y-66333714D02*
X123951928Y-67000380D01*
X123713833Y-65952761D02*
X123475738Y-66667047D01*
X124094785Y-66667047D01*
G04 #@! TO.C,J1*
X158734166Y-78319380D02*
X158734166Y-79033666D01*
X158686547Y-79176523D01*
X158591309Y-79271761D01*
X158448452Y-79319380D01*
X158353214Y-79319380D01*
X159734166Y-79319380D02*
X159162738Y-79319380D01*
X159448452Y-79319380D02*
X159448452Y-78319380D01*
X159353214Y-78462238D01*
X159257976Y-78557476D01*
X159162738Y-78605095D01*
G04 #@! TO.C,D1*
X146518404Y-79255880D02*
X146518404Y-78255880D01*
X146756500Y-78255880D01*
X146899357Y-78303500D01*
X146994595Y-78398738D01*
X147042214Y-78493976D01*
X147089833Y-78684452D01*
X147089833Y-78827309D01*
X147042214Y-79017785D01*
X146994595Y-79113023D01*
X146899357Y-79208261D01*
X146756500Y-79255880D01*
X146518404Y-79255880D01*
X148042214Y-79255880D02*
X147470785Y-79255880D01*
X147756500Y-79255880D02*
X147756500Y-78255880D01*
X147661261Y-78398738D01*
X147566023Y-78493976D01*
X147470785Y-78541595D01*
G04 #@! TO.C,A1*
X146796214Y-100433166D02*
X147272404Y-100433166D01*
X146700976Y-100718880D02*
X147034309Y-99718880D01*
X147367642Y-100718880D01*
X148224785Y-100718880D02*
X147653357Y-100718880D01*
X147939071Y-100718880D02*
X147939071Y-99718880D01*
X147843833Y-99861738D01*
X147748595Y-99956976D01*
X147653357Y-100004595D01*
G04 #@! TD*
M02*
