G04 #@! TF.GenerationSoftware,KiCad,Pcbnew,(5.1.10)-1*
G04 #@! TF.CreationDate,2021-11-16T09:58:40-05:00*
G04 #@! TF.ProjectId,KittyCaddyV2,4b697474-7943-4616-9464-7956322e6b69,rev?*
G04 #@! TF.SameCoordinates,Original*
G04 #@! TF.FileFunction,Soldermask,Bot*
G04 #@! TF.FilePolarity,Negative*
%FSLAX46Y46*%
G04 Gerber Fmt 4.6, Leading zero omitted, Abs format (unit mm)*
G04 Created by KiCad (PCBNEW (5.1.10)-1) date 2021-11-16 09:58:40*
%MOMM*%
%LPD*%
G01*
G04 APERTURE LIST*
%ADD10C,3.000000*%
%ADD11C,2.500000*%
%ADD12C,1.600000*%
%ADD13R,1.600000X1.600000*%
%ADD14C,6.000000*%
%ADD15C,2.000000*%
%ADD16O,1.740000X2.190000*%
%ADD17O,1.700000X1.700000*%
%ADD18R,1.700000X1.700000*%
%ADD19C,2.600000*%
%ADD20R,2.600000X2.600000*%
%ADD21O,1.600000X1.600000*%
G04 APERTURE END LIST*
D10*
G04 #@! TO.C,TP3*
X96202500Y-67691000D03*
G04 #@! TD*
G04 #@! TO.C,TP2*
X102870000Y-67564000D03*
G04 #@! TD*
G04 #@! TO.C,TP1*
X172466000Y-77279500D03*
G04 #@! TD*
D11*
G04 #@! TO.C,BT1*
X96270000Y-93345000D03*
X109470000Y-93345000D03*
G04 #@! TD*
D12*
G04 #@! TO.C,C10*
X126055000Y-80645000D03*
D13*
X122555000Y-80645000D03*
G04 #@! TD*
D12*
G04 #@! TO.C,C3*
X173680000Y-87630000D03*
D13*
X170180000Y-87630000D03*
G04 #@! TD*
D12*
G04 #@! TO.C,C2*
X173680000Y-97155000D03*
D13*
X170180000Y-97155000D03*
G04 #@! TD*
D14*
G04 #@! TO.C,H4*
X172720000Y-106045000D03*
G04 #@! TD*
G04 #@! TO.C,H3*
X83820000Y-106045000D03*
G04 #@! TD*
G04 #@! TO.C,H2*
X172720000Y-69850000D03*
G04 #@! TD*
G04 #@! TO.C,H1*
X83820000Y-69850000D03*
G04 #@! TD*
D15*
G04 #@! TO.C,SW3*
X89000400Y-100395600D03*
X89000400Y-95895600D03*
X82500400Y-100395600D03*
X82500400Y-95895600D03*
G04 #@! TD*
G04 #@! TO.C,SW2*
X89000400Y-90235600D03*
X89000400Y-85735600D03*
X82500400Y-90235600D03*
X82500400Y-85735600D03*
G04 #@! TD*
G04 #@! TO.C,SW1*
X89000400Y-80075600D03*
X89000400Y-75575600D03*
X82500400Y-80075600D03*
X82500400Y-75575600D03*
G04 #@! TD*
D16*
G04 #@! TO.C,J3*
X161290000Y-105410000D03*
X158750000Y-105410000D03*
X156210000Y-105410000D03*
G36*
G01*
X152800000Y-106255001D02*
X152800000Y-104564999D01*
G75*
G02*
X153049999Y-104315000I249999J0D01*
G01*
X154290001Y-104315000D01*
G75*
G02*
X154540000Y-104564999I0J-249999D01*
G01*
X154540000Y-106255001D01*
G75*
G02*
X154290001Y-106505000I-249999J0D01*
G01*
X153049999Y-106505000D01*
G75*
G02*
X152800000Y-106255001I0J249999D01*
G01*
G37*
G04 #@! TD*
G04 #@! TO.C,J2*
X143510000Y-105410000D03*
X140970000Y-105410000D03*
X138430000Y-105410000D03*
X135890000Y-105410000D03*
G36*
G01*
X132480000Y-106255001D02*
X132480000Y-104564999D01*
G75*
G02*
X132729999Y-104315000I249999J0D01*
G01*
X133970001Y-104315000D01*
G75*
G02*
X134220000Y-104564999I0J-249999D01*
G01*
X134220000Y-106255001D01*
G75*
G02*
X133970001Y-106505000I-249999J0D01*
G01*
X132729999Y-106505000D01*
G75*
G02*
X132480000Y-106255001I0J249999D01*
G01*
G37*
G04 #@! TD*
D17*
G04 #@! TO.C,J4*
X115570000Y-69850000D03*
X115570000Y-67310000D03*
X118110000Y-69850000D03*
X118110000Y-67310000D03*
X120650000Y-69850000D03*
D18*
X120650000Y-67310000D03*
G04 #@! TD*
D19*
G04 #@! TO.C,J1*
X159130000Y-73835000D03*
X163830000Y-70835000D03*
D20*
X163830000Y-76835000D03*
G04 #@! TD*
D18*
G04 #@! TO.C,DS1*
X109220000Y-77867000D03*
D17*
X106680000Y-77867000D03*
X104140000Y-77867000D03*
X101600000Y-77867000D03*
D10*
X117160000Y-78524000D03*
X93660000Y-78524000D03*
X93660000Y-102324000D03*
X117160000Y-102324000D03*
G04 #@! TD*
D21*
G04 #@! TO.C,A1*
X147320000Y-85090000D03*
X165100000Y-97790000D03*
X149860000Y-85090000D03*
X162560000Y-97790000D03*
X152400000Y-85090000D03*
X160020000Y-97790000D03*
X154940000Y-85090000D03*
X157480000Y-97790000D03*
X157480000Y-85090000D03*
X154940000Y-97790000D03*
X160020000Y-85090000D03*
X152400000Y-97790000D03*
X162560000Y-85090000D03*
X149860000Y-97790000D03*
X165100000Y-85090000D03*
D13*
X147320000Y-97790000D03*
G04 #@! TD*
M02*
