G04 #@! TF.GenerationSoftware,KiCad,Pcbnew,(5.1.10)-1*
G04 #@! TF.CreationDate,2021-11-16T09:58:39-05:00*
G04 #@! TF.ProjectId,KittyCaddyV2,4b697474-7943-4616-9464-7956322e6b69,rev?*
G04 #@! TF.SameCoordinates,Original*
G04 #@! TF.FileFunction,Copper,L2,Bot*
G04 #@! TF.FilePolarity,Positive*
%FSLAX46Y46*%
G04 Gerber Fmt 4.6, Leading zero omitted, Abs format (unit mm)*
G04 Created by KiCad (PCBNEW (5.1.10)-1) date 2021-11-16 09:58:39*
%MOMM*%
%LPD*%
G01*
G04 APERTURE LIST*
G04 #@! TA.AperFunction,ComponentPad*
%ADD10C,3.000000*%
G04 #@! TD*
G04 #@! TA.AperFunction,ComponentPad*
%ADD11C,2.500000*%
G04 #@! TD*
G04 #@! TA.AperFunction,ComponentPad*
%ADD12C,1.600000*%
G04 #@! TD*
G04 #@! TA.AperFunction,ComponentPad*
%ADD13R,1.600000X1.600000*%
G04 #@! TD*
G04 #@! TA.AperFunction,ComponentPad*
%ADD14C,6.000000*%
G04 #@! TD*
G04 #@! TA.AperFunction,ComponentPad*
%ADD15C,2.000000*%
G04 #@! TD*
G04 #@! TA.AperFunction,ComponentPad*
%ADD16O,1.740000X2.190000*%
G04 #@! TD*
G04 #@! TA.AperFunction,ComponentPad*
%ADD17O,1.700000X1.700000*%
G04 #@! TD*
G04 #@! TA.AperFunction,ComponentPad*
%ADD18R,1.700000X1.700000*%
G04 #@! TD*
G04 #@! TA.AperFunction,ComponentPad*
%ADD19C,2.600000*%
G04 #@! TD*
G04 #@! TA.AperFunction,ComponentPad*
%ADD20R,2.600000X2.600000*%
G04 #@! TD*
G04 #@! TA.AperFunction,ComponentPad*
%ADD21O,1.600000X1.600000*%
G04 #@! TD*
G04 #@! TA.AperFunction,ViaPad*
%ADD22C,0.800000*%
G04 #@! TD*
G04 #@! TA.AperFunction,Conductor*
%ADD23C,1.000000*%
G04 #@! TD*
G04 #@! TA.AperFunction,Conductor*
%ADD24C,0.250000*%
G04 #@! TD*
G04 #@! TA.AperFunction,Conductor*
%ADD25C,0.254000*%
G04 #@! TD*
G04 #@! TA.AperFunction,Conductor*
%ADD26C,0.100000*%
G04 #@! TD*
G04 APERTURE END LIST*
D10*
G04 #@! TO.P,TP3,1*
G04 #@! TO.N,GND*
X96202500Y-67691000D03*
G04 #@! TD*
G04 #@! TO.P,TP2,1*
G04 #@! TO.N,+5V*
X102870000Y-67564000D03*
G04 #@! TD*
G04 #@! TO.P,TP1,1*
G04 #@! TO.N,+12V*
X172466000Y-77279500D03*
G04 #@! TD*
D11*
G04 #@! TO.P,BT1,1*
G04 #@! TO.N,/VBAT*
X96270000Y-93345000D03*
X109470000Y-93345000D03*
G04 #@! TD*
D12*
G04 #@! TO.P,C10,2*
G04 #@! TO.N,GND*
X126055000Y-80645000D03*
D13*
G04 #@! TO.P,C10,1*
G04 #@! TO.N,+5V*
X122555000Y-80645000D03*
G04 #@! TD*
D12*
G04 #@! TO.P,C3,2*
G04 #@! TO.N,GND*
X173680000Y-87630000D03*
D13*
G04 #@! TO.P,C3,1*
G04 #@! TO.N,+12V*
X170180000Y-87630000D03*
G04 #@! TD*
D12*
G04 #@! TO.P,C2,2*
G04 #@! TO.N,GND*
X173680000Y-97155000D03*
D13*
G04 #@! TO.P,C2,1*
G04 #@! TO.N,+12V*
X170180000Y-97155000D03*
G04 #@! TD*
D14*
G04 #@! TO.P,H4,1*
G04 #@! TO.N,N/C*
X172720000Y-106045000D03*
G04 #@! TD*
G04 #@! TO.P,H3,1*
G04 #@! TO.N,N/C*
X83820000Y-106045000D03*
G04 #@! TD*
G04 #@! TO.P,H2,1*
G04 #@! TO.N,N/C*
X172720000Y-69850000D03*
G04 #@! TD*
G04 #@! TO.P,H1,1*
G04 #@! TO.N,N/C*
X83820000Y-69850000D03*
G04 #@! TD*
D15*
G04 #@! TO.P,SW3,1*
G04 #@! TO.N,GND*
X89000400Y-100395600D03*
G04 #@! TO.P,SW3,2*
G04 #@! TO.N,SW_DOWN*
X89000400Y-95895600D03*
G04 #@! TO.P,SW3,1*
G04 #@! TO.N,GND*
X82500400Y-100395600D03*
G04 #@! TO.P,SW3,2*
G04 #@! TO.N,SW_DOWN*
X82500400Y-95895600D03*
G04 #@! TD*
G04 #@! TO.P,SW2,1*
G04 #@! TO.N,GND*
X89000400Y-90235600D03*
G04 #@! TO.P,SW2,2*
G04 #@! TO.N,SW_MID*
X89000400Y-85735600D03*
G04 #@! TO.P,SW2,1*
G04 #@! TO.N,GND*
X82500400Y-90235600D03*
G04 #@! TO.P,SW2,2*
G04 #@! TO.N,SW_MID*
X82500400Y-85735600D03*
G04 #@! TD*
G04 #@! TO.P,SW1,1*
G04 #@! TO.N,GND*
X89000400Y-80075600D03*
G04 #@! TO.P,SW1,2*
G04 #@! TO.N,SW_UP*
X89000400Y-75575600D03*
G04 #@! TO.P,SW1,1*
G04 #@! TO.N,GND*
X82500400Y-80075600D03*
G04 #@! TO.P,SW1,2*
G04 #@! TO.N,SW_UP*
X82500400Y-75575600D03*
G04 #@! TD*
D16*
G04 #@! TO.P,J3,4*
G04 #@! TO.N,Net-(A1-Pad6)*
X161290000Y-105410000D03*
G04 #@! TO.P,J3,3*
G04 #@! TO.N,Net-(A1-Pad5)*
X158750000Y-105410000D03*
G04 #@! TO.P,J3,2*
G04 #@! TO.N,Net-(A1-Pad4)*
X156210000Y-105410000D03*
G04 #@! TO.P,J3,1*
G04 #@! TO.N,Net-(A1-Pad3)*
G04 #@! TA.AperFunction,ComponentPad*
G36*
G01*
X152800000Y-106255001D02*
X152800000Y-104564999D01*
G75*
G02*
X153049999Y-104315000I249999J0D01*
G01*
X154290001Y-104315000D01*
G75*
G02*
X154540000Y-104564999I0J-249999D01*
G01*
X154540000Y-106255001D01*
G75*
G02*
X154290001Y-106505000I-249999J0D01*
G01*
X153049999Y-106505000D01*
G75*
G02*
X152800000Y-106255001I0J249999D01*
G01*
G37*
G04 #@! TD.AperFunction*
G04 #@! TD*
G04 #@! TO.P,J2,5*
G04 #@! TO.N,HOMING*
X143510000Y-105410000D03*
G04 #@! TO.P,J2,4*
G04 #@! TO.N,GND*
X140970000Y-105410000D03*
G04 #@! TO.P,J2,3*
G04 #@! TO.N,Net-(J2-Pad3)*
X138430000Y-105410000D03*
G04 #@! TO.P,J2,2*
G04 #@! TO.N,GND*
X135890000Y-105410000D03*
G04 #@! TO.P,J2,1*
G04 #@! TO.N,Net-(J2-Pad1)*
G04 #@! TA.AperFunction,ComponentPad*
G36*
G01*
X132480000Y-106255001D02*
X132480000Y-104564999D01*
G75*
G02*
X132729999Y-104315000I249999J0D01*
G01*
X133970001Y-104315000D01*
G75*
G02*
X134220000Y-104564999I0J-249999D01*
G01*
X134220000Y-106255001D01*
G75*
G02*
X133970001Y-106505000I-249999J0D01*
G01*
X132729999Y-106505000D01*
G75*
G02*
X132480000Y-106255001I0J249999D01*
G01*
G37*
G04 #@! TD.AperFunction*
G04 #@! TD*
D17*
G04 #@! TO.P,J4,6*
G04 #@! TO.N,GND*
X115570000Y-69850000D03*
G04 #@! TO.P,J4,5*
G04 #@! TO.N,SS_RESET*
X115570000Y-67310000D03*
G04 #@! TO.P,J4,4*
G04 #@! TO.N,MOSI*
X118110000Y-69850000D03*
G04 #@! TO.P,J4,3*
G04 #@! TO.N,SCK*
X118110000Y-67310000D03*
G04 #@! TO.P,J4,2*
G04 #@! TO.N,+5V*
X120650000Y-69850000D03*
D18*
G04 #@! TO.P,J4,1*
G04 #@! TO.N,MISO*
X120650000Y-67310000D03*
G04 #@! TD*
D19*
G04 #@! TO.P,J1,MP*
G04 #@! TO.N,GND*
X159130000Y-73835000D03*
G04 #@! TO.P,J1,2*
X163830000Y-70835000D03*
D20*
G04 #@! TO.P,J1,1*
G04 #@! TO.N,+12V*
X163830000Y-76835000D03*
G04 #@! TD*
D18*
G04 #@! TO.P,DS1,1*
G04 #@! TO.N,GND*
X109220000Y-77867000D03*
D17*
G04 #@! TO.P,DS1,2*
G04 #@! TO.N,+5V*
X106680000Y-77867000D03*
G04 #@! TO.P,DS1,3*
G04 #@! TO.N,SCL*
X104140000Y-77867000D03*
G04 #@! TO.P,DS1,4*
G04 #@! TO.N,SDA*
X101600000Y-77867000D03*
D10*
G04 #@! TO.P,DS1,~*
G04 #@! TO.N,N/C*
X117160000Y-78524000D03*
X93660000Y-78524000D03*
X93660000Y-102324000D03*
X117160000Y-102324000D03*
G04 #@! TD*
D21*
G04 #@! TO.P,A1,16*
G04 #@! TO.N,DIR*
X147320000Y-85090000D03*
G04 #@! TO.P,A1,8*
G04 #@! TO.N,+12V*
X165100000Y-97790000D03*
G04 #@! TO.P,A1,15*
G04 #@! TO.N,STEP*
X149860000Y-85090000D03*
G04 #@! TO.P,A1,7*
G04 #@! TO.N,GND*
X162560000Y-97790000D03*
G04 #@! TO.P,A1,14*
G04 #@! TO.N,Net-(A1-Pad13)*
X152400000Y-85090000D03*
G04 #@! TO.P,A1,6*
G04 #@! TO.N,Net-(A1-Pad6)*
X160020000Y-97790000D03*
G04 #@! TO.P,A1,13*
G04 #@! TO.N,Net-(A1-Pad13)*
X154940000Y-85090000D03*
G04 #@! TO.P,A1,5*
G04 #@! TO.N,Net-(A1-Pad5)*
X157480000Y-97790000D03*
G04 #@! TO.P,A1,12*
G04 #@! TO.N,MS3*
X157480000Y-85090000D03*
G04 #@! TO.P,A1,4*
G04 #@! TO.N,Net-(A1-Pad4)*
X154940000Y-97790000D03*
G04 #@! TO.P,A1,11*
G04 #@! TO.N,MS2*
X160020000Y-85090000D03*
G04 #@! TO.P,A1,3*
G04 #@! TO.N,Net-(A1-Pad3)*
X152400000Y-97790000D03*
G04 #@! TO.P,A1,10*
G04 #@! TO.N,MS1*
X162560000Y-85090000D03*
G04 #@! TO.P,A1,2*
G04 #@! TO.N,+5V*
X149860000Y-97790000D03*
G04 #@! TO.P,A1,9*
G04 #@! TO.N,STEP_EN*
X165100000Y-85090000D03*
D13*
G04 #@! TO.P,A1,1*
G04 #@! TO.N,GND*
X147320000Y-97790000D03*
G04 #@! TD*
D22*
G04 #@! TO.N,GND*
X137160000Y-93980000D03*
X134220000Y-89935000D03*
X102870000Y-89535000D03*
X112395000Y-86995000D03*
X126365000Y-86995000D03*
X140335000Y-68580000D03*
G04 #@! TO.N,SCL*
X127870000Y-87230000D03*
G04 #@! TO.N,SS_RESET*
X132080000Y-85090000D03*
G04 #@! TO.N,MOSI*
X142875000Y-85090000D03*
G04 #@! TO.N,SCK*
X139065000Y-83185000D03*
X123825000Y-73660000D03*
G04 #@! TO.N,MISO*
X142875000Y-83820000D03*
G04 #@! TO.N,SW_UP*
X126365000Y-90170000D03*
G04 #@! TO.N,SW_MID*
X127000000Y-92075000D03*
G04 #@! TO.N,SW_DOWN*
X128270000Y-92075000D03*
G04 #@! TD*
D23*
G04 #@! TO.N,Net-(A1-Pad13)*
X152400000Y-85090000D02*
X154940000Y-85090000D01*
G04 #@! TO.N,Net-(A1-Pad6)*
X160020000Y-97790000D02*
X160020000Y-102870000D01*
X161290000Y-104140000D02*
X161290000Y-105410000D01*
X160020000Y-102870000D02*
X161290000Y-104140000D01*
G04 #@! TO.N,Net-(A1-Pad5)*
X157480000Y-97790000D02*
X157480000Y-102933500D01*
X158750000Y-104203500D02*
X158750000Y-105410000D01*
X157480000Y-102933500D02*
X158750000Y-104203500D01*
G04 #@! TO.N,Net-(A1-Pad4)*
X154940000Y-97790000D02*
X154940000Y-102870000D01*
X156210000Y-104140000D02*
X156210000Y-105410000D01*
X154940000Y-102870000D02*
X156210000Y-104140000D01*
G04 #@! TO.N,Net-(A1-Pad3)*
X152400000Y-97790000D02*
X152400000Y-102870000D01*
X153670000Y-104140000D02*
X153670000Y-105410000D01*
X152400000Y-102870000D02*
X153670000Y-104140000D01*
D24*
G04 #@! TO.N,SCL*
X104140000Y-77867000D02*
X111363000Y-85090000D01*
X125730000Y-85090000D02*
X127870000Y-87230000D01*
X111363000Y-85090000D02*
X125730000Y-85090000D01*
G04 #@! TO.N,SS_RESET*
X113665000Y-69215000D02*
X115570000Y-67310000D01*
X113665000Y-71755000D02*
X113665000Y-69215000D01*
X119310685Y-71755000D02*
X113665000Y-71755000D01*
X132080000Y-84524315D02*
X119310685Y-71755000D01*
X132080000Y-85090000D02*
X132080000Y-84524315D01*
G04 #@! TO.N,MOSI*
X142875000Y-85090000D02*
X130175000Y-72390000D01*
X120650000Y-72390000D02*
X118110000Y-69850000D01*
X130175000Y-72390000D02*
X120650000Y-72390000D01*
G04 #@! TO.N,SCK*
X129540000Y-73660000D02*
X123825000Y-73660000D01*
X139065000Y-83185000D02*
X129540000Y-73660000D01*
G04 #@! TO.N,MISO*
X126365000Y-67310000D02*
X142875000Y-83820000D01*
X120650000Y-67310000D02*
X126365000Y-67310000D01*
G04 #@! TO.N,SW_UP*
X97569598Y-75575600D02*
X89000400Y-75575600D01*
X112163998Y-90170000D02*
X97569598Y-75575600D01*
X126365000Y-90170000D02*
X112163998Y-90170000D01*
X82500400Y-75575600D02*
X89000400Y-75575600D01*
G04 #@! TO.N,SW_MID*
X126600001Y-91675001D02*
X106915001Y-91675001D01*
X127000000Y-92075000D02*
X126600001Y-91675001D01*
X100975600Y-85735600D02*
X89000400Y-85735600D01*
X106915001Y-91675001D02*
X100975600Y-85735600D01*
X82500400Y-85735600D02*
X89000400Y-85735600D01*
G04 #@! TO.N,SW_DOWN*
X124449400Y-95895600D02*
X89000400Y-95895600D01*
X128270000Y-92075000D02*
X124449400Y-95895600D01*
X82500400Y-95895600D02*
X89000400Y-95895600D01*
G04 #@! TD*
D25*
G04 #@! TO.N,GND*
X177038000Y-110363000D02*
X79502000Y-110363000D01*
X79502000Y-105686984D01*
X80185000Y-105686984D01*
X80185000Y-106403016D01*
X80324691Y-107105290D01*
X80598705Y-107766818D01*
X80996511Y-108362177D01*
X81502823Y-108868489D01*
X82098182Y-109266295D01*
X82759710Y-109540309D01*
X83461984Y-109680000D01*
X84178016Y-109680000D01*
X84880290Y-109540309D01*
X85541818Y-109266295D01*
X86137177Y-108868489D01*
X86643489Y-108362177D01*
X87041295Y-107766818D01*
X87315309Y-107105290D01*
X87455000Y-106403016D01*
X87455000Y-105686984D01*
X87315309Y-104984710D01*
X87141459Y-104564999D01*
X131841928Y-104564999D01*
X131841928Y-106255001D01*
X131858992Y-106428255D01*
X131909528Y-106594851D01*
X131991595Y-106748387D01*
X132102038Y-106882962D01*
X132236613Y-106993405D01*
X132390149Y-107075472D01*
X132556745Y-107126008D01*
X132729999Y-107143072D01*
X133970001Y-107143072D01*
X134143255Y-107126008D01*
X134309851Y-107075472D01*
X134463387Y-106993405D01*
X134597962Y-106882962D01*
X134708405Y-106748387D01*
X134766655Y-106639410D01*
X134923674Y-106798306D01*
X135169191Y-106964474D01*
X135442409Y-107079551D01*
X135529969Y-107096302D01*
X135763000Y-106975246D01*
X135763000Y-105537000D01*
X135743000Y-105537000D01*
X135743000Y-105283000D01*
X135763000Y-105283000D01*
X135763000Y-103844754D01*
X136017000Y-103844754D01*
X136017000Y-105283000D01*
X136037000Y-105283000D01*
X136037000Y-105537000D01*
X136017000Y-105537000D01*
X136017000Y-106975246D01*
X136250031Y-107096302D01*
X136337591Y-107079551D01*
X136610809Y-106964474D01*
X136856326Y-106798306D01*
X137064708Y-106587433D01*
X137157440Y-106446848D01*
X137172583Y-106475179D01*
X137360655Y-106704345D01*
X137589822Y-106892417D01*
X137851276Y-107032166D01*
X138134969Y-107118224D01*
X138430000Y-107147282D01*
X138725032Y-107118224D01*
X139008725Y-107032166D01*
X139270179Y-106892417D01*
X139499345Y-106704345D01*
X139687417Y-106475179D01*
X139702560Y-106446848D01*
X139795292Y-106587433D01*
X140003674Y-106798306D01*
X140249191Y-106964474D01*
X140522409Y-107079551D01*
X140609969Y-107096302D01*
X140843000Y-106975246D01*
X140843000Y-105537000D01*
X140823000Y-105537000D01*
X140823000Y-105283000D01*
X140843000Y-105283000D01*
X140843000Y-103844754D01*
X141097000Y-103844754D01*
X141097000Y-105283000D01*
X141117000Y-105283000D01*
X141117000Y-105537000D01*
X141097000Y-105537000D01*
X141097000Y-106975246D01*
X141330031Y-107096302D01*
X141417591Y-107079551D01*
X141690809Y-106964474D01*
X141936326Y-106798306D01*
X142144708Y-106587433D01*
X142237440Y-106446848D01*
X142252583Y-106475179D01*
X142440655Y-106704345D01*
X142669822Y-106892417D01*
X142931276Y-107032166D01*
X143214969Y-107118224D01*
X143510000Y-107147282D01*
X143805032Y-107118224D01*
X144088725Y-107032166D01*
X144350179Y-106892417D01*
X144579345Y-106704345D01*
X144767417Y-106475179D01*
X144907166Y-106213724D01*
X144993224Y-105930031D01*
X145015000Y-105708935D01*
X145015000Y-105111064D01*
X144993224Y-104889968D01*
X144907166Y-104606275D01*
X144767417Y-104344821D01*
X144579345Y-104115655D01*
X144350178Y-103927583D01*
X144088724Y-103787834D01*
X143805031Y-103701776D01*
X143510000Y-103672718D01*
X143214968Y-103701776D01*
X142931275Y-103787834D01*
X142669821Y-103927583D01*
X142440655Y-104115655D01*
X142252583Y-104344822D01*
X142237440Y-104373152D01*
X142144708Y-104232567D01*
X141936326Y-104021694D01*
X141690809Y-103855526D01*
X141417591Y-103740449D01*
X141330031Y-103723698D01*
X141097000Y-103844754D01*
X140843000Y-103844754D01*
X140609969Y-103723698D01*
X140522409Y-103740449D01*
X140249191Y-103855526D01*
X140003674Y-104021694D01*
X139795292Y-104232567D01*
X139702560Y-104373152D01*
X139687417Y-104344821D01*
X139499345Y-104115655D01*
X139270178Y-103927583D01*
X139008724Y-103787834D01*
X138725031Y-103701776D01*
X138430000Y-103672718D01*
X138134968Y-103701776D01*
X137851275Y-103787834D01*
X137589821Y-103927583D01*
X137360655Y-104115655D01*
X137172583Y-104344822D01*
X137157440Y-104373152D01*
X137064708Y-104232567D01*
X136856326Y-104021694D01*
X136610809Y-103855526D01*
X136337591Y-103740449D01*
X136250031Y-103723698D01*
X136017000Y-103844754D01*
X135763000Y-103844754D01*
X135529969Y-103723698D01*
X135442409Y-103740449D01*
X135169191Y-103855526D01*
X134923674Y-104021694D01*
X134766655Y-104180590D01*
X134708405Y-104071613D01*
X134597962Y-103937038D01*
X134463387Y-103826595D01*
X134309851Y-103744528D01*
X134143255Y-103693992D01*
X133970001Y-103676928D01*
X132729999Y-103676928D01*
X132556745Y-103693992D01*
X132390149Y-103744528D01*
X132236613Y-103826595D01*
X132102038Y-103937038D01*
X131991595Y-104071613D01*
X131909528Y-104225149D01*
X131858992Y-104391745D01*
X131841928Y-104564999D01*
X87141459Y-104564999D01*
X87041295Y-104323182D01*
X86643489Y-103727823D01*
X86137177Y-103221511D01*
X85541818Y-102823705D01*
X84880290Y-102549691D01*
X84178016Y-102410000D01*
X83461984Y-102410000D01*
X82759710Y-102549691D01*
X82098182Y-102823705D01*
X81502823Y-103221511D01*
X80996511Y-103727823D01*
X80598705Y-104323182D01*
X80324691Y-104984710D01*
X80185000Y-105686984D01*
X79502000Y-105686984D01*
X79502000Y-102113721D01*
X91525000Y-102113721D01*
X91525000Y-102534279D01*
X91607047Y-102946756D01*
X91767988Y-103335302D01*
X92001637Y-103684983D01*
X92299017Y-103982363D01*
X92648698Y-104216012D01*
X93037244Y-104376953D01*
X93449721Y-104459000D01*
X93870279Y-104459000D01*
X94282756Y-104376953D01*
X94671302Y-104216012D01*
X95020983Y-103982363D01*
X95318363Y-103684983D01*
X95552012Y-103335302D01*
X95712953Y-102946756D01*
X95795000Y-102534279D01*
X95795000Y-102113721D01*
X115025000Y-102113721D01*
X115025000Y-102534279D01*
X115107047Y-102946756D01*
X115267988Y-103335302D01*
X115501637Y-103684983D01*
X115799017Y-103982363D01*
X116148698Y-104216012D01*
X116537244Y-104376953D01*
X116949721Y-104459000D01*
X117370279Y-104459000D01*
X117782756Y-104376953D01*
X118171302Y-104216012D01*
X118520983Y-103982363D01*
X118818363Y-103684983D01*
X119052012Y-103335302D01*
X119212953Y-102946756D01*
X119295000Y-102534279D01*
X119295000Y-102113721D01*
X119212953Y-101701244D01*
X119052012Y-101312698D01*
X118818363Y-100963017D01*
X118520983Y-100665637D01*
X118171302Y-100431988D01*
X117782756Y-100271047D01*
X117370279Y-100189000D01*
X116949721Y-100189000D01*
X116537244Y-100271047D01*
X116148698Y-100431988D01*
X115799017Y-100665637D01*
X115501637Y-100963017D01*
X115267988Y-101312698D01*
X115107047Y-101701244D01*
X115025000Y-102113721D01*
X95795000Y-102113721D01*
X95712953Y-101701244D01*
X95552012Y-101312698D01*
X95318363Y-100963017D01*
X95020983Y-100665637D01*
X94671302Y-100431988D01*
X94282756Y-100271047D01*
X93870279Y-100189000D01*
X93449721Y-100189000D01*
X93037244Y-100271047D01*
X92648698Y-100431988D01*
X92299017Y-100665637D01*
X92001637Y-100963017D01*
X91767988Y-101312698D01*
X91607047Y-101701244D01*
X91525000Y-102113721D01*
X79502000Y-102113721D01*
X79502000Y-101531013D01*
X81544592Y-101531013D01*
X81640356Y-101795414D01*
X81929971Y-101936304D01*
X82241508Y-102017984D01*
X82562995Y-102037318D01*
X82882075Y-101993561D01*
X83186488Y-101888395D01*
X83360444Y-101795414D01*
X83456208Y-101531013D01*
X88044592Y-101531013D01*
X88140356Y-101795414D01*
X88429971Y-101936304D01*
X88741508Y-102017984D01*
X89062995Y-102037318D01*
X89382075Y-101993561D01*
X89686488Y-101888395D01*
X89860444Y-101795414D01*
X89956208Y-101531013D01*
X89000400Y-100575205D01*
X88044592Y-101531013D01*
X83456208Y-101531013D01*
X82500400Y-100575205D01*
X81544592Y-101531013D01*
X79502000Y-101531013D01*
X79502000Y-100458195D01*
X80858682Y-100458195D01*
X80902439Y-100777275D01*
X81007605Y-101081688D01*
X81100586Y-101255644D01*
X81364987Y-101351408D01*
X82320795Y-100395600D01*
X82680005Y-100395600D01*
X83635813Y-101351408D01*
X83900214Y-101255644D01*
X84041104Y-100966029D01*
X84122784Y-100654492D01*
X84134589Y-100458195D01*
X87358682Y-100458195D01*
X87402439Y-100777275D01*
X87507605Y-101081688D01*
X87600586Y-101255644D01*
X87864987Y-101351408D01*
X88820795Y-100395600D01*
X89180005Y-100395600D01*
X90135813Y-101351408D01*
X90400214Y-101255644D01*
X90541104Y-100966029D01*
X90622784Y-100654492D01*
X90642118Y-100333005D01*
X90598361Y-100013925D01*
X90493195Y-99709512D01*
X90400214Y-99535556D01*
X90135813Y-99439792D01*
X89180005Y-100395600D01*
X88820795Y-100395600D01*
X87864987Y-99439792D01*
X87600586Y-99535556D01*
X87459696Y-99825171D01*
X87378016Y-100136708D01*
X87358682Y-100458195D01*
X84134589Y-100458195D01*
X84142118Y-100333005D01*
X84098361Y-100013925D01*
X83993195Y-99709512D01*
X83900214Y-99535556D01*
X83635813Y-99439792D01*
X82680005Y-100395600D01*
X82320795Y-100395600D01*
X81364987Y-99439792D01*
X81100586Y-99535556D01*
X80959696Y-99825171D01*
X80878016Y-100136708D01*
X80858682Y-100458195D01*
X79502000Y-100458195D01*
X79502000Y-99260187D01*
X81544592Y-99260187D01*
X82500400Y-100215995D01*
X83456208Y-99260187D01*
X88044592Y-99260187D01*
X89000400Y-100215995D01*
X89956208Y-99260187D01*
X89860444Y-98995786D01*
X89570829Y-98854896D01*
X89259292Y-98773216D01*
X88937805Y-98753882D01*
X88618725Y-98797639D01*
X88314312Y-98902805D01*
X88140356Y-98995786D01*
X88044592Y-99260187D01*
X83456208Y-99260187D01*
X83360444Y-98995786D01*
X83070829Y-98854896D01*
X82759292Y-98773216D01*
X82437805Y-98753882D01*
X82118725Y-98797639D01*
X81814312Y-98902805D01*
X81640356Y-98995786D01*
X81544592Y-99260187D01*
X79502000Y-99260187D01*
X79502000Y-98590000D01*
X145881928Y-98590000D01*
X145894188Y-98714482D01*
X145930498Y-98834180D01*
X145989463Y-98944494D01*
X146068815Y-99041185D01*
X146165506Y-99120537D01*
X146275820Y-99179502D01*
X146395518Y-99215812D01*
X146520000Y-99228072D01*
X147034250Y-99225000D01*
X147193000Y-99066250D01*
X147193000Y-97917000D01*
X146043750Y-97917000D01*
X145885000Y-98075750D01*
X145881928Y-98590000D01*
X79502000Y-98590000D01*
X79502000Y-91371013D01*
X81544592Y-91371013D01*
X81640356Y-91635414D01*
X81929971Y-91776304D01*
X82241508Y-91857984D01*
X82562995Y-91877318D01*
X82882075Y-91833561D01*
X83186488Y-91728395D01*
X83360444Y-91635414D01*
X83456208Y-91371013D01*
X88044592Y-91371013D01*
X88140356Y-91635414D01*
X88429971Y-91776304D01*
X88741508Y-91857984D01*
X89062995Y-91877318D01*
X89382075Y-91833561D01*
X89686488Y-91728395D01*
X89860444Y-91635414D01*
X89956208Y-91371013D01*
X89000400Y-90415205D01*
X88044592Y-91371013D01*
X83456208Y-91371013D01*
X82500400Y-90415205D01*
X81544592Y-91371013D01*
X79502000Y-91371013D01*
X79502000Y-90298195D01*
X80858682Y-90298195D01*
X80902439Y-90617275D01*
X81007605Y-90921688D01*
X81100586Y-91095644D01*
X81364987Y-91191408D01*
X82320795Y-90235600D01*
X82680005Y-90235600D01*
X83635813Y-91191408D01*
X83900214Y-91095644D01*
X84041104Y-90806029D01*
X84122784Y-90494492D01*
X84134589Y-90298195D01*
X87358682Y-90298195D01*
X87402439Y-90617275D01*
X87507605Y-90921688D01*
X87600586Y-91095644D01*
X87864987Y-91191408D01*
X88820795Y-90235600D01*
X89180005Y-90235600D01*
X90135813Y-91191408D01*
X90400214Y-91095644D01*
X90541104Y-90806029D01*
X90622784Y-90494492D01*
X90642118Y-90173005D01*
X90598361Y-89853925D01*
X90493195Y-89549512D01*
X90400214Y-89375556D01*
X90135813Y-89279792D01*
X89180005Y-90235600D01*
X88820795Y-90235600D01*
X87864987Y-89279792D01*
X87600586Y-89375556D01*
X87459696Y-89665171D01*
X87378016Y-89976708D01*
X87358682Y-90298195D01*
X84134589Y-90298195D01*
X84142118Y-90173005D01*
X84098361Y-89853925D01*
X83993195Y-89549512D01*
X83900214Y-89375556D01*
X83635813Y-89279792D01*
X82680005Y-90235600D01*
X82320795Y-90235600D01*
X81364987Y-89279792D01*
X81100586Y-89375556D01*
X80959696Y-89665171D01*
X80878016Y-89976708D01*
X80858682Y-90298195D01*
X79502000Y-90298195D01*
X79502000Y-89100187D01*
X81544592Y-89100187D01*
X82500400Y-90055995D01*
X83456208Y-89100187D01*
X88044592Y-89100187D01*
X89000400Y-90055995D01*
X89956208Y-89100187D01*
X89860444Y-88835786D01*
X89570829Y-88694896D01*
X89259292Y-88613216D01*
X88937805Y-88593882D01*
X88618725Y-88637639D01*
X88314312Y-88742805D01*
X88140356Y-88835786D01*
X88044592Y-89100187D01*
X83456208Y-89100187D01*
X83360444Y-88835786D01*
X83070829Y-88694896D01*
X82759292Y-88613216D01*
X82437805Y-88593882D01*
X82118725Y-88637639D01*
X81814312Y-88742805D01*
X81640356Y-88835786D01*
X81544592Y-89100187D01*
X79502000Y-89100187D01*
X79502000Y-81211013D01*
X81544592Y-81211013D01*
X81640356Y-81475414D01*
X81929971Y-81616304D01*
X82241508Y-81697984D01*
X82562995Y-81717318D01*
X82882075Y-81673561D01*
X83186488Y-81568395D01*
X83360444Y-81475414D01*
X83456208Y-81211013D01*
X88044592Y-81211013D01*
X88140356Y-81475414D01*
X88429971Y-81616304D01*
X88741508Y-81697984D01*
X89062995Y-81717318D01*
X89382075Y-81673561D01*
X89686488Y-81568395D01*
X89860444Y-81475414D01*
X89956208Y-81211013D01*
X89000400Y-80255205D01*
X88044592Y-81211013D01*
X83456208Y-81211013D01*
X82500400Y-80255205D01*
X81544592Y-81211013D01*
X79502000Y-81211013D01*
X79502000Y-80138195D01*
X80858682Y-80138195D01*
X80902439Y-80457275D01*
X81007605Y-80761688D01*
X81100586Y-80935644D01*
X81364987Y-81031408D01*
X82320795Y-80075600D01*
X82680005Y-80075600D01*
X83635813Y-81031408D01*
X83900214Y-80935644D01*
X84041104Y-80646029D01*
X84122784Y-80334492D01*
X84134589Y-80138195D01*
X87358682Y-80138195D01*
X87402439Y-80457275D01*
X87507605Y-80761688D01*
X87600586Y-80935644D01*
X87864987Y-81031408D01*
X88820795Y-80075600D01*
X89180005Y-80075600D01*
X90135813Y-81031408D01*
X90400214Y-80935644D01*
X90541104Y-80646029D01*
X90622784Y-80334492D01*
X90642118Y-80013005D01*
X90598361Y-79693925D01*
X90493195Y-79389512D01*
X90400214Y-79215556D01*
X90135813Y-79119792D01*
X89180005Y-80075600D01*
X88820795Y-80075600D01*
X87864987Y-79119792D01*
X87600586Y-79215556D01*
X87459696Y-79505171D01*
X87378016Y-79816708D01*
X87358682Y-80138195D01*
X84134589Y-80138195D01*
X84142118Y-80013005D01*
X84098361Y-79693925D01*
X83993195Y-79389512D01*
X83900214Y-79215556D01*
X83635813Y-79119792D01*
X82680005Y-80075600D01*
X82320795Y-80075600D01*
X81364987Y-79119792D01*
X81100586Y-79215556D01*
X80959696Y-79505171D01*
X80878016Y-79816708D01*
X80858682Y-80138195D01*
X79502000Y-80138195D01*
X79502000Y-78940187D01*
X81544592Y-78940187D01*
X82500400Y-79895995D01*
X83456208Y-78940187D01*
X88044592Y-78940187D01*
X89000400Y-79895995D01*
X89956208Y-78940187D01*
X89860444Y-78675786D01*
X89570829Y-78534896D01*
X89259292Y-78453216D01*
X88937805Y-78433882D01*
X88618725Y-78477639D01*
X88314312Y-78582805D01*
X88140356Y-78675786D01*
X88044592Y-78940187D01*
X83456208Y-78940187D01*
X83360444Y-78675786D01*
X83070829Y-78534896D01*
X82759292Y-78453216D01*
X82437805Y-78433882D01*
X82118725Y-78477639D01*
X81814312Y-78582805D01*
X81640356Y-78675786D01*
X81544592Y-78940187D01*
X79502000Y-78940187D01*
X79502000Y-78313721D01*
X91525000Y-78313721D01*
X91525000Y-78734279D01*
X91607047Y-79146756D01*
X91767988Y-79535302D01*
X92001637Y-79884983D01*
X92299017Y-80182363D01*
X92648698Y-80416012D01*
X93037244Y-80576953D01*
X93449721Y-80659000D01*
X93870279Y-80659000D01*
X94282756Y-80576953D01*
X94671302Y-80416012D01*
X95020983Y-80182363D01*
X95318363Y-79884983D01*
X95552012Y-79535302D01*
X95712953Y-79146756D01*
X95795000Y-78734279D01*
X95795000Y-78313721D01*
X95712953Y-77901244D01*
X95552012Y-77512698D01*
X95318363Y-77163017D01*
X95020983Y-76865637D01*
X94671302Y-76631988D01*
X94282756Y-76471047D01*
X93870279Y-76389000D01*
X93449721Y-76389000D01*
X93037244Y-76471047D01*
X92648698Y-76631988D01*
X92299017Y-76865637D01*
X92001637Y-77163017D01*
X91767988Y-77512698D01*
X91607047Y-77901244D01*
X91525000Y-78313721D01*
X79502000Y-78313721D01*
X79502000Y-75414567D01*
X80865400Y-75414567D01*
X80865400Y-75736633D01*
X80928232Y-76052512D01*
X81051482Y-76350063D01*
X81230413Y-76617852D01*
X81458148Y-76845587D01*
X81725937Y-77024518D01*
X82023488Y-77147768D01*
X82339367Y-77210600D01*
X82661433Y-77210600D01*
X82977312Y-77147768D01*
X83274863Y-77024518D01*
X83542652Y-76845587D01*
X83770387Y-76617852D01*
X83949318Y-76350063D01*
X83955309Y-76335600D01*
X87545491Y-76335600D01*
X87551482Y-76350063D01*
X87730413Y-76617852D01*
X87958148Y-76845587D01*
X88225937Y-77024518D01*
X88523488Y-77147768D01*
X88839367Y-77210600D01*
X89161433Y-77210600D01*
X89477312Y-77147768D01*
X89774863Y-77024518D01*
X90042652Y-76845587D01*
X90270387Y-76617852D01*
X90449318Y-76350063D01*
X90455309Y-76335600D01*
X97254797Y-76335600D01*
X111600203Y-90681008D01*
X111623997Y-90710001D01*
X111652990Y-90733795D01*
X111652994Y-90733799D01*
X111723683Y-90791811D01*
X111739722Y-90804974D01*
X111871751Y-90875546D01*
X112001819Y-90915001D01*
X107229804Y-90915001D01*
X101539404Y-85224603D01*
X101515601Y-85195599D01*
X101399876Y-85100626D01*
X101267847Y-85030054D01*
X101124586Y-84986597D01*
X101012933Y-84975600D01*
X101012922Y-84975600D01*
X100975600Y-84971924D01*
X100938278Y-84975600D01*
X90455309Y-84975600D01*
X90449318Y-84961137D01*
X90270387Y-84693348D01*
X90042652Y-84465613D01*
X89774863Y-84286682D01*
X89477312Y-84163432D01*
X89161433Y-84100600D01*
X88839367Y-84100600D01*
X88523488Y-84163432D01*
X88225937Y-84286682D01*
X87958148Y-84465613D01*
X87730413Y-84693348D01*
X87551482Y-84961137D01*
X87545491Y-84975600D01*
X83955309Y-84975600D01*
X83949318Y-84961137D01*
X83770387Y-84693348D01*
X83542652Y-84465613D01*
X83274863Y-84286682D01*
X82977312Y-84163432D01*
X82661433Y-84100600D01*
X82339367Y-84100600D01*
X82023488Y-84163432D01*
X81725937Y-84286682D01*
X81458148Y-84465613D01*
X81230413Y-84693348D01*
X81051482Y-84961137D01*
X80928232Y-85258688D01*
X80865400Y-85574567D01*
X80865400Y-85896633D01*
X80928232Y-86212512D01*
X81051482Y-86510063D01*
X81230413Y-86777852D01*
X81458148Y-87005587D01*
X81725937Y-87184518D01*
X82023488Y-87307768D01*
X82339367Y-87370600D01*
X82661433Y-87370600D01*
X82977312Y-87307768D01*
X83274863Y-87184518D01*
X83542652Y-87005587D01*
X83770387Y-86777852D01*
X83949318Y-86510063D01*
X83955309Y-86495600D01*
X87545491Y-86495600D01*
X87551482Y-86510063D01*
X87730413Y-86777852D01*
X87958148Y-87005587D01*
X88225937Y-87184518D01*
X88523488Y-87307768D01*
X88839367Y-87370600D01*
X89161433Y-87370600D01*
X89477312Y-87307768D01*
X89774863Y-87184518D01*
X90042652Y-87005587D01*
X90270387Y-86777852D01*
X90449318Y-86510063D01*
X90455309Y-86495600D01*
X100660799Y-86495600D01*
X106351206Y-92186009D01*
X106375000Y-92215002D01*
X106403993Y-92238796D01*
X106403997Y-92238800D01*
X106474686Y-92296812D01*
X106490725Y-92309975D01*
X106622754Y-92380547D01*
X106766015Y-92424004D01*
X106877668Y-92435001D01*
X106877677Y-92435001D01*
X106915000Y-92438677D01*
X106952323Y-92435001D01*
X107810971Y-92435001D01*
X107799534Y-92452118D01*
X107657439Y-92795166D01*
X107585000Y-93159344D01*
X107585000Y-93530656D01*
X107657439Y-93894834D01*
X107799534Y-94237882D01*
X108005825Y-94546618D01*
X108268382Y-94809175D01*
X108577118Y-95015466D01*
X108867147Y-95135600D01*
X96872853Y-95135600D01*
X97162882Y-95015466D01*
X97471618Y-94809175D01*
X97734175Y-94546618D01*
X97940466Y-94237882D01*
X98082561Y-93894834D01*
X98155000Y-93530656D01*
X98155000Y-93159344D01*
X98082561Y-92795166D01*
X97940466Y-92452118D01*
X97734175Y-92143382D01*
X97471618Y-91880825D01*
X97162882Y-91674534D01*
X96819834Y-91532439D01*
X96455656Y-91460000D01*
X96084344Y-91460000D01*
X95720166Y-91532439D01*
X95377118Y-91674534D01*
X95068382Y-91880825D01*
X94805825Y-92143382D01*
X94599534Y-92452118D01*
X94457439Y-92795166D01*
X94385000Y-93159344D01*
X94385000Y-93530656D01*
X94457439Y-93894834D01*
X94599534Y-94237882D01*
X94805825Y-94546618D01*
X95068382Y-94809175D01*
X95377118Y-95015466D01*
X95667147Y-95135600D01*
X90455309Y-95135600D01*
X90449318Y-95121137D01*
X90270387Y-94853348D01*
X90042652Y-94625613D01*
X89774863Y-94446682D01*
X89477312Y-94323432D01*
X89161433Y-94260600D01*
X88839367Y-94260600D01*
X88523488Y-94323432D01*
X88225937Y-94446682D01*
X87958148Y-94625613D01*
X87730413Y-94853348D01*
X87551482Y-95121137D01*
X87545491Y-95135600D01*
X83955309Y-95135600D01*
X83949318Y-95121137D01*
X83770387Y-94853348D01*
X83542652Y-94625613D01*
X83274863Y-94446682D01*
X82977312Y-94323432D01*
X82661433Y-94260600D01*
X82339367Y-94260600D01*
X82023488Y-94323432D01*
X81725937Y-94446682D01*
X81458148Y-94625613D01*
X81230413Y-94853348D01*
X81051482Y-95121137D01*
X80928232Y-95418688D01*
X80865400Y-95734567D01*
X80865400Y-96056633D01*
X80928232Y-96372512D01*
X81051482Y-96670063D01*
X81230413Y-96937852D01*
X81458148Y-97165587D01*
X81725937Y-97344518D01*
X82023488Y-97467768D01*
X82339367Y-97530600D01*
X82661433Y-97530600D01*
X82977312Y-97467768D01*
X83274863Y-97344518D01*
X83542652Y-97165587D01*
X83770387Y-96937852D01*
X83949318Y-96670063D01*
X83955309Y-96655600D01*
X87545491Y-96655600D01*
X87551482Y-96670063D01*
X87730413Y-96937852D01*
X87958148Y-97165587D01*
X88225937Y-97344518D01*
X88523488Y-97467768D01*
X88839367Y-97530600D01*
X89161433Y-97530600D01*
X89477312Y-97467768D01*
X89774863Y-97344518D01*
X90042652Y-97165587D01*
X90218239Y-96990000D01*
X145881928Y-96990000D01*
X145885000Y-97504250D01*
X146043750Y-97663000D01*
X147193000Y-97663000D01*
X147193000Y-96513750D01*
X147447000Y-96513750D01*
X147447000Y-97663000D01*
X147467000Y-97663000D01*
X147467000Y-97917000D01*
X147447000Y-97917000D01*
X147447000Y-99066250D01*
X147605750Y-99225000D01*
X148120000Y-99228072D01*
X148244482Y-99215812D01*
X148364180Y-99179502D01*
X148474494Y-99120537D01*
X148571185Y-99041185D01*
X148650537Y-98944494D01*
X148709502Y-98834180D01*
X148745812Y-98714482D01*
X148746643Y-98706039D01*
X148945241Y-98904637D01*
X149180273Y-99061680D01*
X149441426Y-99169853D01*
X149718665Y-99225000D01*
X150001335Y-99225000D01*
X150278574Y-99169853D01*
X150539727Y-99061680D01*
X150774759Y-98904637D01*
X150974637Y-98704759D01*
X151130000Y-98472241D01*
X151265000Y-98674284D01*
X151265001Y-102814239D01*
X151259509Y-102870000D01*
X151281423Y-103092498D01*
X151346324Y-103306446D01*
X151346325Y-103306447D01*
X151451717Y-103503623D01*
X151593552Y-103676449D01*
X151636860Y-103711991D01*
X152211022Y-104286154D01*
X152178992Y-104391745D01*
X152161928Y-104564999D01*
X152161928Y-106255001D01*
X152178992Y-106428255D01*
X152229528Y-106594851D01*
X152311595Y-106748387D01*
X152422038Y-106882962D01*
X152556613Y-106993405D01*
X152710149Y-107075472D01*
X152876745Y-107126008D01*
X153049999Y-107143072D01*
X154290001Y-107143072D01*
X154463255Y-107126008D01*
X154629851Y-107075472D01*
X154783387Y-106993405D01*
X154917962Y-106882962D01*
X155028405Y-106748387D01*
X155086934Y-106638886D01*
X155140655Y-106704345D01*
X155369822Y-106892417D01*
X155631276Y-107032166D01*
X155914969Y-107118224D01*
X156210000Y-107147282D01*
X156505032Y-107118224D01*
X156788725Y-107032166D01*
X157050179Y-106892417D01*
X157279345Y-106704345D01*
X157467417Y-106475179D01*
X157480000Y-106451638D01*
X157492583Y-106475179D01*
X157680655Y-106704345D01*
X157909822Y-106892417D01*
X158171276Y-107032166D01*
X158454969Y-107118224D01*
X158750000Y-107147282D01*
X159045032Y-107118224D01*
X159328725Y-107032166D01*
X159590179Y-106892417D01*
X159819345Y-106704345D01*
X160007417Y-106475179D01*
X160020000Y-106451638D01*
X160032583Y-106475179D01*
X160220655Y-106704345D01*
X160449822Y-106892417D01*
X160711276Y-107032166D01*
X160994969Y-107118224D01*
X161290000Y-107147282D01*
X161585032Y-107118224D01*
X161868725Y-107032166D01*
X162130179Y-106892417D01*
X162359345Y-106704345D01*
X162547417Y-106475179D01*
X162687166Y-106213724D01*
X162773224Y-105930031D01*
X162795000Y-105708935D01*
X162795000Y-105686984D01*
X169085000Y-105686984D01*
X169085000Y-106403016D01*
X169224691Y-107105290D01*
X169498705Y-107766818D01*
X169896511Y-108362177D01*
X170402823Y-108868489D01*
X170998182Y-109266295D01*
X171659710Y-109540309D01*
X172361984Y-109680000D01*
X173078016Y-109680000D01*
X173780290Y-109540309D01*
X174441818Y-109266295D01*
X175037177Y-108868489D01*
X175543489Y-108362177D01*
X175941295Y-107766818D01*
X176215309Y-107105290D01*
X176355000Y-106403016D01*
X176355000Y-105686984D01*
X176215309Y-104984710D01*
X175941295Y-104323182D01*
X175543489Y-103727823D01*
X175037177Y-103221511D01*
X174441818Y-102823705D01*
X173780290Y-102549691D01*
X173078016Y-102410000D01*
X172361984Y-102410000D01*
X171659710Y-102549691D01*
X170998182Y-102823705D01*
X170402823Y-103221511D01*
X169896511Y-103727823D01*
X169498705Y-104323182D01*
X169224691Y-104984710D01*
X169085000Y-105686984D01*
X162795000Y-105686984D01*
X162795000Y-105111064D01*
X162773224Y-104889968D01*
X162687166Y-104606275D01*
X162547417Y-104344821D01*
X162425008Y-104195665D01*
X162430490Y-104139999D01*
X162425000Y-104084255D01*
X162425000Y-104084248D01*
X162408577Y-103917501D01*
X162343676Y-103703553D01*
X162238284Y-103506377D01*
X162096449Y-103333551D01*
X162053140Y-103298008D01*
X161155000Y-102399869D01*
X161155000Y-98674284D01*
X161291680Y-98469727D01*
X161296067Y-98459135D01*
X161407615Y-98645131D01*
X161596586Y-98853519D01*
X161822580Y-99021037D01*
X162076913Y-99141246D01*
X162210961Y-99181904D01*
X162433000Y-99059915D01*
X162433000Y-97917000D01*
X162413000Y-97917000D01*
X162413000Y-97663000D01*
X162433000Y-97663000D01*
X162433000Y-96520085D01*
X162687000Y-96520085D01*
X162687000Y-97663000D01*
X162707000Y-97663000D01*
X162707000Y-97917000D01*
X162687000Y-97917000D01*
X162687000Y-99059915D01*
X162909039Y-99181904D01*
X163043087Y-99141246D01*
X163297420Y-99021037D01*
X163523414Y-98853519D01*
X163712385Y-98645131D01*
X163823933Y-98459135D01*
X163828320Y-98469727D01*
X163985363Y-98704759D01*
X164185241Y-98904637D01*
X164420273Y-99061680D01*
X164681426Y-99169853D01*
X164958665Y-99225000D01*
X165241335Y-99225000D01*
X165518574Y-99169853D01*
X165779727Y-99061680D01*
X166014759Y-98904637D01*
X166214637Y-98704759D01*
X166371680Y-98469727D01*
X166479853Y-98208574D01*
X166535000Y-97931335D01*
X166535000Y-97648665D01*
X166479853Y-97371426D01*
X166371680Y-97110273D01*
X166214637Y-96875241D01*
X166014759Y-96675363D01*
X165779727Y-96518320D01*
X165518574Y-96410147D01*
X165241335Y-96355000D01*
X168741928Y-96355000D01*
X168741928Y-97955000D01*
X168754188Y-98079482D01*
X168790498Y-98199180D01*
X168849463Y-98309494D01*
X168928815Y-98406185D01*
X169025506Y-98485537D01*
X169135820Y-98544502D01*
X169255518Y-98580812D01*
X169380000Y-98593072D01*
X170980000Y-98593072D01*
X171104482Y-98580812D01*
X171224180Y-98544502D01*
X171334494Y-98485537D01*
X171431185Y-98406185D01*
X171510537Y-98309494D01*
X171569502Y-98199180D01*
X171585117Y-98147702D01*
X172866903Y-98147702D01*
X172938486Y-98391671D01*
X173193996Y-98512571D01*
X173468184Y-98581300D01*
X173750512Y-98595217D01*
X174030130Y-98553787D01*
X174296292Y-98458603D01*
X174421514Y-98391671D01*
X174493097Y-98147702D01*
X173680000Y-97334605D01*
X172866903Y-98147702D01*
X171585117Y-98147702D01*
X171605812Y-98079482D01*
X171618072Y-97955000D01*
X171618072Y-97225512D01*
X172239783Y-97225512D01*
X172281213Y-97505130D01*
X172376397Y-97771292D01*
X172443329Y-97896514D01*
X172687298Y-97968097D01*
X173500395Y-97155000D01*
X173859605Y-97155000D01*
X174672702Y-97968097D01*
X174916671Y-97896514D01*
X175037571Y-97641004D01*
X175106300Y-97366816D01*
X175120217Y-97084488D01*
X175078787Y-96804870D01*
X174983603Y-96538708D01*
X174916671Y-96413486D01*
X174672702Y-96341903D01*
X173859605Y-97155000D01*
X173500395Y-97155000D01*
X172687298Y-96341903D01*
X172443329Y-96413486D01*
X172322429Y-96668996D01*
X172253700Y-96943184D01*
X172239783Y-97225512D01*
X171618072Y-97225512D01*
X171618072Y-96355000D01*
X171605812Y-96230518D01*
X171585118Y-96162298D01*
X172866903Y-96162298D01*
X173680000Y-96975395D01*
X174493097Y-96162298D01*
X174421514Y-95918329D01*
X174166004Y-95797429D01*
X173891816Y-95728700D01*
X173609488Y-95714783D01*
X173329870Y-95756213D01*
X173063708Y-95851397D01*
X172938486Y-95918329D01*
X172866903Y-96162298D01*
X171585118Y-96162298D01*
X171569502Y-96110820D01*
X171510537Y-96000506D01*
X171431185Y-95903815D01*
X171334494Y-95824463D01*
X171224180Y-95765498D01*
X171104482Y-95729188D01*
X170980000Y-95716928D01*
X169380000Y-95716928D01*
X169255518Y-95729188D01*
X169135820Y-95765498D01*
X169025506Y-95824463D01*
X168928815Y-95903815D01*
X168849463Y-96000506D01*
X168790498Y-96110820D01*
X168754188Y-96230518D01*
X168741928Y-96355000D01*
X165241335Y-96355000D01*
X164958665Y-96355000D01*
X164681426Y-96410147D01*
X164420273Y-96518320D01*
X164185241Y-96675363D01*
X163985363Y-96875241D01*
X163828320Y-97110273D01*
X163823933Y-97120865D01*
X163712385Y-96934869D01*
X163523414Y-96726481D01*
X163297420Y-96558963D01*
X163043087Y-96438754D01*
X162909039Y-96398096D01*
X162687000Y-96520085D01*
X162433000Y-96520085D01*
X162210961Y-96398096D01*
X162076913Y-96438754D01*
X161822580Y-96558963D01*
X161596586Y-96726481D01*
X161407615Y-96934869D01*
X161296067Y-97120865D01*
X161291680Y-97110273D01*
X161134637Y-96875241D01*
X160934759Y-96675363D01*
X160699727Y-96518320D01*
X160438574Y-96410147D01*
X160161335Y-96355000D01*
X159878665Y-96355000D01*
X159601426Y-96410147D01*
X159340273Y-96518320D01*
X159105241Y-96675363D01*
X158905363Y-96875241D01*
X158750000Y-97107759D01*
X158594637Y-96875241D01*
X158394759Y-96675363D01*
X158159727Y-96518320D01*
X157898574Y-96410147D01*
X157621335Y-96355000D01*
X157338665Y-96355000D01*
X157061426Y-96410147D01*
X156800273Y-96518320D01*
X156565241Y-96675363D01*
X156365363Y-96875241D01*
X156210000Y-97107759D01*
X156054637Y-96875241D01*
X155854759Y-96675363D01*
X155619727Y-96518320D01*
X155358574Y-96410147D01*
X155081335Y-96355000D01*
X154798665Y-96355000D01*
X154521426Y-96410147D01*
X154260273Y-96518320D01*
X154025241Y-96675363D01*
X153825363Y-96875241D01*
X153670000Y-97107759D01*
X153514637Y-96875241D01*
X153314759Y-96675363D01*
X153079727Y-96518320D01*
X152818574Y-96410147D01*
X152541335Y-96355000D01*
X152258665Y-96355000D01*
X151981426Y-96410147D01*
X151720273Y-96518320D01*
X151485241Y-96675363D01*
X151285363Y-96875241D01*
X151130000Y-97107759D01*
X150974637Y-96875241D01*
X150774759Y-96675363D01*
X150539727Y-96518320D01*
X150278574Y-96410147D01*
X150001335Y-96355000D01*
X149718665Y-96355000D01*
X149441426Y-96410147D01*
X149180273Y-96518320D01*
X148945241Y-96675363D01*
X148746643Y-96873961D01*
X148745812Y-96865518D01*
X148709502Y-96745820D01*
X148650537Y-96635506D01*
X148571185Y-96538815D01*
X148474494Y-96459463D01*
X148364180Y-96400498D01*
X148244482Y-96364188D01*
X148120000Y-96351928D01*
X147605750Y-96355000D01*
X147447000Y-96513750D01*
X147193000Y-96513750D01*
X147034250Y-96355000D01*
X146520000Y-96351928D01*
X146395518Y-96364188D01*
X146275820Y-96400498D01*
X146165506Y-96459463D01*
X146068815Y-96538815D01*
X145989463Y-96635506D01*
X145930498Y-96745820D01*
X145894188Y-96865518D01*
X145881928Y-96990000D01*
X90218239Y-96990000D01*
X90270387Y-96937852D01*
X90449318Y-96670063D01*
X90455309Y-96655600D01*
X124412078Y-96655600D01*
X124449400Y-96659276D01*
X124486722Y-96655600D01*
X124486733Y-96655600D01*
X124598386Y-96644603D01*
X124741647Y-96601146D01*
X124873676Y-96530574D01*
X124989401Y-96435601D01*
X125013204Y-96406597D01*
X128309802Y-93110000D01*
X128371939Y-93110000D01*
X128571898Y-93070226D01*
X128760256Y-92992205D01*
X128929774Y-92878937D01*
X129073937Y-92734774D01*
X129187205Y-92565256D01*
X129265226Y-92376898D01*
X129305000Y-92176939D01*
X129305000Y-91973061D01*
X129265226Y-91773102D01*
X129187205Y-91584744D01*
X129073937Y-91415226D01*
X128929774Y-91271063D01*
X128760256Y-91157795D01*
X128571898Y-91079774D01*
X128371939Y-91040000D01*
X128168061Y-91040000D01*
X127968102Y-91079774D01*
X127779744Y-91157795D01*
X127635000Y-91254510D01*
X127490256Y-91157795D01*
X127301898Y-91079774D01*
X127101939Y-91040000D01*
X127024226Y-91040000D01*
X126969602Y-91010802D01*
X127024774Y-90973937D01*
X127168937Y-90829774D01*
X127282205Y-90660256D01*
X127360226Y-90471898D01*
X127400000Y-90271939D01*
X127400000Y-90068061D01*
X127360226Y-89868102D01*
X127282205Y-89679744D01*
X127168937Y-89510226D01*
X127024774Y-89366063D01*
X126855256Y-89252795D01*
X126666898Y-89174774D01*
X126466939Y-89135000D01*
X126263061Y-89135000D01*
X126063102Y-89174774D01*
X125874744Y-89252795D01*
X125705226Y-89366063D01*
X125661289Y-89410000D01*
X112478801Y-89410000D01*
X102266909Y-79198110D01*
X102303411Y-79182990D01*
X102546632Y-79020475D01*
X102753475Y-78813632D01*
X102870000Y-78639240D01*
X102986525Y-78813632D01*
X103193368Y-79020475D01*
X103436589Y-79182990D01*
X103706842Y-79294932D01*
X103993740Y-79352000D01*
X104286260Y-79352000D01*
X104506408Y-79308209D01*
X110799200Y-85601002D01*
X110822999Y-85630001D01*
X110851997Y-85653799D01*
X110938724Y-85724974D01*
X111070753Y-85795546D01*
X111214014Y-85839003D01*
X111363000Y-85853677D01*
X111400333Y-85850000D01*
X125415199Y-85850000D01*
X126835000Y-87269802D01*
X126835000Y-87331939D01*
X126874774Y-87531898D01*
X126952795Y-87720256D01*
X127066063Y-87889774D01*
X127210226Y-88033937D01*
X127379744Y-88147205D01*
X127568102Y-88225226D01*
X127768061Y-88265000D01*
X127971939Y-88265000D01*
X128171898Y-88225226D01*
X128360256Y-88147205D01*
X128529774Y-88033937D01*
X128673937Y-87889774D01*
X128787205Y-87720256D01*
X128865226Y-87531898D01*
X128905000Y-87331939D01*
X128905000Y-87128061D01*
X128865226Y-86928102D01*
X128824591Y-86830000D01*
X168741928Y-86830000D01*
X168741928Y-88430000D01*
X168754188Y-88554482D01*
X168790498Y-88674180D01*
X168849463Y-88784494D01*
X168928815Y-88881185D01*
X169025506Y-88960537D01*
X169135820Y-89019502D01*
X169255518Y-89055812D01*
X169380000Y-89068072D01*
X170980000Y-89068072D01*
X171104482Y-89055812D01*
X171224180Y-89019502D01*
X171334494Y-88960537D01*
X171431185Y-88881185D01*
X171510537Y-88784494D01*
X171569502Y-88674180D01*
X171585117Y-88622702D01*
X172866903Y-88622702D01*
X172938486Y-88866671D01*
X173193996Y-88987571D01*
X173468184Y-89056300D01*
X173750512Y-89070217D01*
X174030130Y-89028787D01*
X174296292Y-88933603D01*
X174421514Y-88866671D01*
X174493097Y-88622702D01*
X173680000Y-87809605D01*
X172866903Y-88622702D01*
X171585117Y-88622702D01*
X171605812Y-88554482D01*
X171618072Y-88430000D01*
X171618072Y-87700512D01*
X172239783Y-87700512D01*
X172281213Y-87980130D01*
X172376397Y-88246292D01*
X172443329Y-88371514D01*
X172687298Y-88443097D01*
X173500395Y-87630000D01*
X173859605Y-87630000D01*
X174672702Y-88443097D01*
X174916671Y-88371514D01*
X175037571Y-88116004D01*
X175106300Y-87841816D01*
X175120217Y-87559488D01*
X175078787Y-87279870D01*
X174983603Y-87013708D01*
X174916671Y-86888486D01*
X174672702Y-86816903D01*
X173859605Y-87630000D01*
X173500395Y-87630000D01*
X172687298Y-86816903D01*
X172443329Y-86888486D01*
X172322429Y-87143996D01*
X172253700Y-87418184D01*
X172239783Y-87700512D01*
X171618072Y-87700512D01*
X171618072Y-86830000D01*
X171605812Y-86705518D01*
X171585118Y-86637298D01*
X172866903Y-86637298D01*
X173680000Y-87450395D01*
X174493097Y-86637298D01*
X174421514Y-86393329D01*
X174166004Y-86272429D01*
X173891816Y-86203700D01*
X173609488Y-86189783D01*
X173329870Y-86231213D01*
X173063708Y-86326397D01*
X172938486Y-86393329D01*
X172866903Y-86637298D01*
X171585118Y-86637298D01*
X171569502Y-86585820D01*
X171510537Y-86475506D01*
X171431185Y-86378815D01*
X171334494Y-86299463D01*
X171224180Y-86240498D01*
X171104482Y-86204188D01*
X170980000Y-86191928D01*
X169380000Y-86191928D01*
X169255518Y-86204188D01*
X169135820Y-86240498D01*
X169025506Y-86299463D01*
X168928815Y-86378815D01*
X168849463Y-86475506D01*
X168790498Y-86585820D01*
X168754188Y-86705518D01*
X168741928Y-86830000D01*
X128824591Y-86830000D01*
X128787205Y-86739744D01*
X128673937Y-86570226D01*
X128529774Y-86426063D01*
X128360256Y-86312795D01*
X128171898Y-86234774D01*
X127971939Y-86195000D01*
X127909802Y-86195000D01*
X126293804Y-84579003D01*
X126270001Y-84549999D01*
X126154276Y-84455026D01*
X126022247Y-84384454D01*
X125878986Y-84340997D01*
X125767333Y-84330000D01*
X125767322Y-84330000D01*
X125730000Y-84326324D01*
X125692678Y-84330000D01*
X111677802Y-84330000D01*
X106699801Y-79352000D01*
X106826260Y-79352000D01*
X107113158Y-79294932D01*
X107383411Y-79182990D01*
X107626632Y-79020475D01*
X107758487Y-78888620D01*
X107780498Y-78961180D01*
X107839463Y-79071494D01*
X107918815Y-79168185D01*
X108015506Y-79247537D01*
X108125820Y-79306502D01*
X108245518Y-79342812D01*
X108370000Y-79355072D01*
X108934250Y-79352000D01*
X109093000Y-79193250D01*
X109093000Y-77994000D01*
X109347000Y-77994000D01*
X109347000Y-79193250D01*
X109505750Y-79352000D01*
X110070000Y-79355072D01*
X110194482Y-79342812D01*
X110314180Y-79306502D01*
X110424494Y-79247537D01*
X110521185Y-79168185D01*
X110600537Y-79071494D01*
X110659502Y-78961180D01*
X110695812Y-78841482D01*
X110708072Y-78717000D01*
X110705877Y-78313721D01*
X115025000Y-78313721D01*
X115025000Y-78734279D01*
X115107047Y-79146756D01*
X115267988Y-79535302D01*
X115501637Y-79884983D01*
X115799017Y-80182363D01*
X116148698Y-80416012D01*
X116537244Y-80576953D01*
X116949721Y-80659000D01*
X117370279Y-80659000D01*
X117782756Y-80576953D01*
X118171302Y-80416012D01*
X118520983Y-80182363D01*
X118818363Y-79884983D01*
X118845078Y-79845000D01*
X121116928Y-79845000D01*
X121116928Y-81445000D01*
X121129188Y-81569482D01*
X121165498Y-81689180D01*
X121224463Y-81799494D01*
X121303815Y-81896185D01*
X121400506Y-81975537D01*
X121510820Y-82034502D01*
X121630518Y-82070812D01*
X121755000Y-82083072D01*
X123355000Y-82083072D01*
X123479482Y-82070812D01*
X123599180Y-82034502D01*
X123709494Y-81975537D01*
X123806185Y-81896185D01*
X123885537Y-81799494D01*
X123944502Y-81689180D01*
X123960117Y-81637702D01*
X125241903Y-81637702D01*
X125313486Y-81881671D01*
X125568996Y-82002571D01*
X125843184Y-82071300D01*
X126125512Y-82085217D01*
X126405130Y-82043787D01*
X126671292Y-81948603D01*
X126796514Y-81881671D01*
X126868097Y-81637702D01*
X126055000Y-80824605D01*
X125241903Y-81637702D01*
X123960117Y-81637702D01*
X123980812Y-81569482D01*
X123993072Y-81445000D01*
X123993072Y-80715512D01*
X124614783Y-80715512D01*
X124656213Y-80995130D01*
X124751397Y-81261292D01*
X124818329Y-81386514D01*
X125062298Y-81458097D01*
X125875395Y-80645000D01*
X125062298Y-79831903D01*
X124818329Y-79903486D01*
X124697429Y-80158996D01*
X124628700Y-80433184D01*
X124614783Y-80715512D01*
X123993072Y-80715512D01*
X123993072Y-79845000D01*
X123980812Y-79720518D01*
X123944502Y-79600820D01*
X123885537Y-79490506D01*
X123806185Y-79393815D01*
X123709494Y-79314463D01*
X123599180Y-79255498D01*
X123479482Y-79219188D01*
X123355000Y-79206928D01*
X121755000Y-79206928D01*
X121630518Y-79219188D01*
X121510820Y-79255498D01*
X121400506Y-79314463D01*
X121303815Y-79393815D01*
X121224463Y-79490506D01*
X121165498Y-79600820D01*
X121129188Y-79720518D01*
X121116928Y-79845000D01*
X118845078Y-79845000D01*
X119052012Y-79535302D01*
X119212953Y-79146756D01*
X119295000Y-78734279D01*
X119295000Y-78313721D01*
X119212953Y-77901244D01*
X119052012Y-77512698D01*
X118818363Y-77163017D01*
X118520983Y-76865637D01*
X118171302Y-76631988D01*
X117782756Y-76471047D01*
X117370279Y-76389000D01*
X116949721Y-76389000D01*
X116537244Y-76471047D01*
X116148698Y-76631988D01*
X115799017Y-76865637D01*
X115501637Y-77163017D01*
X115267988Y-77512698D01*
X115107047Y-77901244D01*
X115025000Y-78313721D01*
X110705877Y-78313721D01*
X110705000Y-78152750D01*
X110546250Y-77994000D01*
X109347000Y-77994000D01*
X109093000Y-77994000D01*
X109073000Y-77994000D01*
X109073000Y-77740000D01*
X109093000Y-77740000D01*
X109093000Y-76540750D01*
X109347000Y-76540750D01*
X109347000Y-77740000D01*
X110546250Y-77740000D01*
X110705000Y-77581250D01*
X110708072Y-77017000D01*
X110695812Y-76892518D01*
X110659502Y-76772820D01*
X110600537Y-76662506D01*
X110521185Y-76565815D01*
X110424494Y-76486463D01*
X110314180Y-76427498D01*
X110194482Y-76391188D01*
X110070000Y-76378928D01*
X109505750Y-76382000D01*
X109347000Y-76540750D01*
X109093000Y-76540750D01*
X108934250Y-76382000D01*
X108370000Y-76378928D01*
X108245518Y-76391188D01*
X108125820Y-76427498D01*
X108015506Y-76486463D01*
X107918815Y-76565815D01*
X107839463Y-76662506D01*
X107780498Y-76772820D01*
X107758487Y-76845380D01*
X107626632Y-76713525D01*
X107383411Y-76551010D01*
X107113158Y-76439068D01*
X106826260Y-76382000D01*
X106533740Y-76382000D01*
X106246842Y-76439068D01*
X105976589Y-76551010D01*
X105733368Y-76713525D01*
X105526525Y-76920368D01*
X105410000Y-77094760D01*
X105293475Y-76920368D01*
X105086632Y-76713525D01*
X104843411Y-76551010D01*
X104573158Y-76439068D01*
X104286260Y-76382000D01*
X103993740Y-76382000D01*
X103706842Y-76439068D01*
X103436589Y-76551010D01*
X103193368Y-76713525D01*
X102986525Y-76920368D01*
X102870000Y-77094760D01*
X102753475Y-76920368D01*
X102546632Y-76713525D01*
X102303411Y-76551010D01*
X102033158Y-76439068D01*
X101746260Y-76382000D01*
X101453740Y-76382000D01*
X101166842Y-76439068D01*
X100896589Y-76551010D01*
X100653368Y-76713525D01*
X100446525Y-76920368D01*
X100284010Y-77163589D01*
X100268890Y-77200091D01*
X98133402Y-75064603D01*
X98109599Y-75035599D01*
X97993874Y-74940626D01*
X97861845Y-74870054D01*
X97718584Y-74826597D01*
X97606931Y-74815600D01*
X97606920Y-74815600D01*
X97569598Y-74811924D01*
X97532276Y-74815600D01*
X90455309Y-74815600D01*
X90449318Y-74801137D01*
X90270387Y-74533348D01*
X90042652Y-74305613D01*
X89774863Y-74126682D01*
X89477312Y-74003432D01*
X89161433Y-73940600D01*
X88839367Y-73940600D01*
X88523488Y-74003432D01*
X88225937Y-74126682D01*
X87958148Y-74305613D01*
X87730413Y-74533348D01*
X87551482Y-74801137D01*
X87545491Y-74815600D01*
X83955309Y-74815600D01*
X83949318Y-74801137D01*
X83770387Y-74533348D01*
X83542652Y-74305613D01*
X83274863Y-74126682D01*
X82977312Y-74003432D01*
X82661433Y-73940600D01*
X82339367Y-73940600D01*
X82023488Y-74003432D01*
X81725937Y-74126682D01*
X81458148Y-74305613D01*
X81230413Y-74533348D01*
X81051482Y-74801137D01*
X80928232Y-75098688D01*
X80865400Y-75414567D01*
X79502000Y-75414567D01*
X79502000Y-69491984D01*
X80185000Y-69491984D01*
X80185000Y-70208016D01*
X80324691Y-70910290D01*
X80598705Y-71571818D01*
X80996511Y-72167177D01*
X81502823Y-72673489D01*
X82098182Y-73071295D01*
X82759710Y-73345309D01*
X83461984Y-73485000D01*
X84178016Y-73485000D01*
X84880290Y-73345309D01*
X85541818Y-73071295D01*
X86137177Y-72673489D01*
X86643489Y-72167177D01*
X86918896Y-71755000D01*
X112901323Y-71755000D01*
X112915997Y-71903986D01*
X112959454Y-72047247D01*
X113030026Y-72179276D01*
X113080693Y-72241014D01*
X113124999Y-72295001D01*
X113240724Y-72389974D01*
X113372753Y-72460546D01*
X113516014Y-72504003D01*
X113665000Y-72518677D01*
X113702333Y-72515000D01*
X118995884Y-72515000D01*
X125724228Y-79243345D01*
X125704870Y-79246213D01*
X125438708Y-79341397D01*
X125313486Y-79408329D01*
X125241903Y-79652298D01*
X126055000Y-80465395D01*
X126069143Y-80451253D01*
X126248748Y-80630858D01*
X126234605Y-80645000D01*
X127047702Y-81458097D01*
X127291671Y-81386514D01*
X127412571Y-81131004D01*
X127452519Y-80971636D01*
X131138728Y-84657846D01*
X131084774Y-84788102D01*
X131045000Y-84988061D01*
X131045000Y-85191939D01*
X131084774Y-85391898D01*
X131162795Y-85580256D01*
X131276063Y-85749774D01*
X131420226Y-85893937D01*
X131589744Y-86007205D01*
X131778102Y-86085226D01*
X131978061Y-86125000D01*
X132181939Y-86125000D01*
X132381898Y-86085226D01*
X132570256Y-86007205D01*
X132739774Y-85893937D01*
X132883937Y-85749774D01*
X132997205Y-85580256D01*
X133075226Y-85391898D01*
X133115000Y-85191939D01*
X133115000Y-84988061D01*
X133075226Y-84788102D01*
X132997205Y-84599744D01*
X132883937Y-84430226D01*
X132828987Y-84375276D01*
X132785546Y-84232068D01*
X132714974Y-84100039D01*
X132701811Y-84084000D01*
X132643799Y-84013311D01*
X132643795Y-84013307D01*
X132620001Y-83984314D01*
X132591008Y-83960520D01*
X121780486Y-73150000D01*
X122920987Y-73150000D01*
X122907795Y-73169744D01*
X122829774Y-73358102D01*
X122790000Y-73558061D01*
X122790000Y-73761939D01*
X122829774Y-73961898D01*
X122907795Y-74150256D01*
X123021063Y-74319774D01*
X123165226Y-74463937D01*
X123334744Y-74577205D01*
X123523102Y-74655226D01*
X123723061Y-74695000D01*
X123926939Y-74695000D01*
X124126898Y-74655226D01*
X124315256Y-74577205D01*
X124484774Y-74463937D01*
X124528711Y-74420000D01*
X129225199Y-74420000D01*
X138030000Y-83224802D01*
X138030000Y-83286939D01*
X138069774Y-83486898D01*
X138147795Y-83675256D01*
X138261063Y-83844774D01*
X138405226Y-83988937D01*
X138574744Y-84102205D01*
X138763102Y-84180226D01*
X138963061Y-84220000D01*
X139166939Y-84220000D01*
X139366898Y-84180226D01*
X139555256Y-84102205D01*
X139724774Y-83988937D01*
X139868937Y-83844774D01*
X139982205Y-83675256D01*
X140060226Y-83486898D01*
X140082934Y-83372736D01*
X141840000Y-85129802D01*
X141840000Y-85191939D01*
X141879774Y-85391898D01*
X141957795Y-85580256D01*
X142071063Y-85749774D01*
X142215226Y-85893937D01*
X142384744Y-86007205D01*
X142573102Y-86085226D01*
X142773061Y-86125000D01*
X142976939Y-86125000D01*
X143176898Y-86085226D01*
X143365256Y-86007205D01*
X143534774Y-85893937D01*
X143678937Y-85749774D01*
X143792205Y-85580256D01*
X143870226Y-85391898D01*
X143910000Y-85191939D01*
X143910000Y-84988061D01*
X143902164Y-84948665D01*
X145885000Y-84948665D01*
X145885000Y-85231335D01*
X145940147Y-85508574D01*
X146048320Y-85769727D01*
X146205363Y-86004759D01*
X146405241Y-86204637D01*
X146640273Y-86361680D01*
X146901426Y-86469853D01*
X147178665Y-86525000D01*
X147461335Y-86525000D01*
X147738574Y-86469853D01*
X147999727Y-86361680D01*
X148234759Y-86204637D01*
X148434637Y-86004759D01*
X148590000Y-85772241D01*
X148745363Y-86004759D01*
X148945241Y-86204637D01*
X149180273Y-86361680D01*
X149441426Y-86469853D01*
X149718665Y-86525000D01*
X150001335Y-86525000D01*
X150278574Y-86469853D01*
X150539727Y-86361680D01*
X150774759Y-86204637D01*
X150974637Y-86004759D01*
X151130000Y-85772241D01*
X151285363Y-86004759D01*
X151485241Y-86204637D01*
X151720273Y-86361680D01*
X151981426Y-86469853D01*
X152258665Y-86525000D01*
X152541335Y-86525000D01*
X152818574Y-86469853D01*
X153079727Y-86361680D01*
X153284284Y-86225000D01*
X154055716Y-86225000D01*
X154260273Y-86361680D01*
X154521426Y-86469853D01*
X154798665Y-86525000D01*
X155081335Y-86525000D01*
X155358574Y-86469853D01*
X155619727Y-86361680D01*
X155854759Y-86204637D01*
X156054637Y-86004759D01*
X156210000Y-85772241D01*
X156365363Y-86004759D01*
X156565241Y-86204637D01*
X156800273Y-86361680D01*
X157061426Y-86469853D01*
X157338665Y-86525000D01*
X157621335Y-86525000D01*
X157898574Y-86469853D01*
X158159727Y-86361680D01*
X158394759Y-86204637D01*
X158594637Y-86004759D01*
X158750000Y-85772241D01*
X158905363Y-86004759D01*
X159105241Y-86204637D01*
X159340273Y-86361680D01*
X159601426Y-86469853D01*
X159878665Y-86525000D01*
X160161335Y-86525000D01*
X160438574Y-86469853D01*
X160699727Y-86361680D01*
X160934759Y-86204637D01*
X161134637Y-86004759D01*
X161290000Y-85772241D01*
X161445363Y-86004759D01*
X161645241Y-86204637D01*
X161880273Y-86361680D01*
X162141426Y-86469853D01*
X162418665Y-86525000D01*
X162701335Y-86525000D01*
X162978574Y-86469853D01*
X163239727Y-86361680D01*
X163474759Y-86204637D01*
X163674637Y-86004759D01*
X163830000Y-85772241D01*
X163985363Y-86004759D01*
X164185241Y-86204637D01*
X164420273Y-86361680D01*
X164681426Y-86469853D01*
X164958665Y-86525000D01*
X165241335Y-86525000D01*
X165518574Y-86469853D01*
X165779727Y-86361680D01*
X166014759Y-86204637D01*
X166214637Y-86004759D01*
X166371680Y-85769727D01*
X166479853Y-85508574D01*
X166535000Y-85231335D01*
X166535000Y-84948665D01*
X166479853Y-84671426D01*
X166371680Y-84410273D01*
X166214637Y-84175241D01*
X166014759Y-83975363D01*
X165779727Y-83818320D01*
X165518574Y-83710147D01*
X165241335Y-83655000D01*
X164958665Y-83655000D01*
X164681426Y-83710147D01*
X164420273Y-83818320D01*
X164185241Y-83975363D01*
X163985363Y-84175241D01*
X163830000Y-84407759D01*
X163674637Y-84175241D01*
X163474759Y-83975363D01*
X163239727Y-83818320D01*
X162978574Y-83710147D01*
X162701335Y-83655000D01*
X162418665Y-83655000D01*
X162141426Y-83710147D01*
X161880273Y-83818320D01*
X161645241Y-83975363D01*
X161445363Y-84175241D01*
X161290000Y-84407759D01*
X161134637Y-84175241D01*
X160934759Y-83975363D01*
X160699727Y-83818320D01*
X160438574Y-83710147D01*
X160161335Y-83655000D01*
X159878665Y-83655000D01*
X159601426Y-83710147D01*
X159340273Y-83818320D01*
X159105241Y-83975363D01*
X158905363Y-84175241D01*
X158750000Y-84407759D01*
X158594637Y-84175241D01*
X158394759Y-83975363D01*
X158159727Y-83818320D01*
X157898574Y-83710147D01*
X157621335Y-83655000D01*
X157338665Y-83655000D01*
X157061426Y-83710147D01*
X156800273Y-83818320D01*
X156565241Y-83975363D01*
X156365363Y-84175241D01*
X156210000Y-84407759D01*
X156054637Y-84175241D01*
X155854759Y-83975363D01*
X155619727Y-83818320D01*
X155358574Y-83710147D01*
X155081335Y-83655000D01*
X154798665Y-83655000D01*
X154521426Y-83710147D01*
X154260273Y-83818320D01*
X154055716Y-83955000D01*
X153284284Y-83955000D01*
X153079727Y-83818320D01*
X152818574Y-83710147D01*
X152541335Y-83655000D01*
X152258665Y-83655000D01*
X151981426Y-83710147D01*
X151720273Y-83818320D01*
X151485241Y-83975363D01*
X151285363Y-84175241D01*
X151130000Y-84407759D01*
X150974637Y-84175241D01*
X150774759Y-83975363D01*
X150539727Y-83818320D01*
X150278574Y-83710147D01*
X150001335Y-83655000D01*
X149718665Y-83655000D01*
X149441426Y-83710147D01*
X149180273Y-83818320D01*
X148945241Y-83975363D01*
X148745363Y-84175241D01*
X148590000Y-84407759D01*
X148434637Y-84175241D01*
X148234759Y-83975363D01*
X147999727Y-83818320D01*
X147738574Y-83710147D01*
X147461335Y-83655000D01*
X147178665Y-83655000D01*
X146901426Y-83710147D01*
X146640273Y-83818320D01*
X146405241Y-83975363D01*
X146205363Y-84175241D01*
X146048320Y-84410273D01*
X145940147Y-84671426D01*
X145885000Y-84948665D01*
X143902164Y-84948665D01*
X143870226Y-84788102D01*
X143792205Y-84599744D01*
X143695490Y-84455000D01*
X143792205Y-84310256D01*
X143870226Y-84121898D01*
X143910000Y-83921939D01*
X143910000Y-83718061D01*
X143870226Y-83518102D01*
X143792205Y-83329744D01*
X143678937Y-83160226D01*
X143534774Y-83016063D01*
X143365256Y-82902795D01*
X143176898Y-82824774D01*
X142976939Y-82785000D01*
X142914802Y-82785000D01*
X135314026Y-75184224D01*
X157960381Y-75184224D01*
X158092317Y-75479312D01*
X158433045Y-75650159D01*
X158800557Y-75751250D01*
X159180729Y-75778701D01*
X159558951Y-75731457D01*
X159920690Y-75611333D01*
X160063498Y-75535000D01*
X161891928Y-75535000D01*
X161891928Y-78135000D01*
X161904188Y-78259482D01*
X161940498Y-78379180D01*
X161999463Y-78489494D01*
X162078815Y-78586185D01*
X162175506Y-78665537D01*
X162285820Y-78724502D01*
X162405518Y-78760812D01*
X162530000Y-78773072D01*
X165130000Y-78773072D01*
X165254482Y-78760812D01*
X165374180Y-78724502D01*
X165484494Y-78665537D01*
X165581185Y-78586185D01*
X165660537Y-78489494D01*
X165719502Y-78379180D01*
X165755812Y-78259482D01*
X165768072Y-78135000D01*
X165768072Y-77069221D01*
X170331000Y-77069221D01*
X170331000Y-77489779D01*
X170413047Y-77902256D01*
X170573988Y-78290802D01*
X170807637Y-78640483D01*
X171105017Y-78937863D01*
X171454698Y-79171512D01*
X171843244Y-79332453D01*
X172255721Y-79414500D01*
X172676279Y-79414500D01*
X173088756Y-79332453D01*
X173477302Y-79171512D01*
X173826983Y-78937863D01*
X174124363Y-78640483D01*
X174358012Y-78290802D01*
X174518953Y-77902256D01*
X174601000Y-77489779D01*
X174601000Y-77069221D01*
X174518953Y-76656744D01*
X174358012Y-76268198D01*
X174124363Y-75918517D01*
X173826983Y-75621137D01*
X173477302Y-75387488D01*
X173088756Y-75226547D01*
X172676279Y-75144500D01*
X172255721Y-75144500D01*
X171843244Y-75226547D01*
X171454698Y-75387488D01*
X171105017Y-75621137D01*
X170807637Y-75918517D01*
X170573988Y-76268198D01*
X170413047Y-76656744D01*
X170331000Y-77069221D01*
X165768072Y-77069221D01*
X165768072Y-75535000D01*
X165755812Y-75410518D01*
X165719502Y-75290820D01*
X165660537Y-75180506D01*
X165581185Y-75083815D01*
X165484494Y-75004463D01*
X165374180Y-74945498D01*
X165254482Y-74909188D01*
X165130000Y-74896928D01*
X162530000Y-74896928D01*
X162405518Y-74909188D01*
X162285820Y-74945498D01*
X162175506Y-75004463D01*
X162078815Y-75083815D01*
X161999463Y-75180506D01*
X161940498Y-75290820D01*
X161904188Y-75410518D01*
X161891928Y-75535000D01*
X160063498Y-75535000D01*
X160167683Y-75479312D01*
X160299619Y-75184224D01*
X159130000Y-74014605D01*
X157960381Y-75184224D01*
X135314026Y-75184224D01*
X134015531Y-73885729D01*
X157186299Y-73885729D01*
X157233543Y-74263951D01*
X157353667Y-74625690D01*
X157485688Y-74872683D01*
X157780776Y-75004619D01*
X158950395Y-73835000D01*
X159309605Y-73835000D01*
X160479224Y-75004619D01*
X160774312Y-74872683D01*
X160945159Y-74531955D01*
X161046250Y-74164443D01*
X161073701Y-73784271D01*
X161026457Y-73406049D01*
X160906333Y-73044310D01*
X160774312Y-72797317D01*
X160479224Y-72665381D01*
X159309605Y-73835000D01*
X158950395Y-73835000D01*
X157780776Y-72665381D01*
X157485688Y-72797317D01*
X157314841Y-73138045D01*
X157213750Y-73505557D01*
X157186299Y-73885729D01*
X134015531Y-73885729D01*
X132615578Y-72485776D01*
X157960381Y-72485776D01*
X159130000Y-73655395D01*
X160299619Y-72485776D01*
X160167683Y-72190688D01*
X160154792Y-72184224D01*
X162660381Y-72184224D01*
X162792317Y-72479312D01*
X163133045Y-72650159D01*
X163500557Y-72751250D01*
X163880729Y-72778701D01*
X164258951Y-72731457D01*
X164620690Y-72611333D01*
X164867683Y-72479312D01*
X164999619Y-72184224D01*
X163830000Y-71014605D01*
X162660381Y-72184224D01*
X160154792Y-72184224D01*
X159826955Y-72019841D01*
X159459443Y-71918750D01*
X159079271Y-71891299D01*
X158701049Y-71938543D01*
X158339310Y-72058667D01*
X158092317Y-72190688D01*
X157960381Y-72485776D01*
X132615578Y-72485776D01*
X131015531Y-70885729D01*
X161886299Y-70885729D01*
X161933543Y-71263951D01*
X162053667Y-71625690D01*
X162185688Y-71872683D01*
X162480776Y-72004619D01*
X163650395Y-70835000D01*
X164009605Y-70835000D01*
X165179224Y-72004619D01*
X165474312Y-71872683D01*
X165645159Y-71531955D01*
X165746250Y-71164443D01*
X165773701Y-70784271D01*
X165726457Y-70406049D01*
X165606333Y-70044310D01*
X165474312Y-69797317D01*
X165179224Y-69665381D01*
X164009605Y-70835000D01*
X163650395Y-70835000D01*
X162480776Y-69665381D01*
X162185688Y-69797317D01*
X162014841Y-70138045D01*
X161913750Y-70505557D01*
X161886299Y-70885729D01*
X131015531Y-70885729D01*
X129615578Y-69485776D01*
X162660381Y-69485776D01*
X163830000Y-70655395D01*
X164993411Y-69491984D01*
X169085000Y-69491984D01*
X169085000Y-70208016D01*
X169224691Y-70910290D01*
X169498705Y-71571818D01*
X169896511Y-72167177D01*
X170402823Y-72673489D01*
X170998182Y-73071295D01*
X171659710Y-73345309D01*
X172361984Y-73485000D01*
X173078016Y-73485000D01*
X173780290Y-73345309D01*
X174441818Y-73071295D01*
X175037177Y-72673489D01*
X175543489Y-72167177D01*
X175941295Y-71571818D01*
X176215309Y-70910290D01*
X176355000Y-70208016D01*
X176355000Y-69491984D01*
X176215309Y-68789710D01*
X175941295Y-68128182D01*
X175543489Y-67532823D01*
X175037177Y-67026511D01*
X174441818Y-66628705D01*
X173780290Y-66354691D01*
X173078016Y-66215000D01*
X172361984Y-66215000D01*
X171659710Y-66354691D01*
X170998182Y-66628705D01*
X170402823Y-67026511D01*
X169896511Y-67532823D01*
X169498705Y-68128182D01*
X169224691Y-68789710D01*
X169085000Y-69491984D01*
X164993411Y-69491984D01*
X164999619Y-69485776D01*
X164867683Y-69190688D01*
X164526955Y-69019841D01*
X164159443Y-68918750D01*
X163779271Y-68891299D01*
X163401049Y-68938543D01*
X163039310Y-69058667D01*
X162792317Y-69190688D01*
X162660381Y-69485776D01*
X129615578Y-69485776D01*
X126928804Y-66799003D01*
X126905001Y-66769999D01*
X126789276Y-66675026D01*
X126657247Y-66604454D01*
X126513986Y-66560997D01*
X126402333Y-66550000D01*
X126402322Y-66550000D01*
X126365000Y-66546324D01*
X126327678Y-66550000D01*
X122138072Y-66550000D01*
X122138072Y-66460000D01*
X122125812Y-66335518D01*
X122089502Y-66215820D01*
X122030537Y-66105506D01*
X121951185Y-66008815D01*
X121854494Y-65929463D01*
X121744180Y-65870498D01*
X121624482Y-65834188D01*
X121500000Y-65821928D01*
X119800000Y-65821928D01*
X119675518Y-65834188D01*
X119555820Y-65870498D01*
X119445506Y-65929463D01*
X119348815Y-66008815D01*
X119269463Y-66105506D01*
X119210498Y-66215820D01*
X119188487Y-66288380D01*
X119056632Y-66156525D01*
X118813411Y-65994010D01*
X118543158Y-65882068D01*
X118256260Y-65825000D01*
X117963740Y-65825000D01*
X117676842Y-65882068D01*
X117406589Y-65994010D01*
X117163368Y-66156525D01*
X116956525Y-66363368D01*
X116840000Y-66537760D01*
X116723475Y-66363368D01*
X116516632Y-66156525D01*
X116273411Y-65994010D01*
X116003158Y-65882068D01*
X115716260Y-65825000D01*
X115423740Y-65825000D01*
X115136842Y-65882068D01*
X114866589Y-65994010D01*
X114623368Y-66156525D01*
X114416525Y-66363368D01*
X114254010Y-66606589D01*
X114142068Y-66876842D01*
X114085000Y-67163740D01*
X114085000Y-67456260D01*
X114128790Y-67676408D01*
X113153998Y-68651201D01*
X113125000Y-68674999D01*
X113101202Y-68703997D01*
X113101201Y-68703998D01*
X113030026Y-68790724D01*
X112959454Y-68922754D01*
X112915998Y-69066015D01*
X112901324Y-69215000D01*
X112905001Y-69252332D01*
X112905000Y-71717667D01*
X112901323Y-71755000D01*
X86918896Y-71755000D01*
X87041295Y-71571818D01*
X87315309Y-70910290D01*
X87455000Y-70208016D01*
X87455000Y-69491984D01*
X87393471Y-69182653D01*
X94890452Y-69182653D01*
X95046462Y-69498214D01*
X95421245Y-69689020D01*
X95826051Y-69803044D01*
X96245324Y-69835902D01*
X96662951Y-69786334D01*
X97062883Y-69656243D01*
X97358538Y-69498214D01*
X97514548Y-69182653D01*
X96202500Y-67870605D01*
X94890452Y-69182653D01*
X87393471Y-69182653D01*
X87315309Y-68789710D01*
X87041295Y-68128182D01*
X86777794Y-67733824D01*
X94057598Y-67733824D01*
X94107166Y-68151451D01*
X94237257Y-68551383D01*
X94395286Y-68847038D01*
X94710847Y-69003048D01*
X96022895Y-67691000D01*
X96382105Y-67691000D01*
X97694153Y-69003048D01*
X98009714Y-68847038D01*
X98200520Y-68472255D01*
X98314544Y-68067449D01*
X98347402Y-67648176D01*
X98312454Y-67353721D01*
X100735000Y-67353721D01*
X100735000Y-67774279D01*
X100817047Y-68186756D01*
X100977988Y-68575302D01*
X101211637Y-68924983D01*
X101509017Y-69222363D01*
X101858698Y-69456012D01*
X102247244Y-69616953D01*
X102659721Y-69699000D01*
X103080279Y-69699000D01*
X103492756Y-69616953D01*
X103881302Y-69456012D01*
X104230983Y-69222363D01*
X104528363Y-68924983D01*
X104762012Y-68575302D01*
X104922953Y-68186756D01*
X105005000Y-67774279D01*
X105005000Y-67353721D01*
X104922953Y-66941244D01*
X104762012Y-66552698D01*
X104528363Y-66203017D01*
X104230983Y-65905637D01*
X103881302Y-65671988D01*
X103492756Y-65511047D01*
X103080279Y-65429000D01*
X102659721Y-65429000D01*
X102247244Y-65511047D01*
X101858698Y-65671988D01*
X101509017Y-65905637D01*
X101211637Y-66203017D01*
X100977988Y-66552698D01*
X100817047Y-66941244D01*
X100735000Y-67353721D01*
X98312454Y-67353721D01*
X98297834Y-67230549D01*
X98167743Y-66830617D01*
X98009714Y-66534962D01*
X97694153Y-66378952D01*
X96382105Y-67691000D01*
X96022895Y-67691000D01*
X94710847Y-66378952D01*
X94395286Y-66534962D01*
X94204480Y-66909745D01*
X94090456Y-67314551D01*
X94057598Y-67733824D01*
X86777794Y-67733824D01*
X86643489Y-67532823D01*
X86137177Y-67026511D01*
X85541818Y-66628705D01*
X84880290Y-66354691D01*
X84178016Y-66215000D01*
X83461984Y-66215000D01*
X82759710Y-66354691D01*
X82098182Y-66628705D01*
X81502823Y-67026511D01*
X80996511Y-67532823D01*
X80598705Y-68128182D01*
X80324691Y-68789710D01*
X80185000Y-69491984D01*
X79502000Y-69491984D01*
X79502000Y-66199347D01*
X94890452Y-66199347D01*
X96202500Y-67511395D01*
X97514548Y-66199347D01*
X97358538Y-65883786D01*
X96983755Y-65692980D01*
X96578949Y-65578956D01*
X96159676Y-65546098D01*
X95742049Y-65595666D01*
X95342117Y-65725757D01*
X95046462Y-65883786D01*
X94890452Y-66199347D01*
X79502000Y-66199347D01*
X79502000Y-63627000D01*
X177038000Y-63627000D01*
X177038000Y-110363000D01*
G04 #@! TA.AperFunction,Conductor*
D26*
G36*
X177038000Y-110363000D02*
G01*
X79502000Y-110363000D01*
X79502000Y-105686984D01*
X80185000Y-105686984D01*
X80185000Y-106403016D01*
X80324691Y-107105290D01*
X80598705Y-107766818D01*
X80996511Y-108362177D01*
X81502823Y-108868489D01*
X82098182Y-109266295D01*
X82759710Y-109540309D01*
X83461984Y-109680000D01*
X84178016Y-109680000D01*
X84880290Y-109540309D01*
X85541818Y-109266295D01*
X86137177Y-108868489D01*
X86643489Y-108362177D01*
X87041295Y-107766818D01*
X87315309Y-107105290D01*
X87455000Y-106403016D01*
X87455000Y-105686984D01*
X87315309Y-104984710D01*
X87141459Y-104564999D01*
X131841928Y-104564999D01*
X131841928Y-106255001D01*
X131858992Y-106428255D01*
X131909528Y-106594851D01*
X131991595Y-106748387D01*
X132102038Y-106882962D01*
X132236613Y-106993405D01*
X132390149Y-107075472D01*
X132556745Y-107126008D01*
X132729999Y-107143072D01*
X133970001Y-107143072D01*
X134143255Y-107126008D01*
X134309851Y-107075472D01*
X134463387Y-106993405D01*
X134597962Y-106882962D01*
X134708405Y-106748387D01*
X134766655Y-106639410D01*
X134923674Y-106798306D01*
X135169191Y-106964474D01*
X135442409Y-107079551D01*
X135529969Y-107096302D01*
X135763000Y-106975246D01*
X135763000Y-105537000D01*
X135743000Y-105537000D01*
X135743000Y-105283000D01*
X135763000Y-105283000D01*
X135763000Y-103844754D01*
X136017000Y-103844754D01*
X136017000Y-105283000D01*
X136037000Y-105283000D01*
X136037000Y-105537000D01*
X136017000Y-105537000D01*
X136017000Y-106975246D01*
X136250031Y-107096302D01*
X136337591Y-107079551D01*
X136610809Y-106964474D01*
X136856326Y-106798306D01*
X137064708Y-106587433D01*
X137157440Y-106446848D01*
X137172583Y-106475179D01*
X137360655Y-106704345D01*
X137589822Y-106892417D01*
X137851276Y-107032166D01*
X138134969Y-107118224D01*
X138430000Y-107147282D01*
X138725032Y-107118224D01*
X139008725Y-107032166D01*
X139270179Y-106892417D01*
X139499345Y-106704345D01*
X139687417Y-106475179D01*
X139702560Y-106446848D01*
X139795292Y-106587433D01*
X140003674Y-106798306D01*
X140249191Y-106964474D01*
X140522409Y-107079551D01*
X140609969Y-107096302D01*
X140843000Y-106975246D01*
X140843000Y-105537000D01*
X140823000Y-105537000D01*
X140823000Y-105283000D01*
X140843000Y-105283000D01*
X140843000Y-103844754D01*
X141097000Y-103844754D01*
X141097000Y-105283000D01*
X141117000Y-105283000D01*
X141117000Y-105537000D01*
X141097000Y-105537000D01*
X141097000Y-106975246D01*
X141330031Y-107096302D01*
X141417591Y-107079551D01*
X141690809Y-106964474D01*
X141936326Y-106798306D01*
X142144708Y-106587433D01*
X142237440Y-106446848D01*
X142252583Y-106475179D01*
X142440655Y-106704345D01*
X142669822Y-106892417D01*
X142931276Y-107032166D01*
X143214969Y-107118224D01*
X143510000Y-107147282D01*
X143805032Y-107118224D01*
X144088725Y-107032166D01*
X144350179Y-106892417D01*
X144579345Y-106704345D01*
X144767417Y-106475179D01*
X144907166Y-106213724D01*
X144993224Y-105930031D01*
X145015000Y-105708935D01*
X145015000Y-105111064D01*
X144993224Y-104889968D01*
X144907166Y-104606275D01*
X144767417Y-104344821D01*
X144579345Y-104115655D01*
X144350178Y-103927583D01*
X144088724Y-103787834D01*
X143805031Y-103701776D01*
X143510000Y-103672718D01*
X143214968Y-103701776D01*
X142931275Y-103787834D01*
X142669821Y-103927583D01*
X142440655Y-104115655D01*
X142252583Y-104344822D01*
X142237440Y-104373152D01*
X142144708Y-104232567D01*
X141936326Y-104021694D01*
X141690809Y-103855526D01*
X141417591Y-103740449D01*
X141330031Y-103723698D01*
X141097000Y-103844754D01*
X140843000Y-103844754D01*
X140609969Y-103723698D01*
X140522409Y-103740449D01*
X140249191Y-103855526D01*
X140003674Y-104021694D01*
X139795292Y-104232567D01*
X139702560Y-104373152D01*
X139687417Y-104344821D01*
X139499345Y-104115655D01*
X139270178Y-103927583D01*
X139008724Y-103787834D01*
X138725031Y-103701776D01*
X138430000Y-103672718D01*
X138134968Y-103701776D01*
X137851275Y-103787834D01*
X137589821Y-103927583D01*
X137360655Y-104115655D01*
X137172583Y-104344822D01*
X137157440Y-104373152D01*
X137064708Y-104232567D01*
X136856326Y-104021694D01*
X136610809Y-103855526D01*
X136337591Y-103740449D01*
X136250031Y-103723698D01*
X136017000Y-103844754D01*
X135763000Y-103844754D01*
X135529969Y-103723698D01*
X135442409Y-103740449D01*
X135169191Y-103855526D01*
X134923674Y-104021694D01*
X134766655Y-104180590D01*
X134708405Y-104071613D01*
X134597962Y-103937038D01*
X134463387Y-103826595D01*
X134309851Y-103744528D01*
X134143255Y-103693992D01*
X133970001Y-103676928D01*
X132729999Y-103676928D01*
X132556745Y-103693992D01*
X132390149Y-103744528D01*
X132236613Y-103826595D01*
X132102038Y-103937038D01*
X131991595Y-104071613D01*
X131909528Y-104225149D01*
X131858992Y-104391745D01*
X131841928Y-104564999D01*
X87141459Y-104564999D01*
X87041295Y-104323182D01*
X86643489Y-103727823D01*
X86137177Y-103221511D01*
X85541818Y-102823705D01*
X84880290Y-102549691D01*
X84178016Y-102410000D01*
X83461984Y-102410000D01*
X82759710Y-102549691D01*
X82098182Y-102823705D01*
X81502823Y-103221511D01*
X80996511Y-103727823D01*
X80598705Y-104323182D01*
X80324691Y-104984710D01*
X80185000Y-105686984D01*
X79502000Y-105686984D01*
X79502000Y-102113721D01*
X91525000Y-102113721D01*
X91525000Y-102534279D01*
X91607047Y-102946756D01*
X91767988Y-103335302D01*
X92001637Y-103684983D01*
X92299017Y-103982363D01*
X92648698Y-104216012D01*
X93037244Y-104376953D01*
X93449721Y-104459000D01*
X93870279Y-104459000D01*
X94282756Y-104376953D01*
X94671302Y-104216012D01*
X95020983Y-103982363D01*
X95318363Y-103684983D01*
X95552012Y-103335302D01*
X95712953Y-102946756D01*
X95795000Y-102534279D01*
X95795000Y-102113721D01*
X115025000Y-102113721D01*
X115025000Y-102534279D01*
X115107047Y-102946756D01*
X115267988Y-103335302D01*
X115501637Y-103684983D01*
X115799017Y-103982363D01*
X116148698Y-104216012D01*
X116537244Y-104376953D01*
X116949721Y-104459000D01*
X117370279Y-104459000D01*
X117782756Y-104376953D01*
X118171302Y-104216012D01*
X118520983Y-103982363D01*
X118818363Y-103684983D01*
X119052012Y-103335302D01*
X119212953Y-102946756D01*
X119295000Y-102534279D01*
X119295000Y-102113721D01*
X119212953Y-101701244D01*
X119052012Y-101312698D01*
X118818363Y-100963017D01*
X118520983Y-100665637D01*
X118171302Y-100431988D01*
X117782756Y-100271047D01*
X117370279Y-100189000D01*
X116949721Y-100189000D01*
X116537244Y-100271047D01*
X116148698Y-100431988D01*
X115799017Y-100665637D01*
X115501637Y-100963017D01*
X115267988Y-101312698D01*
X115107047Y-101701244D01*
X115025000Y-102113721D01*
X95795000Y-102113721D01*
X95712953Y-101701244D01*
X95552012Y-101312698D01*
X95318363Y-100963017D01*
X95020983Y-100665637D01*
X94671302Y-100431988D01*
X94282756Y-100271047D01*
X93870279Y-100189000D01*
X93449721Y-100189000D01*
X93037244Y-100271047D01*
X92648698Y-100431988D01*
X92299017Y-100665637D01*
X92001637Y-100963017D01*
X91767988Y-101312698D01*
X91607047Y-101701244D01*
X91525000Y-102113721D01*
X79502000Y-102113721D01*
X79502000Y-101531013D01*
X81544592Y-101531013D01*
X81640356Y-101795414D01*
X81929971Y-101936304D01*
X82241508Y-102017984D01*
X82562995Y-102037318D01*
X82882075Y-101993561D01*
X83186488Y-101888395D01*
X83360444Y-101795414D01*
X83456208Y-101531013D01*
X88044592Y-101531013D01*
X88140356Y-101795414D01*
X88429971Y-101936304D01*
X88741508Y-102017984D01*
X89062995Y-102037318D01*
X89382075Y-101993561D01*
X89686488Y-101888395D01*
X89860444Y-101795414D01*
X89956208Y-101531013D01*
X89000400Y-100575205D01*
X88044592Y-101531013D01*
X83456208Y-101531013D01*
X82500400Y-100575205D01*
X81544592Y-101531013D01*
X79502000Y-101531013D01*
X79502000Y-100458195D01*
X80858682Y-100458195D01*
X80902439Y-100777275D01*
X81007605Y-101081688D01*
X81100586Y-101255644D01*
X81364987Y-101351408D01*
X82320795Y-100395600D01*
X82680005Y-100395600D01*
X83635813Y-101351408D01*
X83900214Y-101255644D01*
X84041104Y-100966029D01*
X84122784Y-100654492D01*
X84134589Y-100458195D01*
X87358682Y-100458195D01*
X87402439Y-100777275D01*
X87507605Y-101081688D01*
X87600586Y-101255644D01*
X87864987Y-101351408D01*
X88820795Y-100395600D01*
X89180005Y-100395600D01*
X90135813Y-101351408D01*
X90400214Y-101255644D01*
X90541104Y-100966029D01*
X90622784Y-100654492D01*
X90642118Y-100333005D01*
X90598361Y-100013925D01*
X90493195Y-99709512D01*
X90400214Y-99535556D01*
X90135813Y-99439792D01*
X89180005Y-100395600D01*
X88820795Y-100395600D01*
X87864987Y-99439792D01*
X87600586Y-99535556D01*
X87459696Y-99825171D01*
X87378016Y-100136708D01*
X87358682Y-100458195D01*
X84134589Y-100458195D01*
X84142118Y-100333005D01*
X84098361Y-100013925D01*
X83993195Y-99709512D01*
X83900214Y-99535556D01*
X83635813Y-99439792D01*
X82680005Y-100395600D01*
X82320795Y-100395600D01*
X81364987Y-99439792D01*
X81100586Y-99535556D01*
X80959696Y-99825171D01*
X80878016Y-100136708D01*
X80858682Y-100458195D01*
X79502000Y-100458195D01*
X79502000Y-99260187D01*
X81544592Y-99260187D01*
X82500400Y-100215995D01*
X83456208Y-99260187D01*
X88044592Y-99260187D01*
X89000400Y-100215995D01*
X89956208Y-99260187D01*
X89860444Y-98995786D01*
X89570829Y-98854896D01*
X89259292Y-98773216D01*
X88937805Y-98753882D01*
X88618725Y-98797639D01*
X88314312Y-98902805D01*
X88140356Y-98995786D01*
X88044592Y-99260187D01*
X83456208Y-99260187D01*
X83360444Y-98995786D01*
X83070829Y-98854896D01*
X82759292Y-98773216D01*
X82437805Y-98753882D01*
X82118725Y-98797639D01*
X81814312Y-98902805D01*
X81640356Y-98995786D01*
X81544592Y-99260187D01*
X79502000Y-99260187D01*
X79502000Y-98590000D01*
X145881928Y-98590000D01*
X145894188Y-98714482D01*
X145930498Y-98834180D01*
X145989463Y-98944494D01*
X146068815Y-99041185D01*
X146165506Y-99120537D01*
X146275820Y-99179502D01*
X146395518Y-99215812D01*
X146520000Y-99228072D01*
X147034250Y-99225000D01*
X147193000Y-99066250D01*
X147193000Y-97917000D01*
X146043750Y-97917000D01*
X145885000Y-98075750D01*
X145881928Y-98590000D01*
X79502000Y-98590000D01*
X79502000Y-91371013D01*
X81544592Y-91371013D01*
X81640356Y-91635414D01*
X81929971Y-91776304D01*
X82241508Y-91857984D01*
X82562995Y-91877318D01*
X82882075Y-91833561D01*
X83186488Y-91728395D01*
X83360444Y-91635414D01*
X83456208Y-91371013D01*
X88044592Y-91371013D01*
X88140356Y-91635414D01*
X88429971Y-91776304D01*
X88741508Y-91857984D01*
X89062995Y-91877318D01*
X89382075Y-91833561D01*
X89686488Y-91728395D01*
X89860444Y-91635414D01*
X89956208Y-91371013D01*
X89000400Y-90415205D01*
X88044592Y-91371013D01*
X83456208Y-91371013D01*
X82500400Y-90415205D01*
X81544592Y-91371013D01*
X79502000Y-91371013D01*
X79502000Y-90298195D01*
X80858682Y-90298195D01*
X80902439Y-90617275D01*
X81007605Y-90921688D01*
X81100586Y-91095644D01*
X81364987Y-91191408D01*
X82320795Y-90235600D01*
X82680005Y-90235600D01*
X83635813Y-91191408D01*
X83900214Y-91095644D01*
X84041104Y-90806029D01*
X84122784Y-90494492D01*
X84134589Y-90298195D01*
X87358682Y-90298195D01*
X87402439Y-90617275D01*
X87507605Y-90921688D01*
X87600586Y-91095644D01*
X87864987Y-91191408D01*
X88820795Y-90235600D01*
X89180005Y-90235600D01*
X90135813Y-91191408D01*
X90400214Y-91095644D01*
X90541104Y-90806029D01*
X90622784Y-90494492D01*
X90642118Y-90173005D01*
X90598361Y-89853925D01*
X90493195Y-89549512D01*
X90400214Y-89375556D01*
X90135813Y-89279792D01*
X89180005Y-90235600D01*
X88820795Y-90235600D01*
X87864987Y-89279792D01*
X87600586Y-89375556D01*
X87459696Y-89665171D01*
X87378016Y-89976708D01*
X87358682Y-90298195D01*
X84134589Y-90298195D01*
X84142118Y-90173005D01*
X84098361Y-89853925D01*
X83993195Y-89549512D01*
X83900214Y-89375556D01*
X83635813Y-89279792D01*
X82680005Y-90235600D01*
X82320795Y-90235600D01*
X81364987Y-89279792D01*
X81100586Y-89375556D01*
X80959696Y-89665171D01*
X80878016Y-89976708D01*
X80858682Y-90298195D01*
X79502000Y-90298195D01*
X79502000Y-89100187D01*
X81544592Y-89100187D01*
X82500400Y-90055995D01*
X83456208Y-89100187D01*
X88044592Y-89100187D01*
X89000400Y-90055995D01*
X89956208Y-89100187D01*
X89860444Y-88835786D01*
X89570829Y-88694896D01*
X89259292Y-88613216D01*
X88937805Y-88593882D01*
X88618725Y-88637639D01*
X88314312Y-88742805D01*
X88140356Y-88835786D01*
X88044592Y-89100187D01*
X83456208Y-89100187D01*
X83360444Y-88835786D01*
X83070829Y-88694896D01*
X82759292Y-88613216D01*
X82437805Y-88593882D01*
X82118725Y-88637639D01*
X81814312Y-88742805D01*
X81640356Y-88835786D01*
X81544592Y-89100187D01*
X79502000Y-89100187D01*
X79502000Y-81211013D01*
X81544592Y-81211013D01*
X81640356Y-81475414D01*
X81929971Y-81616304D01*
X82241508Y-81697984D01*
X82562995Y-81717318D01*
X82882075Y-81673561D01*
X83186488Y-81568395D01*
X83360444Y-81475414D01*
X83456208Y-81211013D01*
X88044592Y-81211013D01*
X88140356Y-81475414D01*
X88429971Y-81616304D01*
X88741508Y-81697984D01*
X89062995Y-81717318D01*
X89382075Y-81673561D01*
X89686488Y-81568395D01*
X89860444Y-81475414D01*
X89956208Y-81211013D01*
X89000400Y-80255205D01*
X88044592Y-81211013D01*
X83456208Y-81211013D01*
X82500400Y-80255205D01*
X81544592Y-81211013D01*
X79502000Y-81211013D01*
X79502000Y-80138195D01*
X80858682Y-80138195D01*
X80902439Y-80457275D01*
X81007605Y-80761688D01*
X81100586Y-80935644D01*
X81364987Y-81031408D01*
X82320795Y-80075600D01*
X82680005Y-80075600D01*
X83635813Y-81031408D01*
X83900214Y-80935644D01*
X84041104Y-80646029D01*
X84122784Y-80334492D01*
X84134589Y-80138195D01*
X87358682Y-80138195D01*
X87402439Y-80457275D01*
X87507605Y-80761688D01*
X87600586Y-80935644D01*
X87864987Y-81031408D01*
X88820795Y-80075600D01*
X89180005Y-80075600D01*
X90135813Y-81031408D01*
X90400214Y-80935644D01*
X90541104Y-80646029D01*
X90622784Y-80334492D01*
X90642118Y-80013005D01*
X90598361Y-79693925D01*
X90493195Y-79389512D01*
X90400214Y-79215556D01*
X90135813Y-79119792D01*
X89180005Y-80075600D01*
X88820795Y-80075600D01*
X87864987Y-79119792D01*
X87600586Y-79215556D01*
X87459696Y-79505171D01*
X87378016Y-79816708D01*
X87358682Y-80138195D01*
X84134589Y-80138195D01*
X84142118Y-80013005D01*
X84098361Y-79693925D01*
X83993195Y-79389512D01*
X83900214Y-79215556D01*
X83635813Y-79119792D01*
X82680005Y-80075600D01*
X82320795Y-80075600D01*
X81364987Y-79119792D01*
X81100586Y-79215556D01*
X80959696Y-79505171D01*
X80878016Y-79816708D01*
X80858682Y-80138195D01*
X79502000Y-80138195D01*
X79502000Y-78940187D01*
X81544592Y-78940187D01*
X82500400Y-79895995D01*
X83456208Y-78940187D01*
X88044592Y-78940187D01*
X89000400Y-79895995D01*
X89956208Y-78940187D01*
X89860444Y-78675786D01*
X89570829Y-78534896D01*
X89259292Y-78453216D01*
X88937805Y-78433882D01*
X88618725Y-78477639D01*
X88314312Y-78582805D01*
X88140356Y-78675786D01*
X88044592Y-78940187D01*
X83456208Y-78940187D01*
X83360444Y-78675786D01*
X83070829Y-78534896D01*
X82759292Y-78453216D01*
X82437805Y-78433882D01*
X82118725Y-78477639D01*
X81814312Y-78582805D01*
X81640356Y-78675786D01*
X81544592Y-78940187D01*
X79502000Y-78940187D01*
X79502000Y-78313721D01*
X91525000Y-78313721D01*
X91525000Y-78734279D01*
X91607047Y-79146756D01*
X91767988Y-79535302D01*
X92001637Y-79884983D01*
X92299017Y-80182363D01*
X92648698Y-80416012D01*
X93037244Y-80576953D01*
X93449721Y-80659000D01*
X93870279Y-80659000D01*
X94282756Y-80576953D01*
X94671302Y-80416012D01*
X95020983Y-80182363D01*
X95318363Y-79884983D01*
X95552012Y-79535302D01*
X95712953Y-79146756D01*
X95795000Y-78734279D01*
X95795000Y-78313721D01*
X95712953Y-77901244D01*
X95552012Y-77512698D01*
X95318363Y-77163017D01*
X95020983Y-76865637D01*
X94671302Y-76631988D01*
X94282756Y-76471047D01*
X93870279Y-76389000D01*
X93449721Y-76389000D01*
X93037244Y-76471047D01*
X92648698Y-76631988D01*
X92299017Y-76865637D01*
X92001637Y-77163017D01*
X91767988Y-77512698D01*
X91607047Y-77901244D01*
X91525000Y-78313721D01*
X79502000Y-78313721D01*
X79502000Y-75414567D01*
X80865400Y-75414567D01*
X80865400Y-75736633D01*
X80928232Y-76052512D01*
X81051482Y-76350063D01*
X81230413Y-76617852D01*
X81458148Y-76845587D01*
X81725937Y-77024518D01*
X82023488Y-77147768D01*
X82339367Y-77210600D01*
X82661433Y-77210600D01*
X82977312Y-77147768D01*
X83274863Y-77024518D01*
X83542652Y-76845587D01*
X83770387Y-76617852D01*
X83949318Y-76350063D01*
X83955309Y-76335600D01*
X87545491Y-76335600D01*
X87551482Y-76350063D01*
X87730413Y-76617852D01*
X87958148Y-76845587D01*
X88225937Y-77024518D01*
X88523488Y-77147768D01*
X88839367Y-77210600D01*
X89161433Y-77210600D01*
X89477312Y-77147768D01*
X89774863Y-77024518D01*
X90042652Y-76845587D01*
X90270387Y-76617852D01*
X90449318Y-76350063D01*
X90455309Y-76335600D01*
X97254797Y-76335600D01*
X111600203Y-90681008D01*
X111623997Y-90710001D01*
X111652990Y-90733795D01*
X111652994Y-90733799D01*
X111723683Y-90791811D01*
X111739722Y-90804974D01*
X111871751Y-90875546D01*
X112001819Y-90915001D01*
X107229804Y-90915001D01*
X101539404Y-85224603D01*
X101515601Y-85195599D01*
X101399876Y-85100626D01*
X101267847Y-85030054D01*
X101124586Y-84986597D01*
X101012933Y-84975600D01*
X101012922Y-84975600D01*
X100975600Y-84971924D01*
X100938278Y-84975600D01*
X90455309Y-84975600D01*
X90449318Y-84961137D01*
X90270387Y-84693348D01*
X90042652Y-84465613D01*
X89774863Y-84286682D01*
X89477312Y-84163432D01*
X89161433Y-84100600D01*
X88839367Y-84100600D01*
X88523488Y-84163432D01*
X88225937Y-84286682D01*
X87958148Y-84465613D01*
X87730413Y-84693348D01*
X87551482Y-84961137D01*
X87545491Y-84975600D01*
X83955309Y-84975600D01*
X83949318Y-84961137D01*
X83770387Y-84693348D01*
X83542652Y-84465613D01*
X83274863Y-84286682D01*
X82977312Y-84163432D01*
X82661433Y-84100600D01*
X82339367Y-84100600D01*
X82023488Y-84163432D01*
X81725937Y-84286682D01*
X81458148Y-84465613D01*
X81230413Y-84693348D01*
X81051482Y-84961137D01*
X80928232Y-85258688D01*
X80865400Y-85574567D01*
X80865400Y-85896633D01*
X80928232Y-86212512D01*
X81051482Y-86510063D01*
X81230413Y-86777852D01*
X81458148Y-87005587D01*
X81725937Y-87184518D01*
X82023488Y-87307768D01*
X82339367Y-87370600D01*
X82661433Y-87370600D01*
X82977312Y-87307768D01*
X83274863Y-87184518D01*
X83542652Y-87005587D01*
X83770387Y-86777852D01*
X83949318Y-86510063D01*
X83955309Y-86495600D01*
X87545491Y-86495600D01*
X87551482Y-86510063D01*
X87730413Y-86777852D01*
X87958148Y-87005587D01*
X88225937Y-87184518D01*
X88523488Y-87307768D01*
X88839367Y-87370600D01*
X89161433Y-87370600D01*
X89477312Y-87307768D01*
X89774863Y-87184518D01*
X90042652Y-87005587D01*
X90270387Y-86777852D01*
X90449318Y-86510063D01*
X90455309Y-86495600D01*
X100660799Y-86495600D01*
X106351206Y-92186009D01*
X106375000Y-92215002D01*
X106403993Y-92238796D01*
X106403997Y-92238800D01*
X106474686Y-92296812D01*
X106490725Y-92309975D01*
X106622754Y-92380547D01*
X106766015Y-92424004D01*
X106877668Y-92435001D01*
X106877677Y-92435001D01*
X106915000Y-92438677D01*
X106952323Y-92435001D01*
X107810971Y-92435001D01*
X107799534Y-92452118D01*
X107657439Y-92795166D01*
X107585000Y-93159344D01*
X107585000Y-93530656D01*
X107657439Y-93894834D01*
X107799534Y-94237882D01*
X108005825Y-94546618D01*
X108268382Y-94809175D01*
X108577118Y-95015466D01*
X108867147Y-95135600D01*
X96872853Y-95135600D01*
X97162882Y-95015466D01*
X97471618Y-94809175D01*
X97734175Y-94546618D01*
X97940466Y-94237882D01*
X98082561Y-93894834D01*
X98155000Y-93530656D01*
X98155000Y-93159344D01*
X98082561Y-92795166D01*
X97940466Y-92452118D01*
X97734175Y-92143382D01*
X97471618Y-91880825D01*
X97162882Y-91674534D01*
X96819834Y-91532439D01*
X96455656Y-91460000D01*
X96084344Y-91460000D01*
X95720166Y-91532439D01*
X95377118Y-91674534D01*
X95068382Y-91880825D01*
X94805825Y-92143382D01*
X94599534Y-92452118D01*
X94457439Y-92795166D01*
X94385000Y-93159344D01*
X94385000Y-93530656D01*
X94457439Y-93894834D01*
X94599534Y-94237882D01*
X94805825Y-94546618D01*
X95068382Y-94809175D01*
X95377118Y-95015466D01*
X95667147Y-95135600D01*
X90455309Y-95135600D01*
X90449318Y-95121137D01*
X90270387Y-94853348D01*
X90042652Y-94625613D01*
X89774863Y-94446682D01*
X89477312Y-94323432D01*
X89161433Y-94260600D01*
X88839367Y-94260600D01*
X88523488Y-94323432D01*
X88225937Y-94446682D01*
X87958148Y-94625613D01*
X87730413Y-94853348D01*
X87551482Y-95121137D01*
X87545491Y-95135600D01*
X83955309Y-95135600D01*
X83949318Y-95121137D01*
X83770387Y-94853348D01*
X83542652Y-94625613D01*
X83274863Y-94446682D01*
X82977312Y-94323432D01*
X82661433Y-94260600D01*
X82339367Y-94260600D01*
X82023488Y-94323432D01*
X81725937Y-94446682D01*
X81458148Y-94625613D01*
X81230413Y-94853348D01*
X81051482Y-95121137D01*
X80928232Y-95418688D01*
X80865400Y-95734567D01*
X80865400Y-96056633D01*
X80928232Y-96372512D01*
X81051482Y-96670063D01*
X81230413Y-96937852D01*
X81458148Y-97165587D01*
X81725937Y-97344518D01*
X82023488Y-97467768D01*
X82339367Y-97530600D01*
X82661433Y-97530600D01*
X82977312Y-97467768D01*
X83274863Y-97344518D01*
X83542652Y-97165587D01*
X83770387Y-96937852D01*
X83949318Y-96670063D01*
X83955309Y-96655600D01*
X87545491Y-96655600D01*
X87551482Y-96670063D01*
X87730413Y-96937852D01*
X87958148Y-97165587D01*
X88225937Y-97344518D01*
X88523488Y-97467768D01*
X88839367Y-97530600D01*
X89161433Y-97530600D01*
X89477312Y-97467768D01*
X89774863Y-97344518D01*
X90042652Y-97165587D01*
X90218239Y-96990000D01*
X145881928Y-96990000D01*
X145885000Y-97504250D01*
X146043750Y-97663000D01*
X147193000Y-97663000D01*
X147193000Y-96513750D01*
X147447000Y-96513750D01*
X147447000Y-97663000D01*
X147467000Y-97663000D01*
X147467000Y-97917000D01*
X147447000Y-97917000D01*
X147447000Y-99066250D01*
X147605750Y-99225000D01*
X148120000Y-99228072D01*
X148244482Y-99215812D01*
X148364180Y-99179502D01*
X148474494Y-99120537D01*
X148571185Y-99041185D01*
X148650537Y-98944494D01*
X148709502Y-98834180D01*
X148745812Y-98714482D01*
X148746643Y-98706039D01*
X148945241Y-98904637D01*
X149180273Y-99061680D01*
X149441426Y-99169853D01*
X149718665Y-99225000D01*
X150001335Y-99225000D01*
X150278574Y-99169853D01*
X150539727Y-99061680D01*
X150774759Y-98904637D01*
X150974637Y-98704759D01*
X151130000Y-98472241D01*
X151265000Y-98674284D01*
X151265001Y-102814239D01*
X151259509Y-102870000D01*
X151281423Y-103092498D01*
X151346324Y-103306446D01*
X151346325Y-103306447D01*
X151451717Y-103503623D01*
X151593552Y-103676449D01*
X151636860Y-103711991D01*
X152211022Y-104286154D01*
X152178992Y-104391745D01*
X152161928Y-104564999D01*
X152161928Y-106255001D01*
X152178992Y-106428255D01*
X152229528Y-106594851D01*
X152311595Y-106748387D01*
X152422038Y-106882962D01*
X152556613Y-106993405D01*
X152710149Y-107075472D01*
X152876745Y-107126008D01*
X153049999Y-107143072D01*
X154290001Y-107143072D01*
X154463255Y-107126008D01*
X154629851Y-107075472D01*
X154783387Y-106993405D01*
X154917962Y-106882962D01*
X155028405Y-106748387D01*
X155086934Y-106638886D01*
X155140655Y-106704345D01*
X155369822Y-106892417D01*
X155631276Y-107032166D01*
X155914969Y-107118224D01*
X156210000Y-107147282D01*
X156505032Y-107118224D01*
X156788725Y-107032166D01*
X157050179Y-106892417D01*
X157279345Y-106704345D01*
X157467417Y-106475179D01*
X157480000Y-106451638D01*
X157492583Y-106475179D01*
X157680655Y-106704345D01*
X157909822Y-106892417D01*
X158171276Y-107032166D01*
X158454969Y-107118224D01*
X158750000Y-107147282D01*
X159045032Y-107118224D01*
X159328725Y-107032166D01*
X159590179Y-106892417D01*
X159819345Y-106704345D01*
X160007417Y-106475179D01*
X160020000Y-106451638D01*
X160032583Y-106475179D01*
X160220655Y-106704345D01*
X160449822Y-106892417D01*
X160711276Y-107032166D01*
X160994969Y-107118224D01*
X161290000Y-107147282D01*
X161585032Y-107118224D01*
X161868725Y-107032166D01*
X162130179Y-106892417D01*
X162359345Y-106704345D01*
X162547417Y-106475179D01*
X162687166Y-106213724D01*
X162773224Y-105930031D01*
X162795000Y-105708935D01*
X162795000Y-105686984D01*
X169085000Y-105686984D01*
X169085000Y-106403016D01*
X169224691Y-107105290D01*
X169498705Y-107766818D01*
X169896511Y-108362177D01*
X170402823Y-108868489D01*
X170998182Y-109266295D01*
X171659710Y-109540309D01*
X172361984Y-109680000D01*
X173078016Y-109680000D01*
X173780290Y-109540309D01*
X174441818Y-109266295D01*
X175037177Y-108868489D01*
X175543489Y-108362177D01*
X175941295Y-107766818D01*
X176215309Y-107105290D01*
X176355000Y-106403016D01*
X176355000Y-105686984D01*
X176215309Y-104984710D01*
X175941295Y-104323182D01*
X175543489Y-103727823D01*
X175037177Y-103221511D01*
X174441818Y-102823705D01*
X173780290Y-102549691D01*
X173078016Y-102410000D01*
X172361984Y-102410000D01*
X171659710Y-102549691D01*
X170998182Y-102823705D01*
X170402823Y-103221511D01*
X169896511Y-103727823D01*
X169498705Y-104323182D01*
X169224691Y-104984710D01*
X169085000Y-105686984D01*
X162795000Y-105686984D01*
X162795000Y-105111064D01*
X162773224Y-104889968D01*
X162687166Y-104606275D01*
X162547417Y-104344821D01*
X162425008Y-104195665D01*
X162430490Y-104139999D01*
X162425000Y-104084255D01*
X162425000Y-104084248D01*
X162408577Y-103917501D01*
X162343676Y-103703553D01*
X162238284Y-103506377D01*
X162096449Y-103333551D01*
X162053140Y-103298008D01*
X161155000Y-102399869D01*
X161155000Y-98674284D01*
X161291680Y-98469727D01*
X161296067Y-98459135D01*
X161407615Y-98645131D01*
X161596586Y-98853519D01*
X161822580Y-99021037D01*
X162076913Y-99141246D01*
X162210961Y-99181904D01*
X162433000Y-99059915D01*
X162433000Y-97917000D01*
X162413000Y-97917000D01*
X162413000Y-97663000D01*
X162433000Y-97663000D01*
X162433000Y-96520085D01*
X162687000Y-96520085D01*
X162687000Y-97663000D01*
X162707000Y-97663000D01*
X162707000Y-97917000D01*
X162687000Y-97917000D01*
X162687000Y-99059915D01*
X162909039Y-99181904D01*
X163043087Y-99141246D01*
X163297420Y-99021037D01*
X163523414Y-98853519D01*
X163712385Y-98645131D01*
X163823933Y-98459135D01*
X163828320Y-98469727D01*
X163985363Y-98704759D01*
X164185241Y-98904637D01*
X164420273Y-99061680D01*
X164681426Y-99169853D01*
X164958665Y-99225000D01*
X165241335Y-99225000D01*
X165518574Y-99169853D01*
X165779727Y-99061680D01*
X166014759Y-98904637D01*
X166214637Y-98704759D01*
X166371680Y-98469727D01*
X166479853Y-98208574D01*
X166535000Y-97931335D01*
X166535000Y-97648665D01*
X166479853Y-97371426D01*
X166371680Y-97110273D01*
X166214637Y-96875241D01*
X166014759Y-96675363D01*
X165779727Y-96518320D01*
X165518574Y-96410147D01*
X165241335Y-96355000D01*
X168741928Y-96355000D01*
X168741928Y-97955000D01*
X168754188Y-98079482D01*
X168790498Y-98199180D01*
X168849463Y-98309494D01*
X168928815Y-98406185D01*
X169025506Y-98485537D01*
X169135820Y-98544502D01*
X169255518Y-98580812D01*
X169380000Y-98593072D01*
X170980000Y-98593072D01*
X171104482Y-98580812D01*
X171224180Y-98544502D01*
X171334494Y-98485537D01*
X171431185Y-98406185D01*
X171510537Y-98309494D01*
X171569502Y-98199180D01*
X171585117Y-98147702D01*
X172866903Y-98147702D01*
X172938486Y-98391671D01*
X173193996Y-98512571D01*
X173468184Y-98581300D01*
X173750512Y-98595217D01*
X174030130Y-98553787D01*
X174296292Y-98458603D01*
X174421514Y-98391671D01*
X174493097Y-98147702D01*
X173680000Y-97334605D01*
X172866903Y-98147702D01*
X171585117Y-98147702D01*
X171605812Y-98079482D01*
X171618072Y-97955000D01*
X171618072Y-97225512D01*
X172239783Y-97225512D01*
X172281213Y-97505130D01*
X172376397Y-97771292D01*
X172443329Y-97896514D01*
X172687298Y-97968097D01*
X173500395Y-97155000D01*
X173859605Y-97155000D01*
X174672702Y-97968097D01*
X174916671Y-97896514D01*
X175037571Y-97641004D01*
X175106300Y-97366816D01*
X175120217Y-97084488D01*
X175078787Y-96804870D01*
X174983603Y-96538708D01*
X174916671Y-96413486D01*
X174672702Y-96341903D01*
X173859605Y-97155000D01*
X173500395Y-97155000D01*
X172687298Y-96341903D01*
X172443329Y-96413486D01*
X172322429Y-96668996D01*
X172253700Y-96943184D01*
X172239783Y-97225512D01*
X171618072Y-97225512D01*
X171618072Y-96355000D01*
X171605812Y-96230518D01*
X171585118Y-96162298D01*
X172866903Y-96162298D01*
X173680000Y-96975395D01*
X174493097Y-96162298D01*
X174421514Y-95918329D01*
X174166004Y-95797429D01*
X173891816Y-95728700D01*
X173609488Y-95714783D01*
X173329870Y-95756213D01*
X173063708Y-95851397D01*
X172938486Y-95918329D01*
X172866903Y-96162298D01*
X171585118Y-96162298D01*
X171569502Y-96110820D01*
X171510537Y-96000506D01*
X171431185Y-95903815D01*
X171334494Y-95824463D01*
X171224180Y-95765498D01*
X171104482Y-95729188D01*
X170980000Y-95716928D01*
X169380000Y-95716928D01*
X169255518Y-95729188D01*
X169135820Y-95765498D01*
X169025506Y-95824463D01*
X168928815Y-95903815D01*
X168849463Y-96000506D01*
X168790498Y-96110820D01*
X168754188Y-96230518D01*
X168741928Y-96355000D01*
X165241335Y-96355000D01*
X164958665Y-96355000D01*
X164681426Y-96410147D01*
X164420273Y-96518320D01*
X164185241Y-96675363D01*
X163985363Y-96875241D01*
X163828320Y-97110273D01*
X163823933Y-97120865D01*
X163712385Y-96934869D01*
X163523414Y-96726481D01*
X163297420Y-96558963D01*
X163043087Y-96438754D01*
X162909039Y-96398096D01*
X162687000Y-96520085D01*
X162433000Y-96520085D01*
X162210961Y-96398096D01*
X162076913Y-96438754D01*
X161822580Y-96558963D01*
X161596586Y-96726481D01*
X161407615Y-96934869D01*
X161296067Y-97120865D01*
X161291680Y-97110273D01*
X161134637Y-96875241D01*
X160934759Y-96675363D01*
X160699727Y-96518320D01*
X160438574Y-96410147D01*
X160161335Y-96355000D01*
X159878665Y-96355000D01*
X159601426Y-96410147D01*
X159340273Y-96518320D01*
X159105241Y-96675363D01*
X158905363Y-96875241D01*
X158750000Y-97107759D01*
X158594637Y-96875241D01*
X158394759Y-96675363D01*
X158159727Y-96518320D01*
X157898574Y-96410147D01*
X157621335Y-96355000D01*
X157338665Y-96355000D01*
X157061426Y-96410147D01*
X156800273Y-96518320D01*
X156565241Y-96675363D01*
X156365363Y-96875241D01*
X156210000Y-97107759D01*
X156054637Y-96875241D01*
X155854759Y-96675363D01*
X155619727Y-96518320D01*
X155358574Y-96410147D01*
X155081335Y-96355000D01*
X154798665Y-96355000D01*
X154521426Y-96410147D01*
X154260273Y-96518320D01*
X154025241Y-96675363D01*
X153825363Y-96875241D01*
X153670000Y-97107759D01*
X153514637Y-96875241D01*
X153314759Y-96675363D01*
X153079727Y-96518320D01*
X152818574Y-96410147D01*
X152541335Y-96355000D01*
X152258665Y-96355000D01*
X151981426Y-96410147D01*
X151720273Y-96518320D01*
X151485241Y-96675363D01*
X151285363Y-96875241D01*
X151130000Y-97107759D01*
X150974637Y-96875241D01*
X150774759Y-96675363D01*
X150539727Y-96518320D01*
X150278574Y-96410147D01*
X150001335Y-96355000D01*
X149718665Y-96355000D01*
X149441426Y-96410147D01*
X149180273Y-96518320D01*
X148945241Y-96675363D01*
X148746643Y-96873961D01*
X148745812Y-96865518D01*
X148709502Y-96745820D01*
X148650537Y-96635506D01*
X148571185Y-96538815D01*
X148474494Y-96459463D01*
X148364180Y-96400498D01*
X148244482Y-96364188D01*
X148120000Y-96351928D01*
X147605750Y-96355000D01*
X147447000Y-96513750D01*
X147193000Y-96513750D01*
X147034250Y-96355000D01*
X146520000Y-96351928D01*
X146395518Y-96364188D01*
X146275820Y-96400498D01*
X146165506Y-96459463D01*
X146068815Y-96538815D01*
X145989463Y-96635506D01*
X145930498Y-96745820D01*
X145894188Y-96865518D01*
X145881928Y-96990000D01*
X90218239Y-96990000D01*
X90270387Y-96937852D01*
X90449318Y-96670063D01*
X90455309Y-96655600D01*
X124412078Y-96655600D01*
X124449400Y-96659276D01*
X124486722Y-96655600D01*
X124486733Y-96655600D01*
X124598386Y-96644603D01*
X124741647Y-96601146D01*
X124873676Y-96530574D01*
X124989401Y-96435601D01*
X125013204Y-96406597D01*
X128309802Y-93110000D01*
X128371939Y-93110000D01*
X128571898Y-93070226D01*
X128760256Y-92992205D01*
X128929774Y-92878937D01*
X129073937Y-92734774D01*
X129187205Y-92565256D01*
X129265226Y-92376898D01*
X129305000Y-92176939D01*
X129305000Y-91973061D01*
X129265226Y-91773102D01*
X129187205Y-91584744D01*
X129073937Y-91415226D01*
X128929774Y-91271063D01*
X128760256Y-91157795D01*
X128571898Y-91079774D01*
X128371939Y-91040000D01*
X128168061Y-91040000D01*
X127968102Y-91079774D01*
X127779744Y-91157795D01*
X127635000Y-91254510D01*
X127490256Y-91157795D01*
X127301898Y-91079774D01*
X127101939Y-91040000D01*
X127024226Y-91040000D01*
X126969602Y-91010802D01*
X127024774Y-90973937D01*
X127168937Y-90829774D01*
X127282205Y-90660256D01*
X127360226Y-90471898D01*
X127400000Y-90271939D01*
X127400000Y-90068061D01*
X127360226Y-89868102D01*
X127282205Y-89679744D01*
X127168937Y-89510226D01*
X127024774Y-89366063D01*
X126855256Y-89252795D01*
X126666898Y-89174774D01*
X126466939Y-89135000D01*
X126263061Y-89135000D01*
X126063102Y-89174774D01*
X125874744Y-89252795D01*
X125705226Y-89366063D01*
X125661289Y-89410000D01*
X112478801Y-89410000D01*
X102266909Y-79198110D01*
X102303411Y-79182990D01*
X102546632Y-79020475D01*
X102753475Y-78813632D01*
X102870000Y-78639240D01*
X102986525Y-78813632D01*
X103193368Y-79020475D01*
X103436589Y-79182990D01*
X103706842Y-79294932D01*
X103993740Y-79352000D01*
X104286260Y-79352000D01*
X104506408Y-79308209D01*
X110799200Y-85601002D01*
X110822999Y-85630001D01*
X110851997Y-85653799D01*
X110938724Y-85724974D01*
X111070753Y-85795546D01*
X111214014Y-85839003D01*
X111363000Y-85853677D01*
X111400333Y-85850000D01*
X125415199Y-85850000D01*
X126835000Y-87269802D01*
X126835000Y-87331939D01*
X126874774Y-87531898D01*
X126952795Y-87720256D01*
X127066063Y-87889774D01*
X127210226Y-88033937D01*
X127379744Y-88147205D01*
X127568102Y-88225226D01*
X127768061Y-88265000D01*
X127971939Y-88265000D01*
X128171898Y-88225226D01*
X128360256Y-88147205D01*
X128529774Y-88033937D01*
X128673937Y-87889774D01*
X128787205Y-87720256D01*
X128865226Y-87531898D01*
X128905000Y-87331939D01*
X128905000Y-87128061D01*
X128865226Y-86928102D01*
X128824591Y-86830000D01*
X168741928Y-86830000D01*
X168741928Y-88430000D01*
X168754188Y-88554482D01*
X168790498Y-88674180D01*
X168849463Y-88784494D01*
X168928815Y-88881185D01*
X169025506Y-88960537D01*
X169135820Y-89019502D01*
X169255518Y-89055812D01*
X169380000Y-89068072D01*
X170980000Y-89068072D01*
X171104482Y-89055812D01*
X171224180Y-89019502D01*
X171334494Y-88960537D01*
X171431185Y-88881185D01*
X171510537Y-88784494D01*
X171569502Y-88674180D01*
X171585117Y-88622702D01*
X172866903Y-88622702D01*
X172938486Y-88866671D01*
X173193996Y-88987571D01*
X173468184Y-89056300D01*
X173750512Y-89070217D01*
X174030130Y-89028787D01*
X174296292Y-88933603D01*
X174421514Y-88866671D01*
X174493097Y-88622702D01*
X173680000Y-87809605D01*
X172866903Y-88622702D01*
X171585117Y-88622702D01*
X171605812Y-88554482D01*
X171618072Y-88430000D01*
X171618072Y-87700512D01*
X172239783Y-87700512D01*
X172281213Y-87980130D01*
X172376397Y-88246292D01*
X172443329Y-88371514D01*
X172687298Y-88443097D01*
X173500395Y-87630000D01*
X173859605Y-87630000D01*
X174672702Y-88443097D01*
X174916671Y-88371514D01*
X175037571Y-88116004D01*
X175106300Y-87841816D01*
X175120217Y-87559488D01*
X175078787Y-87279870D01*
X174983603Y-87013708D01*
X174916671Y-86888486D01*
X174672702Y-86816903D01*
X173859605Y-87630000D01*
X173500395Y-87630000D01*
X172687298Y-86816903D01*
X172443329Y-86888486D01*
X172322429Y-87143996D01*
X172253700Y-87418184D01*
X172239783Y-87700512D01*
X171618072Y-87700512D01*
X171618072Y-86830000D01*
X171605812Y-86705518D01*
X171585118Y-86637298D01*
X172866903Y-86637298D01*
X173680000Y-87450395D01*
X174493097Y-86637298D01*
X174421514Y-86393329D01*
X174166004Y-86272429D01*
X173891816Y-86203700D01*
X173609488Y-86189783D01*
X173329870Y-86231213D01*
X173063708Y-86326397D01*
X172938486Y-86393329D01*
X172866903Y-86637298D01*
X171585118Y-86637298D01*
X171569502Y-86585820D01*
X171510537Y-86475506D01*
X171431185Y-86378815D01*
X171334494Y-86299463D01*
X171224180Y-86240498D01*
X171104482Y-86204188D01*
X170980000Y-86191928D01*
X169380000Y-86191928D01*
X169255518Y-86204188D01*
X169135820Y-86240498D01*
X169025506Y-86299463D01*
X168928815Y-86378815D01*
X168849463Y-86475506D01*
X168790498Y-86585820D01*
X168754188Y-86705518D01*
X168741928Y-86830000D01*
X128824591Y-86830000D01*
X128787205Y-86739744D01*
X128673937Y-86570226D01*
X128529774Y-86426063D01*
X128360256Y-86312795D01*
X128171898Y-86234774D01*
X127971939Y-86195000D01*
X127909802Y-86195000D01*
X126293804Y-84579003D01*
X126270001Y-84549999D01*
X126154276Y-84455026D01*
X126022247Y-84384454D01*
X125878986Y-84340997D01*
X125767333Y-84330000D01*
X125767322Y-84330000D01*
X125730000Y-84326324D01*
X125692678Y-84330000D01*
X111677802Y-84330000D01*
X106699801Y-79352000D01*
X106826260Y-79352000D01*
X107113158Y-79294932D01*
X107383411Y-79182990D01*
X107626632Y-79020475D01*
X107758487Y-78888620D01*
X107780498Y-78961180D01*
X107839463Y-79071494D01*
X107918815Y-79168185D01*
X108015506Y-79247537D01*
X108125820Y-79306502D01*
X108245518Y-79342812D01*
X108370000Y-79355072D01*
X108934250Y-79352000D01*
X109093000Y-79193250D01*
X109093000Y-77994000D01*
X109347000Y-77994000D01*
X109347000Y-79193250D01*
X109505750Y-79352000D01*
X110070000Y-79355072D01*
X110194482Y-79342812D01*
X110314180Y-79306502D01*
X110424494Y-79247537D01*
X110521185Y-79168185D01*
X110600537Y-79071494D01*
X110659502Y-78961180D01*
X110695812Y-78841482D01*
X110708072Y-78717000D01*
X110705877Y-78313721D01*
X115025000Y-78313721D01*
X115025000Y-78734279D01*
X115107047Y-79146756D01*
X115267988Y-79535302D01*
X115501637Y-79884983D01*
X115799017Y-80182363D01*
X116148698Y-80416012D01*
X116537244Y-80576953D01*
X116949721Y-80659000D01*
X117370279Y-80659000D01*
X117782756Y-80576953D01*
X118171302Y-80416012D01*
X118520983Y-80182363D01*
X118818363Y-79884983D01*
X118845078Y-79845000D01*
X121116928Y-79845000D01*
X121116928Y-81445000D01*
X121129188Y-81569482D01*
X121165498Y-81689180D01*
X121224463Y-81799494D01*
X121303815Y-81896185D01*
X121400506Y-81975537D01*
X121510820Y-82034502D01*
X121630518Y-82070812D01*
X121755000Y-82083072D01*
X123355000Y-82083072D01*
X123479482Y-82070812D01*
X123599180Y-82034502D01*
X123709494Y-81975537D01*
X123806185Y-81896185D01*
X123885537Y-81799494D01*
X123944502Y-81689180D01*
X123960117Y-81637702D01*
X125241903Y-81637702D01*
X125313486Y-81881671D01*
X125568996Y-82002571D01*
X125843184Y-82071300D01*
X126125512Y-82085217D01*
X126405130Y-82043787D01*
X126671292Y-81948603D01*
X126796514Y-81881671D01*
X126868097Y-81637702D01*
X126055000Y-80824605D01*
X125241903Y-81637702D01*
X123960117Y-81637702D01*
X123980812Y-81569482D01*
X123993072Y-81445000D01*
X123993072Y-80715512D01*
X124614783Y-80715512D01*
X124656213Y-80995130D01*
X124751397Y-81261292D01*
X124818329Y-81386514D01*
X125062298Y-81458097D01*
X125875395Y-80645000D01*
X125062298Y-79831903D01*
X124818329Y-79903486D01*
X124697429Y-80158996D01*
X124628700Y-80433184D01*
X124614783Y-80715512D01*
X123993072Y-80715512D01*
X123993072Y-79845000D01*
X123980812Y-79720518D01*
X123944502Y-79600820D01*
X123885537Y-79490506D01*
X123806185Y-79393815D01*
X123709494Y-79314463D01*
X123599180Y-79255498D01*
X123479482Y-79219188D01*
X123355000Y-79206928D01*
X121755000Y-79206928D01*
X121630518Y-79219188D01*
X121510820Y-79255498D01*
X121400506Y-79314463D01*
X121303815Y-79393815D01*
X121224463Y-79490506D01*
X121165498Y-79600820D01*
X121129188Y-79720518D01*
X121116928Y-79845000D01*
X118845078Y-79845000D01*
X119052012Y-79535302D01*
X119212953Y-79146756D01*
X119295000Y-78734279D01*
X119295000Y-78313721D01*
X119212953Y-77901244D01*
X119052012Y-77512698D01*
X118818363Y-77163017D01*
X118520983Y-76865637D01*
X118171302Y-76631988D01*
X117782756Y-76471047D01*
X117370279Y-76389000D01*
X116949721Y-76389000D01*
X116537244Y-76471047D01*
X116148698Y-76631988D01*
X115799017Y-76865637D01*
X115501637Y-77163017D01*
X115267988Y-77512698D01*
X115107047Y-77901244D01*
X115025000Y-78313721D01*
X110705877Y-78313721D01*
X110705000Y-78152750D01*
X110546250Y-77994000D01*
X109347000Y-77994000D01*
X109093000Y-77994000D01*
X109073000Y-77994000D01*
X109073000Y-77740000D01*
X109093000Y-77740000D01*
X109093000Y-76540750D01*
X109347000Y-76540750D01*
X109347000Y-77740000D01*
X110546250Y-77740000D01*
X110705000Y-77581250D01*
X110708072Y-77017000D01*
X110695812Y-76892518D01*
X110659502Y-76772820D01*
X110600537Y-76662506D01*
X110521185Y-76565815D01*
X110424494Y-76486463D01*
X110314180Y-76427498D01*
X110194482Y-76391188D01*
X110070000Y-76378928D01*
X109505750Y-76382000D01*
X109347000Y-76540750D01*
X109093000Y-76540750D01*
X108934250Y-76382000D01*
X108370000Y-76378928D01*
X108245518Y-76391188D01*
X108125820Y-76427498D01*
X108015506Y-76486463D01*
X107918815Y-76565815D01*
X107839463Y-76662506D01*
X107780498Y-76772820D01*
X107758487Y-76845380D01*
X107626632Y-76713525D01*
X107383411Y-76551010D01*
X107113158Y-76439068D01*
X106826260Y-76382000D01*
X106533740Y-76382000D01*
X106246842Y-76439068D01*
X105976589Y-76551010D01*
X105733368Y-76713525D01*
X105526525Y-76920368D01*
X105410000Y-77094760D01*
X105293475Y-76920368D01*
X105086632Y-76713525D01*
X104843411Y-76551010D01*
X104573158Y-76439068D01*
X104286260Y-76382000D01*
X103993740Y-76382000D01*
X103706842Y-76439068D01*
X103436589Y-76551010D01*
X103193368Y-76713525D01*
X102986525Y-76920368D01*
X102870000Y-77094760D01*
X102753475Y-76920368D01*
X102546632Y-76713525D01*
X102303411Y-76551010D01*
X102033158Y-76439068D01*
X101746260Y-76382000D01*
X101453740Y-76382000D01*
X101166842Y-76439068D01*
X100896589Y-76551010D01*
X100653368Y-76713525D01*
X100446525Y-76920368D01*
X100284010Y-77163589D01*
X100268890Y-77200091D01*
X98133402Y-75064603D01*
X98109599Y-75035599D01*
X97993874Y-74940626D01*
X97861845Y-74870054D01*
X97718584Y-74826597D01*
X97606931Y-74815600D01*
X97606920Y-74815600D01*
X97569598Y-74811924D01*
X97532276Y-74815600D01*
X90455309Y-74815600D01*
X90449318Y-74801137D01*
X90270387Y-74533348D01*
X90042652Y-74305613D01*
X89774863Y-74126682D01*
X89477312Y-74003432D01*
X89161433Y-73940600D01*
X88839367Y-73940600D01*
X88523488Y-74003432D01*
X88225937Y-74126682D01*
X87958148Y-74305613D01*
X87730413Y-74533348D01*
X87551482Y-74801137D01*
X87545491Y-74815600D01*
X83955309Y-74815600D01*
X83949318Y-74801137D01*
X83770387Y-74533348D01*
X83542652Y-74305613D01*
X83274863Y-74126682D01*
X82977312Y-74003432D01*
X82661433Y-73940600D01*
X82339367Y-73940600D01*
X82023488Y-74003432D01*
X81725937Y-74126682D01*
X81458148Y-74305613D01*
X81230413Y-74533348D01*
X81051482Y-74801137D01*
X80928232Y-75098688D01*
X80865400Y-75414567D01*
X79502000Y-75414567D01*
X79502000Y-69491984D01*
X80185000Y-69491984D01*
X80185000Y-70208016D01*
X80324691Y-70910290D01*
X80598705Y-71571818D01*
X80996511Y-72167177D01*
X81502823Y-72673489D01*
X82098182Y-73071295D01*
X82759710Y-73345309D01*
X83461984Y-73485000D01*
X84178016Y-73485000D01*
X84880290Y-73345309D01*
X85541818Y-73071295D01*
X86137177Y-72673489D01*
X86643489Y-72167177D01*
X86918896Y-71755000D01*
X112901323Y-71755000D01*
X112915997Y-71903986D01*
X112959454Y-72047247D01*
X113030026Y-72179276D01*
X113080693Y-72241014D01*
X113124999Y-72295001D01*
X113240724Y-72389974D01*
X113372753Y-72460546D01*
X113516014Y-72504003D01*
X113665000Y-72518677D01*
X113702333Y-72515000D01*
X118995884Y-72515000D01*
X125724228Y-79243345D01*
X125704870Y-79246213D01*
X125438708Y-79341397D01*
X125313486Y-79408329D01*
X125241903Y-79652298D01*
X126055000Y-80465395D01*
X126069143Y-80451253D01*
X126248748Y-80630858D01*
X126234605Y-80645000D01*
X127047702Y-81458097D01*
X127291671Y-81386514D01*
X127412571Y-81131004D01*
X127452519Y-80971636D01*
X131138728Y-84657846D01*
X131084774Y-84788102D01*
X131045000Y-84988061D01*
X131045000Y-85191939D01*
X131084774Y-85391898D01*
X131162795Y-85580256D01*
X131276063Y-85749774D01*
X131420226Y-85893937D01*
X131589744Y-86007205D01*
X131778102Y-86085226D01*
X131978061Y-86125000D01*
X132181939Y-86125000D01*
X132381898Y-86085226D01*
X132570256Y-86007205D01*
X132739774Y-85893937D01*
X132883937Y-85749774D01*
X132997205Y-85580256D01*
X133075226Y-85391898D01*
X133115000Y-85191939D01*
X133115000Y-84988061D01*
X133075226Y-84788102D01*
X132997205Y-84599744D01*
X132883937Y-84430226D01*
X132828987Y-84375276D01*
X132785546Y-84232068D01*
X132714974Y-84100039D01*
X132701811Y-84084000D01*
X132643799Y-84013311D01*
X132643795Y-84013307D01*
X132620001Y-83984314D01*
X132591008Y-83960520D01*
X121780486Y-73150000D01*
X122920987Y-73150000D01*
X122907795Y-73169744D01*
X122829774Y-73358102D01*
X122790000Y-73558061D01*
X122790000Y-73761939D01*
X122829774Y-73961898D01*
X122907795Y-74150256D01*
X123021063Y-74319774D01*
X123165226Y-74463937D01*
X123334744Y-74577205D01*
X123523102Y-74655226D01*
X123723061Y-74695000D01*
X123926939Y-74695000D01*
X124126898Y-74655226D01*
X124315256Y-74577205D01*
X124484774Y-74463937D01*
X124528711Y-74420000D01*
X129225199Y-74420000D01*
X138030000Y-83224802D01*
X138030000Y-83286939D01*
X138069774Y-83486898D01*
X138147795Y-83675256D01*
X138261063Y-83844774D01*
X138405226Y-83988937D01*
X138574744Y-84102205D01*
X138763102Y-84180226D01*
X138963061Y-84220000D01*
X139166939Y-84220000D01*
X139366898Y-84180226D01*
X139555256Y-84102205D01*
X139724774Y-83988937D01*
X139868937Y-83844774D01*
X139982205Y-83675256D01*
X140060226Y-83486898D01*
X140082934Y-83372736D01*
X141840000Y-85129802D01*
X141840000Y-85191939D01*
X141879774Y-85391898D01*
X141957795Y-85580256D01*
X142071063Y-85749774D01*
X142215226Y-85893937D01*
X142384744Y-86007205D01*
X142573102Y-86085226D01*
X142773061Y-86125000D01*
X142976939Y-86125000D01*
X143176898Y-86085226D01*
X143365256Y-86007205D01*
X143534774Y-85893937D01*
X143678937Y-85749774D01*
X143792205Y-85580256D01*
X143870226Y-85391898D01*
X143910000Y-85191939D01*
X143910000Y-84988061D01*
X143902164Y-84948665D01*
X145885000Y-84948665D01*
X145885000Y-85231335D01*
X145940147Y-85508574D01*
X146048320Y-85769727D01*
X146205363Y-86004759D01*
X146405241Y-86204637D01*
X146640273Y-86361680D01*
X146901426Y-86469853D01*
X147178665Y-86525000D01*
X147461335Y-86525000D01*
X147738574Y-86469853D01*
X147999727Y-86361680D01*
X148234759Y-86204637D01*
X148434637Y-86004759D01*
X148590000Y-85772241D01*
X148745363Y-86004759D01*
X148945241Y-86204637D01*
X149180273Y-86361680D01*
X149441426Y-86469853D01*
X149718665Y-86525000D01*
X150001335Y-86525000D01*
X150278574Y-86469853D01*
X150539727Y-86361680D01*
X150774759Y-86204637D01*
X150974637Y-86004759D01*
X151130000Y-85772241D01*
X151285363Y-86004759D01*
X151485241Y-86204637D01*
X151720273Y-86361680D01*
X151981426Y-86469853D01*
X152258665Y-86525000D01*
X152541335Y-86525000D01*
X152818574Y-86469853D01*
X153079727Y-86361680D01*
X153284284Y-86225000D01*
X154055716Y-86225000D01*
X154260273Y-86361680D01*
X154521426Y-86469853D01*
X154798665Y-86525000D01*
X155081335Y-86525000D01*
X155358574Y-86469853D01*
X155619727Y-86361680D01*
X155854759Y-86204637D01*
X156054637Y-86004759D01*
X156210000Y-85772241D01*
X156365363Y-86004759D01*
X156565241Y-86204637D01*
X156800273Y-86361680D01*
X157061426Y-86469853D01*
X157338665Y-86525000D01*
X157621335Y-86525000D01*
X157898574Y-86469853D01*
X158159727Y-86361680D01*
X158394759Y-86204637D01*
X158594637Y-86004759D01*
X158750000Y-85772241D01*
X158905363Y-86004759D01*
X159105241Y-86204637D01*
X159340273Y-86361680D01*
X159601426Y-86469853D01*
X159878665Y-86525000D01*
X160161335Y-86525000D01*
X160438574Y-86469853D01*
X160699727Y-86361680D01*
X160934759Y-86204637D01*
X161134637Y-86004759D01*
X161290000Y-85772241D01*
X161445363Y-86004759D01*
X161645241Y-86204637D01*
X161880273Y-86361680D01*
X162141426Y-86469853D01*
X162418665Y-86525000D01*
X162701335Y-86525000D01*
X162978574Y-86469853D01*
X163239727Y-86361680D01*
X163474759Y-86204637D01*
X163674637Y-86004759D01*
X163830000Y-85772241D01*
X163985363Y-86004759D01*
X164185241Y-86204637D01*
X164420273Y-86361680D01*
X164681426Y-86469853D01*
X164958665Y-86525000D01*
X165241335Y-86525000D01*
X165518574Y-86469853D01*
X165779727Y-86361680D01*
X166014759Y-86204637D01*
X166214637Y-86004759D01*
X166371680Y-85769727D01*
X166479853Y-85508574D01*
X166535000Y-85231335D01*
X166535000Y-84948665D01*
X166479853Y-84671426D01*
X166371680Y-84410273D01*
X166214637Y-84175241D01*
X166014759Y-83975363D01*
X165779727Y-83818320D01*
X165518574Y-83710147D01*
X165241335Y-83655000D01*
X164958665Y-83655000D01*
X164681426Y-83710147D01*
X164420273Y-83818320D01*
X164185241Y-83975363D01*
X163985363Y-84175241D01*
X163830000Y-84407759D01*
X163674637Y-84175241D01*
X163474759Y-83975363D01*
X163239727Y-83818320D01*
X162978574Y-83710147D01*
X162701335Y-83655000D01*
X162418665Y-83655000D01*
X162141426Y-83710147D01*
X161880273Y-83818320D01*
X161645241Y-83975363D01*
X161445363Y-84175241D01*
X161290000Y-84407759D01*
X161134637Y-84175241D01*
X160934759Y-83975363D01*
X160699727Y-83818320D01*
X160438574Y-83710147D01*
X160161335Y-83655000D01*
X159878665Y-83655000D01*
X159601426Y-83710147D01*
X159340273Y-83818320D01*
X159105241Y-83975363D01*
X158905363Y-84175241D01*
X158750000Y-84407759D01*
X158594637Y-84175241D01*
X158394759Y-83975363D01*
X158159727Y-83818320D01*
X157898574Y-83710147D01*
X157621335Y-83655000D01*
X157338665Y-83655000D01*
X157061426Y-83710147D01*
X156800273Y-83818320D01*
X156565241Y-83975363D01*
X156365363Y-84175241D01*
X156210000Y-84407759D01*
X156054637Y-84175241D01*
X155854759Y-83975363D01*
X155619727Y-83818320D01*
X155358574Y-83710147D01*
X155081335Y-83655000D01*
X154798665Y-83655000D01*
X154521426Y-83710147D01*
X154260273Y-83818320D01*
X154055716Y-83955000D01*
X153284284Y-83955000D01*
X153079727Y-83818320D01*
X152818574Y-83710147D01*
X152541335Y-83655000D01*
X152258665Y-83655000D01*
X151981426Y-83710147D01*
X151720273Y-83818320D01*
X151485241Y-83975363D01*
X151285363Y-84175241D01*
X151130000Y-84407759D01*
X150974637Y-84175241D01*
X150774759Y-83975363D01*
X150539727Y-83818320D01*
X150278574Y-83710147D01*
X150001335Y-83655000D01*
X149718665Y-83655000D01*
X149441426Y-83710147D01*
X149180273Y-83818320D01*
X148945241Y-83975363D01*
X148745363Y-84175241D01*
X148590000Y-84407759D01*
X148434637Y-84175241D01*
X148234759Y-83975363D01*
X147999727Y-83818320D01*
X147738574Y-83710147D01*
X147461335Y-83655000D01*
X147178665Y-83655000D01*
X146901426Y-83710147D01*
X146640273Y-83818320D01*
X146405241Y-83975363D01*
X146205363Y-84175241D01*
X146048320Y-84410273D01*
X145940147Y-84671426D01*
X145885000Y-84948665D01*
X143902164Y-84948665D01*
X143870226Y-84788102D01*
X143792205Y-84599744D01*
X143695490Y-84455000D01*
X143792205Y-84310256D01*
X143870226Y-84121898D01*
X143910000Y-83921939D01*
X143910000Y-83718061D01*
X143870226Y-83518102D01*
X143792205Y-83329744D01*
X143678937Y-83160226D01*
X143534774Y-83016063D01*
X143365256Y-82902795D01*
X143176898Y-82824774D01*
X142976939Y-82785000D01*
X142914802Y-82785000D01*
X135314026Y-75184224D01*
X157960381Y-75184224D01*
X158092317Y-75479312D01*
X158433045Y-75650159D01*
X158800557Y-75751250D01*
X159180729Y-75778701D01*
X159558951Y-75731457D01*
X159920690Y-75611333D01*
X160063498Y-75535000D01*
X161891928Y-75535000D01*
X161891928Y-78135000D01*
X161904188Y-78259482D01*
X161940498Y-78379180D01*
X161999463Y-78489494D01*
X162078815Y-78586185D01*
X162175506Y-78665537D01*
X162285820Y-78724502D01*
X162405518Y-78760812D01*
X162530000Y-78773072D01*
X165130000Y-78773072D01*
X165254482Y-78760812D01*
X165374180Y-78724502D01*
X165484494Y-78665537D01*
X165581185Y-78586185D01*
X165660537Y-78489494D01*
X165719502Y-78379180D01*
X165755812Y-78259482D01*
X165768072Y-78135000D01*
X165768072Y-77069221D01*
X170331000Y-77069221D01*
X170331000Y-77489779D01*
X170413047Y-77902256D01*
X170573988Y-78290802D01*
X170807637Y-78640483D01*
X171105017Y-78937863D01*
X171454698Y-79171512D01*
X171843244Y-79332453D01*
X172255721Y-79414500D01*
X172676279Y-79414500D01*
X173088756Y-79332453D01*
X173477302Y-79171512D01*
X173826983Y-78937863D01*
X174124363Y-78640483D01*
X174358012Y-78290802D01*
X174518953Y-77902256D01*
X174601000Y-77489779D01*
X174601000Y-77069221D01*
X174518953Y-76656744D01*
X174358012Y-76268198D01*
X174124363Y-75918517D01*
X173826983Y-75621137D01*
X173477302Y-75387488D01*
X173088756Y-75226547D01*
X172676279Y-75144500D01*
X172255721Y-75144500D01*
X171843244Y-75226547D01*
X171454698Y-75387488D01*
X171105017Y-75621137D01*
X170807637Y-75918517D01*
X170573988Y-76268198D01*
X170413047Y-76656744D01*
X170331000Y-77069221D01*
X165768072Y-77069221D01*
X165768072Y-75535000D01*
X165755812Y-75410518D01*
X165719502Y-75290820D01*
X165660537Y-75180506D01*
X165581185Y-75083815D01*
X165484494Y-75004463D01*
X165374180Y-74945498D01*
X165254482Y-74909188D01*
X165130000Y-74896928D01*
X162530000Y-74896928D01*
X162405518Y-74909188D01*
X162285820Y-74945498D01*
X162175506Y-75004463D01*
X162078815Y-75083815D01*
X161999463Y-75180506D01*
X161940498Y-75290820D01*
X161904188Y-75410518D01*
X161891928Y-75535000D01*
X160063498Y-75535000D01*
X160167683Y-75479312D01*
X160299619Y-75184224D01*
X159130000Y-74014605D01*
X157960381Y-75184224D01*
X135314026Y-75184224D01*
X134015531Y-73885729D01*
X157186299Y-73885729D01*
X157233543Y-74263951D01*
X157353667Y-74625690D01*
X157485688Y-74872683D01*
X157780776Y-75004619D01*
X158950395Y-73835000D01*
X159309605Y-73835000D01*
X160479224Y-75004619D01*
X160774312Y-74872683D01*
X160945159Y-74531955D01*
X161046250Y-74164443D01*
X161073701Y-73784271D01*
X161026457Y-73406049D01*
X160906333Y-73044310D01*
X160774312Y-72797317D01*
X160479224Y-72665381D01*
X159309605Y-73835000D01*
X158950395Y-73835000D01*
X157780776Y-72665381D01*
X157485688Y-72797317D01*
X157314841Y-73138045D01*
X157213750Y-73505557D01*
X157186299Y-73885729D01*
X134015531Y-73885729D01*
X132615578Y-72485776D01*
X157960381Y-72485776D01*
X159130000Y-73655395D01*
X160299619Y-72485776D01*
X160167683Y-72190688D01*
X160154792Y-72184224D01*
X162660381Y-72184224D01*
X162792317Y-72479312D01*
X163133045Y-72650159D01*
X163500557Y-72751250D01*
X163880729Y-72778701D01*
X164258951Y-72731457D01*
X164620690Y-72611333D01*
X164867683Y-72479312D01*
X164999619Y-72184224D01*
X163830000Y-71014605D01*
X162660381Y-72184224D01*
X160154792Y-72184224D01*
X159826955Y-72019841D01*
X159459443Y-71918750D01*
X159079271Y-71891299D01*
X158701049Y-71938543D01*
X158339310Y-72058667D01*
X158092317Y-72190688D01*
X157960381Y-72485776D01*
X132615578Y-72485776D01*
X131015531Y-70885729D01*
X161886299Y-70885729D01*
X161933543Y-71263951D01*
X162053667Y-71625690D01*
X162185688Y-71872683D01*
X162480776Y-72004619D01*
X163650395Y-70835000D01*
X164009605Y-70835000D01*
X165179224Y-72004619D01*
X165474312Y-71872683D01*
X165645159Y-71531955D01*
X165746250Y-71164443D01*
X165773701Y-70784271D01*
X165726457Y-70406049D01*
X165606333Y-70044310D01*
X165474312Y-69797317D01*
X165179224Y-69665381D01*
X164009605Y-70835000D01*
X163650395Y-70835000D01*
X162480776Y-69665381D01*
X162185688Y-69797317D01*
X162014841Y-70138045D01*
X161913750Y-70505557D01*
X161886299Y-70885729D01*
X131015531Y-70885729D01*
X129615578Y-69485776D01*
X162660381Y-69485776D01*
X163830000Y-70655395D01*
X164993411Y-69491984D01*
X169085000Y-69491984D01*
X169085000Y-70208016D01*
X169224691Y-70910290D01*
X169498705Y-71571818D01*
X169896511Y-72167177D01*
X170402823Y-72673489D01*
X170998182Y-73071295D01*
X171659710Y-73345309D01*
X172361984Y-73485000D01*
X173078016Y-73485000D01*
X173780290Y-73345309D01*
X174441818Y-73071295D01*
X175037177Y-72673489D01*
X175543489Y-72167177D01*
X175941295Y-71571818D01*
X176215309Y-70910290D01*
X176355000Y-70208016D01*
X176355000Y-69491984D01*
X176215309Y-68789710D01*
X175941295Y-68128182D01*
X175543489Y-67532823D01*
X175037177Y-67026511D01*
X174441818Y-66628705D01*
X173780290Y-66354691D01*
X173078016Y-66215000D01*
X172361984Y-66215000D01*
X171659710Y-66354691D01*
X170998182Y-66628705D01*
X170402823Y-67026511D01*
X169896511Y-67532823D01*
X169498705Y-68128182D01*
X169224691Y-68789710D01*
X169085000Y-69491984D01*
X164993411Y-69491984D01*
X164999619Y-69485776D01*
X164867683Y-69190688D01*
X164526955Y-69019841D01*
X164159443Y-68918750D01*
X163779271Y-68891299D01*
X163401049Y-68938543D01*
X163039310Y-69058667D01*
X162792317Y-69190688D01*
X162660381Y-69485776D01*
X129615578Y-69485776D01*
X126928804Y-66799003D01*
X126905001Y-66769999D01*
X126789276Y-66675026D01*
X126657247Y-66604454D01*
X126513986Y-66560997D01*
X126402333Y-66550000D01*
X126402322Y-66550000D01*
X126365000Y-66546324D01*
X126327678Y-66550000D01*
X122138072Y-66550000D01*
X122138072Y-66460000D01*
X122125812Y-66335518D01*
X122089502Y-66215820D01*
X122030537Y-66105506D01*
X121951185Y-66008815D01*
X121854494Y-65929463D01*
X121744180Y-65870498D01*
X121624482Y-65834188D01*
X121500000Y-65821928D01*
X119800000Y-65821928D01*
X119675518Y-65834188D01*
X119555820Y-65870498D01*
X119445506Y-65929463D01*
X119348815Y-66008815D01*
X119269463Y-66105506D01*
X119210498Y-66215820D01*
X119188487Y-66288380D01*
X119056632Y-66156525D01*
X118813411Y-65994010D01*
X118543158Y-65882068D01*
X118256260Y-65825000D01*
X117963740Y-65825000D01*
X117676842Y-65882068D01*
X117406589Y-65994010D01*
X117163368Y-66156525D01*
X116956525Y-66363368D01*
X116840000Y-66537760D01*
X116723475Y-66363368D01*
X116516632Y-66156525D01*
X116273411Y-65994010D01*
X116003158Y-65882068D01*
X115716260Y-65825000D01*
X115423740Y-65825000D01*
X115136842Y-65882068D01*
X114866589Y-65994010D01*
X114623368Y-66156525D01*
X114416525Y-66363368D01*
X114254010Y-66606589D01*
X114142068Y-66876842D01*
X114085000Y-67163740D01*
X114085000Y-67456260D01*
X114128790Y-67676408D01*
X113153998Y-68651201D01*
X113125000Y-68674999D01*
X113101202Y-68703997D01*
X113101201Y-68703998D01*
X113030026Y-68790724D01*
X112959454Y-68922754D01*
X112915998Y-69066015D01*
X112901324Y-69215000D01*
X112905001Y-69252332D01*
X112905000Y-71717667D01*
X112901323Y-71755000D01*
X86918896Y-71755000D01*
X87041295Y-71571818D01*
X87315309Y-70910290D01*
X87455000Y-70208016D01*
X87455000Y-69491984D01*
X87393471Y-69182653D01*
X94890452Y-69182653D01*
X95046462Y-69498214D01*
X95421245Y-69689020D01*
X95826051Y-69803044D01*
X96245324Y-69835902D01*
X96662951Y-69786334D01*
X97062883Y-69656243D01*
X97358538Y-69498214D01*
X97514548Y-69182653D01*
X96202500Y-67870605D01*
X94890452Y-69182653D01*
X87393471Y-69182653D01*
X87315309Y-68789710D01*
X87041295Y-68128182D01*
X86777794Y-67733824D01*
X94057598Y-67733824D01*
X94107166Y-68151451D01*
X94237257Y-68551383D01*
X94395286Y-68847038D01*
X94710847Y-69003048D01*
X96022895Y-67691000D01*
X96382105Y-67691000D01*
X97694153Y-69003048D01*
X98009714Y-68847038D01*
X98200520Y-68472255D01*
X98314544Y-68067449D01*
X98347402Y-67648176D01*
X98312454Y-67353721D01*
X100735000Y-67353721D01*
X100735000Y-67774279D01*
X100817047Y-68186756D01*
X100977988Y-68575302D01*
X101211637Y-68924983D01*
X101509017Y-69222363D01*
X101858698Y-69456012D01*
X102247244Y-69616953D01*
X102659721Y-69699000D01*
X103080279Y-69699000D01*
X103492756Y-69616953D01*
X103881302Y-69456012D01*
X104230983Y-69222363D01*
X104528363Y-68924983D01*
X104762012Y-68575302D01*
X104922953Y-68186756D01*
X105005000Y-67774279D01*
X105005000Y-67353721D01*
X104922953Y-66941244D01*
X104762012Y-66552698D01*
X104528363Y-66203017D01*
X104230983Y-65905637D01*
X103881302Y-65671988D01*
X103492756Y-65511047D01*
X103080279Y-65429000D01*
X102659721Y-65429000D01*
X102247244Y-65511047D01*
X101858698Y-65671988D01*
X101509017Y-65905637D01*
X101211637Y-66203017D01*
X100977988Y-66552698D01*
X100817047Y-66941244D01*
X100735000Y-67353721D01*
X98312454Y-67353721D01*
X98297834Y-67230549D01*
X98167743Y-66830617D01*
X98009714Y-66534962D01*
X97694153Y-66378952D01*
X96382105Y-67691000D01*
X96022895Y-67691000D01*
X94710847Y-66378952D01*
X94395286Y-66534962D01*
X94204480Y-66909745D01*
X94090456Y-67314551D01*
X94057598Y-67733824D01*
X86777794Y-67733824D01*
X86643489Y-67532823D01*
X86137177Y-67026511D01*
X85541818Y-66628705D01*
X84880290Y-66354691D01*
X84178016Y-66215000D01*
X83461984Y-66215000D01*
X82759710Y-66354691D01*
X82098182Y-66628705D01*
X81502823Y-67026511D01*
X80996511Y-67532823D01*
X80598705Y-68128182D01*
X80324691Y-68789710D01*
X80185000Y-69491984D01*
X79502000Y-69491984D01*
X79502000Y-66199347D01*
X94890452Y-66199347D01*
X96202500Y-67511395D01*
X97514548Y-66199347D01*
X97358538Y-65883786D01*
X96983755Y-65692980D01*
X96578949Y-65578956D01*
X96159676Y-65546098D01*
X95742049Y-65595666D01*
X95342117Y-65725757D01*
X95046462Y-65883786D01*
X94890452Y-66199347D01*
X79502000Y-66199347D01*
X79502000Y-63627000D01*
X177038000Y-63627000D01*
X177038000Y-110363000D01*
G37*
G04 #@! TD.AperFunction*
D25*
X115697000Y-69723000D02*
X115717000Y-69723000D01*
X115717000Y-69977000D01*
X115697000Y-69977000D01*
X115697000Y-69997000D01*
X115443000Y-69997000D01*
X115443000Y-69977000D01*
X115423000Y-69977000D01*
X115423000Y-69723000D01*
X115443000Y-69723000D01*
X115443000Y-69703000D01*
X115697000Y-69703000D01*
X115697000Y-69723000D01*
G04 #@! TA.AperFunction,Conductor*
D26*
G36*
X115697000Y-69723000D02*
G01*
X115717000Y-69723000D01*
X115717000Y-69977000D01*
X115697000Y-69977000D01*
X115697000Y-69997000D01*
X115443000Y-69997000D01*
X115443000Y-69977000D01*
X115423000Y-69977000D01*
X115423000Y-69723000D01*
X115443000Y-69723000D01*
X115443000Y-69703000D01*
X115697000Y-69703000D01*
X115697000Y-69723000D01*
G37*
G04 #@! TD.AperFunction*
G04 #@! TD*
M02*
